<mxfile host="app.diagrams.net" agent="Mozilla/5.0 (Macintosh; Intel Mac OS X 10_15_7) AppleWebKit/605.1.15 (KHTML, like Gecko) Version/18.3 Safari/605.1.15" version="26.1.3">
  <diagram name="Page-1" id="zQzDXrkeohjPs9V89TOj">
    <mxGraphModel dx="555" dy="668" grid="0" gridSize="10" guides="1" tooltips="1" connect="1" arrows="1" fold="1" page="0" pageScale="1" pageWidth="827" pageHeight="1169" math="0" shadow="0">
      <root>
        <mxCell id="0" />
        <mxCell id="1" parent="0" />
        <mxCell id="jmmyd-2RqcsZahoPcaCm-1" value="Soort_partner" style="shape=table;startSize=25;container=1;collapsible=0;childLayout=tableLayout;fixedRows=1;rowLines=1;fontStyle=1;align=center;resizeLast=1;" parent="1" vertex="1">
          <mxGeometry x="72" y="460" width="120" height="69" as="geometry" />
        </mxCell>
        <mxCell id="jmmyd-2RqcsZahoPcaCm-2" style="shape=tableRow;horizontal=0;startSize=0;swimlaneHead=0;swimlaneBody=0;fillColor=none;collapsible=0;dropTarget=0;points=[[0,0.5],[1,0.5]];portConstraint=eastwest;top=0;left=0;right=0;bottom=0;" parent="jmmyd-2RqcsZahoPcaCm-1" vertex="1">
          <mxGeometry y="25" width="120" height="22" as="geometry" />
        </mxCell>
        <mxCell id="jmmyd-2RqcsZahoPcaCm-3" value="PK" style="shape=partialRectangle;connectable=0;fillColor=none;top=0;left=0;bottom=0;right=0;align=left;spacingLeft=2;overflow=hidden;fontSize=11;" parent="jmmyd-2RqcsZahoPcaCm-2" vertex="1">
          <mxGeometry width="36" height="22" as="geometry">
            <mxRectangle width="36" height="22" as="alternateBounds" />
          </mxGeometry>
        </mxCell>
        <mxCell id="jmmyd-2RqcsZahoPcaCm-4" value="SoortPartnerId" style="shape=partialRectangle;connectable=0;fillColor=none;top=0;left=0;bottom=0;right=0;align=left;spacingLeft=2;overflow=hidden;fontSize=11;" parent="jmmyd-2RqcsZahoPcaCm-2" vertex="1">
          <mxGeometry x="36" width="84" height="22" as="geometry">
            <mxRectangle width="84" height="22" as="alternateBounds" />
          </mxGeometry>
        </mxCell>
        <mxCell id="jmmyd-2RqcsZahoPcaCm-6" style="shape=tableRow;horizontal=0;startSize=0;swimlaneHead=0;swimlaneBody=0;fillColor=none;collapsible=0;dropTarget=0;points=[[0,0.5],[1,0.5]];portConstraint=eastwest;top=0;left=0;right=0;bottom=0;" parent="jmmyd-2RqcsZahoPcaCm-1" vertex="1">
          <mxGeometry y="47" width="120" height="22" as="geometry" />
        </mxCell>
        <mxCell id="jmmyd-2RqcsZahoPcaCm-7" value="" style="shape=partialRectangle;connectable=0;fillColor=none;top=0;left=0;bottom=0;right=0;align=left;spacingLeft=2;overflow=hidden;fontSize=11;" parent="jmmyd-2RqcsZahoPcaCm-6" vertex="1">
          <mxGeometry width="36" height="22" as="geometry">
            <mxRectangle width="36" height="22" as="alternateBounds" />
          </mxGeometry>
        </mxCell>
        <mxCell id="jmmyd-2RqcsZahoPcaCm-8" value="Omschrijving" style="shape=partialRectangle;connectable=0;fillColor=none;top=0;left=0;bottom=0;right=0;align=left;spacingLeft=2;overflow=hidden;fontSize=11;" parent="jmmyd-2RqcsZahoPcaCm-6" vertex="1">
          <mxGeometry x="36" width="84" height="22" as="geometry">
            <mxRectangle width="84" height="22" as="alternateBounds" />
          </mxGeometry>
        </mxCell>
        <mxCell id="jmmyd-2RqcsZahoPcaCm-10" value="Partner" style="shape=table;startSize=25;container=1;collapsible=0;childLayout=tableLayout;fixedRows=1;rowLines=1;fontStyle=1;align=center;resizeLast=1;" parent="1" vertex="1">
          <mxGeometry x="327.5" y="462" width="131.25" height="289" as="geometry" />
        </mxCell>
        <mxCell id="wI-5nJ8JduiSq8wfKIq_-53" style="shape=tableRow;horizontal=0;startSize=0;swimlaneHead=0;swimlaneBody=0;fillColor=none;collapsible=0;dropTarget=0;points=[[0,0.5],[1,0.5]];portConstraint=eastwest;top=0;left=0;right=0;bottom=0;" parent="jmmyd-2RqcsZahoPcaCm-10" vertex="1">
          <mxGeometry y="25" width="131.25" height="22" as="geometry" />
        </mxCell>
        <mxCell id="wI-5nJ8JduiSq8wfKIq_-54" value="PK" style="shape=partialRectangle;connectable=0;fillColor=none;top=0;left=0;bottom=0;right=0;align=left;spacingLeft=2;overflow=hidden;fontSize=11;" parent="wI-5nJ8JduiSq8wfKIq_-53" vertex="1">
          <mxGeometry width="36" height="22" as="geometry">
            <mxRectangle width="36" height="22" as="alternateBounds" />
          </mxGeometry>
        </mxCell>
        <mxCell id="wI-5nJ8JduiSq8wfKIq_-55" value="PartnerID" style="shape=partialRectangle;connectable=0;fillColor=none;top=0;left=0;bottom=0;right=0;align=left;spacingLeft=2;overflow=hidden;fontSize=11;" parent="wI-5nJ8JduiSq8wfKIq_-53" vertex="1">
          <mxGeometry x="36" width="95.25" height="22" as="geometry">
            <mxRectangle width="95.25" height="22" as="alternateBounds" />
          </mxGeometry>
        </mxCell>
        <mxCell id="wI-5nJ8JduiSq8wfKIq_-49" style="shape=tableRow;horizontal=0;startSize=0;swimlaneHead=0;swimlaneBody=0;fillColor=none;collapsible=0;dropTarget=0;points=[[0,0.5],[1,0.5]];portConstraint=eastwest;top=0;left=0;right=0;bottom=0;" parent="jmmyd-2RqcsZahoPcaCm-10" vertex="1">
          <mxGeometry y="47" width="131.25" height="22" as="geometry" />
        </mxCell>
        <mxCell id="wI-5nJ8JduiSq8wfKIq_-50" value="" style="shape=partialRectangle;connectable=0;fillColor=none;top=0;left=0;bottom=0;right=0;align=left;spacingLeft=2;overflow=hidden;fontSize=11;" parent="wI-5nJ8JduiSq8wfKIq_-49" vertex="1">
          <mxGeometry width="36" height="22" as="geometry">
            <mxRectangle width="36" height="22" as="alternateBounds" />
          </mxGeometry>
        </mxCell>
        <mxCell id="wI-5nJ8JduiSq8wfKIq_-51" value="SoortPartnerID" style="shape=partialRectangle;connectable=0;fillColor=none;top=0;left=0;bottom=0;right=0;align=left;spacingLeft=2;overflow=hidden;fontSize=11;" parent="wI-5nJ8JduiSq8wfKIq_-49" vertex="1">
          <mxGeometry x="36" width="95.25" height="22" as="geometry">
            <mxRectangle width="95.25" height="22" as="alternateBounds" />
          </mxGeometry>
        </mxCell>
        <mxCell id="wI-5nJ8JduiSq8wfKIq_-36" style="shape=tableRow;horizontal=0;startSize=0;swimlaneHead=0;swimlaneBody=0;fillColor=none;collapsible=0;dropTarget=0;points=[[0,0.5],[1,0.5]];portConstraint=eastwest;top=0;left=0;right=0;bottom=0;" parent="jmmyd-2RqcsZahoPcaCm-10" vertex="1">
          <mxGeometry y="69" width="131.25" height="22" as="geometry" />
        </mxCell>
        <mxCell id="wI-5nJ8JduiSq8wfKIq_-37" value="" style="shape=partialRectangle;connectable=0;fillColor=none;top=0;left=0;bottom=0;right=0;align=left;spacingLeft=2;overflow=hidden;fontSize=11;" parent="wI-5nJ8JduiSq8wfKIq_-36" vertex="1">
          <mxGeometry width="36" height="22" as="geometry">
            <mxRectangle width="36" height="22" as="alternateBounds" />
          </mxGeometry>
        </mxCell>
        <mxCell id="wI-5nJ8JduiSq8wfKIq_-38" value="PartnerContactID" style="shape=partialRectangle;connectable=0;fillColor=none;top=0;left=0;bottom=0;right=0;align=left;spacingLeft=2;overflow=hidden;fontSize=11;" parent="wI-5nJ8JduiSq8wfKIq_-36" vertex="1">
          <mxGeometry x="36" width="95.25" height="22" as="geometry">
            <mxRectangle width="95.25" height="22" as="alternateBounds" />
          </mxGeometry>
        </mxCell>
        <mxCell id="jmmyd-2RqcsZahoPcaCm-11" style="shape=tableRow;horizontal=0;startSize=0;swimlaneHead=0;swimlaneBody=0;fillColor=none;collapsible=0;dropTarget=0;points=[[0,0.5],[1,0.5]];portConstraint=eastwest;top=0;left=0;right=0;bottom=0;" parent="jmmyd-2RqcsZahoPcaCm-10" vertex="1">
          <mxGeometry y="91" width="131.25" height="22" as="geometry" />
        </mxCell>
        <mxCell id="jmmyd-2RqcsZahoPcaCm-12" value="" style="shape=partialRectangle;connectable=0;fillColor=none;top=0;left=0;bottom=0;right=0;align=left;spacingLeft=2;overflow=hidden;fontSize=11;" parent="jmmyd-2RqcsZahoPcaCm-11" vertex="1">
          <mxGeometry width="36" height="22" as="geometry">
            <mxRectangle width="36" height="22" as="alternateBounds" />
          </mxGeometry>
        </mxCell>
        <mxCell id="jmmyd-2RqcsZahoPcaCm-13" value="LeveringId" style="shape=partialRectangle;connectable=0;fillColor=none;top=0;left=0;bottom=0;right=0;align=left;spacingLeft=2;overflow=hidden;fontSize=11;" parent="jmmyd-2RqcsZahoPcaCm-11" vertex="1">
          <mxGeometry x="36" width="95.25" height="22" as="geometry">
            <mxRectangle width="95.25" height="22" as="alternateBounds" />
          </mxGeometry>
        </mxCell>
        <mxCell id="jmmyd-2RqcsZahoPcaCm-15" style="shape=tableRow;horizontal=0;startSize=0;swimlaneHead=0;swimlaneBody=0;fillColor=none;collapsible=0;dropTarget=0;points=[[0,0.5],[1,0.5]];portConstraint=eastwest;top=0;left=0;right=0;bottom=0;" parent="jmmyd-2RqcsZahoPcaCm-10" vertex="1">
          <mxGeometry y="113" width="131.25" height="22" as="geometry" />
        </mxCell>
        <mxCell id="jmmyd-2RqcsZahoPcaCm-16" value="" style="shape=partialRectangle;connectable=0;fillColor=none;top=0;left=0;bottom=0;right=0;align=left;spacingLeft=2;overflow=hidden;fontSize=11;" parent="jmmyd-2RqcsZahoPcaCm-15" vertex="1">
          <mxGeometry width="36" height="22" as="geometry">
            <mxRectangle width="36" height="22" as="alternateBounds" />
          </mxGeometry>
        </mxCell>
        <mxCell id="jmmyd-2RqcsZahoPcaCm-17" value="Bedrijfsnaam" style="shape=partialRectangle;connectable=0;fillColor=none;top=0;left=0;bottom=0;right=0;align=left;spacingLeft=2;overflow=hidden;fontSize=11;" parent="jmmyd-2RqcsZahoPcaCm-15" vertex="1">
          <mxGeometry x="36" width="95.25" height="22" as="geometry">
            <mxRectangle width="95.25" height="22" as="alternateBounds" />
          </mxGeometry>
        </mxCell>
        <mxCell id="jmmyd-2RqcsZahoPcaCm-19" style="shape=tableRow;horizontal=0;startSize=0;swimlaneHead=0;swimlaneBody=0;fillColor=none;collapsible=0;dropTarget=0;points=[[0,0.5],[1,0.5]];portConstraint=eastwest;top=0;left=0;right=0;bottom=0;" parent="jmmyd-2RqcsZahoPcaCm-10" vertex="1">
          <mxGeometry y="135" width="131.25" height="22" as="geometry" />
        </mxCell>
        <mxCell id="jmmyd-2RqcsZahoPcaCm-20" value="" style="shape=partialRectangle;connectable=0;fillColor=none;top=0;left=0;bottom=0;right=0;align=left;spacingLeft=2;overflow=hidden;fontSize=11;" parent="jmmyd-2RqcsZahoPcaCm-19" vertex="1">
          <mxGeometry width="36" height="22" as="geometry">
            <mxRectangle width="36" height="22" as="alternateBounds" />
          </mxGeometry>
        </mxCell>
        <mxCell id="jmmyd-2RqcsZahoPcaCm-21" value="straatnaam" style="shape=partialRectangle;connectable=0;fillColor=none;top=0;left=0;bottom=0;right=0;align=left;spacingLeft=2;overflow=hidden;fontSize=11;" parent="jmmyd-2RqcsZahoPcaCm-19" vertex="1">
          <mxGeometry x="36" width="95.25" height="22" as="geometry">
            <mxRectangle width="95.25" height="22" as="alternateBounds" />
          </mxGeometry>
        </mxCell>
        <mxCell id="jmmyd-2RqcsZahoPcaCm-23" style="shape=tableRow;horizontal=0;startSize=0;swimlaneHead=0;swimlaneBody=0;fillColor=none;collapsible=0;dropTarget=0;points=[[0,0.5],[1,0.5]];portConstraint=eastwest;top=0;left=0;right=0;bottom=0;" parent="jmmyd-2RqcsZahoPcaCm-10" vertex="1">
          <mxGeometry y="157" width="131.25" height="22" as="geometry" />
        </mxCell>
        <mxCell id="jmmyd-2RqcsZahoPcaCm-24" value="" style="shape=partialRectangle;connectable=0;fillColor=none;top=0;left=0;bottom=0;right=0;align=left;spacingLeft=2;overflow=hidden;fontSize=11;" parent="jmmyd-2RqcsZahoPcaCm-23" vertex="1">
          <mxGeometry width="36" height="22" as="geometry">
            <mxRectangle width="36" height="22" as="alternateBounds" />
          </mxGeometry>
        </mxCell>
        <mxCell id="jmmyd-2RqcsZahoPcaCm-25" value="huisnummer" style="shape=partialRectangle;connectable=0;fillColor=none;top=0;left=0;bottom=0;right=0;align=left;spacingLeft=2;overflow=hidden;fontSize=11;" parent="jmmyd-2RqcsZahoPcaCm-23" vertex="1">
          <mxGeometry x="36" width="95.25" height="22" as="geometry">
            <mxRectangle width="95.25" height="22" as="alternateBounds" />
          </mxGeometry>
        </mxCell>
        <mxCell id="jmmyd-2RqcsZahoPcaCm-27" style="shape=tableRow;horizontal=0;startSize=0;swimlaneHead=0;swimlaneBody=0;fillColor=none;collapsible=0;dropTarget=0;points=[[0,0.5],[1,0.5]];portConstraint=eastwest;top=0;left=0;right=0;bottom=0;" parent="jmmyd-2RqcsZahoPcaCm-10" vertex="1">
          <mxGeometry y="179" width="131.25" height="22" as="geometry" />
        </mxCell>
        <mxCell id="jmmyd-2RqcsZahoPcaCm-28" value="" style="shape=partialRectangle;connectable=0;fillColor=none;top=0;left=0;bottom=0;right=0;align=left;spacingLeft=2;overflow=hidden;fontSize=11;" parent="jmmyd-2RqcsZahoPcaCm-27" vertex="1">
          <mxGeometry width="36" height="22" as="geometry">
            <mxRectangle width="36" height="22" as="alternateBounds" />
          </mxGeometry>
        </mxCell>
        <mxCell id="jmmyd-2RqcsZahoPcaCm-29" value="postcode" style="shape=partialRectangle;connectable=0;fillColor=none;top=0;left=0;bottom=0;right=0;align=left;spacingLeft=2;overflow=hidden;fontSize=11;" parent="jmmyd-2RqcsZahoPcaCm-27" vertex="1">
          <mxGeometry x="36" width="95.25" height="22" as="geometry">
            <mxRectangle width="95.25" height="22" as="alternateBounds" />
          </mxGeometry>
        </mxCell>
        <mxCell id="jmmyd-2RqcsZahoPcaCm-31" style="shape=tableRow;horizontal=0;startSize=0;swimlaneHead=0;swimlaneBody=0;fillColor=none;collapsible=0;dropTarget=0;points=[[0,0.5],[1,0.5]];portConstraint=eastwest;top=0;left=0;right=0;bottom=0;" parent="jmmyd-2RqcsZahoPcaCm-10" vertex="1">
          <mxGeometry y="201" width="131.25" height="22" as="geometry" />
        </mxCell>
        <mxCell id="jmmyd-2RqcsZahoPcaCm-32" value="" style="shape=partialRectangle;connectable=0;fillColor=none;top=0;left=0;bottom=0;right=0;align=left;spacingLeft=2;overflow=hidden;fontSize=11;" parent="jmmyd-2RqcsZahoPcaCm-31" vertex="1">
          <mxGeometry width="36" height="22" as="geometry">
            <mxRectangle width="36" height="22" as="alternateBounds" />
          </mxGeometry>
        </mxCell>
        <mxCell id="jmmyd-2RqcsZahoPcaCm-33" value="plaats" style="shape=partialRectangle;connectable=0;fillColor=none;top=0;left=0;bottom=0;right=0;align=left;spacingLeft=2;overflow=hidden;fontSize=11;" parent="jmmyd-2RqcsZahoPcaCm-31" vertex="1">
          <mxGeometry x="36" width="95.25" height="22" as="geometry">
            <mxRectangle width="95.25" height="22" as="alternateBounds" />
          </mxGeometry>
        </mxCell>
        <mxCell id="jmmyd-2RqcsZahoPcaCm-35" style="shape=tableRow;horizontal=0;startSize=0;swimlaneHead=0;swimlaneBody=0;fillColor=none;collapsible=0;dropTarget=0;points=[[0,0.5],[1,0.5]];portConstraint=eastwest;top=0;left=0;right=0;bottom=0;" parent="jmmyd-2RqcsZahoPcaCm-10" vertex="1">
          <mxGeometry y="223" width="131.25" height="22" as="geometry" />
        </mxCell>
        <mxCell id="jmmyd-2RqcsZahoPcaCm-36" value="" style="shape=partialRectangle;connectable=0;fillColor=none;top=0;left=0;bottom=0;right=0;align=left;spacingLeft=2;overflow=hidden;fontSize=11;" parent="jmmyd-2RqcsZahoPcaCm-35" vertex="1">
          <mxGeometry width="36" height="22" as="geometry">
            <mxRectangle width="36" height="22" as="alternateBounds" />
          </mxGeometry>
        </mxCell>
        <mxCell id="jmmyd-2RqcsZahoPcaCm-37" value="land" style="shape=partialRectangle;connectable=0;fillColor=none;top=0;left=0;bottom=0;right=0;align=left;spacingLeft=2;overflow=hidden;fontSize=11;" parent="jmmyd-2RqcsZahoPcaCm-35" vertex="1">
          <mxGeometry x="36" width="95.25" height="22" as="geometry">
            <mxRectangle width="95.25" height="22" as="alternateBounds" />
          </mxGeometry>
        </mxCell>
        <mxCell id="jmmyd-2RqcsZahoPcaCm-39" style="shape=tableRow;horizontal=0;startSize=0;swimlaneHead=0;swimlaneBody=0;fillColor=none;collapsible=0;dropTarget=0;points=[[0,0.5],[1,0.5]];portConstraint=eastwest;top=0;left=0;right=0;bottom=0;" parent="jmmyd-2RqcsZahoPcaCm-10" vertex="1">
          <mxGeometry y="245" width="131.25" height="22" as="geometry" />
        </mxCell>
        <mxCell id="jmmyd-2RqcsZahoPcaCm-40" value="" style="shape=partialRectangle;connectable=0;fillColor=none;top=0;left=0;bottom=0;right=0;align=left;spacingLeft=2;overflow=hidden;fontSize=11;" parent="jmmyd-2RqcsZahoPcaCm-39" vertex="1">
          <mxGeometry width="36" height="22" as="geometry">
            <mxRectangle width="36" height="22" as="alternateBounds" />
          </mxGeometry>
        </mxCell>
        <mxCell id="jmmyd-2RqcsZahoPcaCm-41" value="E-mail" style="shape=partialRectangle;connectable=0;fillColor=none;top=0;left=0;bottom=0;right=0;align=left;spacingLeft=2;overflow=hidden;fontSize=11;" parent="jmmyd-2RqcsZahoPcaCm-39" vertex="1">
          <mxGeometry x="36" width="95.25" height="22" as="geometry">
            <mxRectangle width="95.25" height="22" as="alternateBounds" />
          </mxGeometry>
        </mxCell>
        <mxCell id="jmmyd-2RqcsZahoPcaCm-43" style="shape=tableRow;horizontal=0;startSize=0;swimlaneHead=0;swimlaneBody=0;fillColor=none;collapsible=0;dropTarget=0;points=[[0,0.5],[1,0.5]];portConstraint=eastwest;top=0;left=0;right=0;bottom=0;" parent="jmmyd-2RqcsZahoPcaCm-10" vertex="1">
          <mxGeometry y="267" width="131.25" height="22" as="geometry" />
        </mxCell>
        <mxCell id="jmmyd-2RqcsZahoPcaCm-44" value="" style="shape=partialRectangle;connectable=0;fillColor=none;top=0;left=0;bottom=0;right=0;align=left;spacingLeft=2;overflow=hidden;fontSize=11;" parent="jmmyd-2RqcsZahoPcaCm-43" vertex="1">
          <mxGeometry width="36" height="22" as="geometry">
            <mxRectangle width="36" height="22" as="alternateBounds" />
          </mxGeometry>
        </mxCell>
        <mxCell id="jmmyd-2RqcsZahoPcaCm-45" value="telnr" style="shape=partialRectangle;connectable=0;fillColor=none;top=0;left=0;bottom=0;right=0;align=left;spacingLeft=2;overflow=hidden;fontSize=11;" parent="jmmyd-2RqcsZahoPcaCm-43" vertex="1">
          <mxGeometry x="36" width="95.25" height="22" as="geometry">
            <mxRectangle width="95.25" height="22" as="alternateBounds" />
          </mxGeometry>
        </mxCell>
        <mxCell id="jmmyd-2RqcsZahoPcaCm-47" value="PartnerContact" style="shape=table;startSize=25;container=1;collapsible=0;childLayout=tableLayout;fixedRows=1;rowLines=1;fontStyle=1;align=center;resizeLast=1;" parent="1" vertex="1">
          <mxGeometry x="48" y="563" width="132" height="157" as="geometry" />
        </mxCell>
        <mxCell id="jmmyd-2RqcsZahoPcaCm-48" style="shape=tableRow;horizontal=0;startSize=0;swimlaneHead=0;swimlaneBody=0;fillColor=none;collapsible=0;dropTarget=0;points=[[0,0.5],[1,0.5]];portConstraint=eastwest;top=0;left=0;right=0;bottom=0;" parent="jmmyd-2RqcsZahoPcaCm-47" vertex="1">
          <mxGeometry y="25" width="132" height="22" as="geometry" />
        </mxCell>
        <mxCell id="jmmyd-2RqcsZahoPcaCm-49" value="PK" style="shape=partialRectangle;connectable=0;fillColor=none;top=0;left=0;bottom=0;right=0;align=left;spacingLeft=2;overflow=hidden;fontSize=11;" parent="jmmyd-2RqcsZahoPcaCm-48" vertex="1">
          <mxGeometry width="36" height="22" as="geometry">
            <mxRectangle width="36" height="22" as="alternateBounds" />
          </mxGeometry>
        </mxCell>
        <mxCell id="jmmyd-2RqcsZahoPcaCm-50" value="PartnerContactID" style="shape=partialRectangle;connectable=0;fillColor=none;top=0;left=0;bottom=0;right=0;align=left;spacingLeft=2;overflow=hidden;fontSize=11;" parent="jmmyd-2RqcsZahoPcaCm-48" vertex="1">
          <mxGeometry x="36" width="96" height="22" as="geometry">
            <mxRectangle width="96" height="22" as="alternateBounds" />
          </mxGeometry>
        </mxCell>
        <mxCell id="jmmyd-2RqcsZahoPcaCm-52" style="shape=tableRow;horizontal=0;startSize=0;swimlaneHead=0;swimlaneBody=0;fillColor=none;collapsible=0;dropTarget=0;points=[[0,0.5],[1,0.5]];portConstraint=eastwest;top=0;left=0;right=0;bottom=0;" parent="jmmyd-2RqcsZahoPcaCm-47" vertex="1">
          <mxGeometry y="47" width="132" height="22" as="geometry" />
        </mxCell>
        <mxCell id="jmmyd-2RqcsZahoPcaCm-53" value="" style="shape=partialRectangle;connectable=0;fillColor=none;top=0;left=0;bottom=0;right=0;align=left;spacingLeft=2;overflow=hidden;fontSize=11;" parent="jmmyd-2RqcsZahoPcaCm-52" vertex="1">
          <mxGeometry width="36" height="22" as="geometry">
            <mxRectangle width="36" height="22" as="alternateBounds" />
          </mxGeometry>
        </mxCell>
        <mxCell id="jmmyd-2RqcsZahoPcaCm-54" value="Voornaam" style="shape=partialRectangle;connectable=0;fillColor=none;top=0;left=0;bottom=0;right=0;align=left;spacingLeft=2;overflow=hidden;fontSize=11;" parent="jmmyd-2RqcsZahoPcaCm-52" vertex="1">
          <mxGeometry x="36" width="96" height="22" as="geometry">
            <mxRectangle width="96" height="22" as="alternateBounds" />
          </mxGeometry>
        </mxCell>
        <mxCell id="jmmyd-2RqcsZahoPcaCm-56" style="shape=tableRow;horizontal=0;startSize=0;swimlaneHead=0;swimlaneBody=0;fillColor=none;collapsible=0;dropTarget=0;points=[[0,0.5],[1,0.5]];portConstraint=eastwest;top=0;left=0;right=0;bottom=0;" parent="jmmyd-2RqcsZahoPcaCm-47" vertex="1">
          <mxGeometry y="69" width="132" height="22" as="geometry" />
        </mxCell>
        <mxCell id="jmmyd-2RqcsZahoPcaCm-57" value="" style="shape=partialRectangle;connectable=0;fillColor=none;top=0;left=0;bottom=0;right=0;align=left;spacingLeft=2;overflow=hidden;fontSize=11;" parent="jmmyd-2RqcsZahoPcaCm-56" vertex="1">
          <mxGeometry width="36" height="22" as="geometry">
            <mxRectangle width="36" height="22" as="alternateBounds" />
          </mxGeometry>
        </mxCell>
        <mxCell id="jmmyd-2RqcsZahoPcaCm-58" value="Achternaam" style="shape=partialRectangle;connectable=0;fillColor=none;top=0;left=0;bottom=0;right=0;align=left;spacingLeft=2;overflow=hidden;fontSize=11;" parent="jmmyd-2RqcsZahoPcaCm-56" vertex="1">
          <mxGeometry x="36" width="96" height="22" as="geometry">
            <mxRectangle width="96" height="22" as="alternateBounds" />
          </mxGeometry>
        </mxCell>
        <mxCell id="jmmyd-2RqcsZahoPcaCm-60" style="shape=tableRow;horizontal=0;startSize=0;swimlaneHead=0;swimlaneBody=0;fillColor=none;collapsible=0;dropTarget=0;points=[[0,0.5],[1,0.5]];portConstraint=eastwest;top=0;left=0;right=0;bottom=0;" parent="jmmyd-2RqcsZahoPcaCm-47" vertex="1">
          <mxGeometry y="91" width="132" height="22" as="geometry" />
        </mxCell>
        <mxCell id="jmmyd-2RqcsZahoPcaCm-61" value="" style="shape=partialRectangle;connectable=0;fillColor=none;top=0;left=0;bottom=0;right=0;align=left;spacingLeft=2;overflow=hidden;fontSize=11;" parent="jmmyd-2RqcsZahoPcaCm-60" vertex="1">
          <mxGeometry width="36" height="22" as="geometry">
            <mxRectangle width="36" height="22" as="alternateBounds" />
          </mxGeometry>
        </mxCell>
        <mxCell id="jmmyd-2RqcsZahoPcaCm-62" value="Functie" style="shape=partialRectangle;connectable=0;fillColor=none;top=0;left=0;bottom=0;right=0;align=left;spacingLeft=2;overflow=hidden;fontSize=11;" parent="jmmyd-2RqcsZahoPcaCm-60" vertex="1">
          <mxGeometry x="36" width="96" height="22" as="geometry">
            <mxRectangle width="96" height="22" as="alternateBounds" />
          </mxGeometry>
        </mxCell>
        <mxCell id="jmmyd-2RqcsZahoPcaCm-64" style="shape=tableRow;horizontal=0;startSize=0;swimlaneHead=0;swimlaneBody=0;fillColor=none;collapsible=0;dropTarget=0;points=[[0,0.5],[1,0.5]];portConstraint=eastwest;top=0;left=0;right=0;bottom=0;" parent="jmmyd-2RqcsZahoPcaCm-47" vertex="1">
          <mxGeometry y="113" width="132" height="22" as="geometry" />
        </mxCell>
        <mxCell id="jmmyd-2RqcsZahoPcaCm-65" value="" style="shape=partialRectangle;connectable=0;fillColor=none;top=0;left=0;bottom=0;right=0;align=left;spacingLeft=2;overflow=hidden;fontSize=11;" parent="jmmyd-2RqcsZahoPcaCm-64" vertex="1">
          <mxGeometry width="36" height="22" as="geometry">
            <mxRectangle width="36" height="22" as="alternateBounds" />
          </mxGeometry>
        </mxCell>
        <mxCell id="jmmyd-2RqcsZahoPcaCm-66" value="email" style="shape=partialRectangle;connectable=0;fillColor=none;top=0;left=0;bottom=0;right=0;align=left;spacingLeft=2;overflow=hidden;fontSize=11;" parent="jmmyd-2RqcsZahoPcaCm-64" vertex="1">
          <mxGeometry x="36" width="96" height="22" as="geometry">
            <mxRectangle width="96" height="22" as="alternateBounds" />
          </mxGeometry>
        </mxCell>
        <mxCell id="jmmyd-2RqcsZahoPcaCm-68" style="shape=tableRow;horizontal=0;startSize=0;swimlaneHead=0;swimlaneBody=0;fillColor=none;collapsible=0;dropTarget=0;points=[[0,0.5],[1,0.5]];portConstraint=eastwest;top=0;left=0;right=0;bottom=0;" parent="jmmyd-2RqcsZahoPcaCm-47" vertex="1">
          <mxGeometry y="135" width="132" height="22" as="geometry" />
        </mxCell>
        <mxCell id="jmmyd-2RqcsZahoPcaCm-69" value="" style="shape=partialRectangle;connectable=0;fillColor=none;top=0;left=0;bottom=0;right=0;align=left;spacingLeft=2;overflow=hidden;fontSize=11;" parent="jmmyd-2RqcsZahoPcaCm-68" vertex="1">
          <mxGeometry width="36" height="22" as="geometry">
            <mxRectangle width="36" height="22" as="alternateBounds" />
          </mxGeometry>
        </mxCell>
        <mxCell id="jmmyd-2RqcsZahoPcaCm-70" value="telnr" style="shape=partialRectangle;connectable=0;fillColor=none;top=0;left=0;bottom=0;right=0;align=left;spacingLeft=2;overflow=hidden;fontSize=11;" parent="jmmyd-2RqcsZahoPcaCm-68" vertex="1">
          <mxGeometry x="36" width="96" height="22" as="geometry">
            <mxRectangle width="96" height="22" as="alternateBounds" />
          </mxGeometry>
        </mxCell>
        <mxCell id="jmmyd-2RqcsZahoPcaCm-72" value="Levering" style="shape=table;startSize=25;container=1;collapsible=0;childLayout=tableLayout;fixedRows=1;rowLines=1;fontStyle=1;align=center;resizeLast=1;" parent="1" vertex="1">
          <mxGeometry x="600" y="523" width="151" height="91" as="geometry" />
        </mxCell>
        <mxCell id="jmmyd-2RqcsZahoPcaCm-73" style="shape=tableRow;horizontal=0;startSize=0;swimlaneHead=0;swimlaneBody=0;fillColor=none;collapsible=0;dropTarget=0;points=[[0,0.5],[1,0.5]];portConstraint=eastwest;top=0;left=0;right=0;bottom=0;" parent="jmmyd-2RqcsZahoPcaCm-72" vertex="1">
          <mxGeometry y="25" width="151" height="22" as="geometry" />
        </mxCell>
        <mxCell id="jmmyd-2RqcsZahoPcaCm-74" value="PK" style="shape=partialRectangle;connectable=0;fillColor=none;top=0;left=0;bottom=0;right=0;align=left;spacingLeft=2;overflow=hidden;fontSize=11;" parent="jmmyd-2RqcsZahoPcaCm-73" vertex="1">
          <mxGeometry width="36" height="22" as="geometry">
            <mxRectangle width="36" height="22" as="alternateBounds" />
          </mxGeometry>
        </mxCell>
        <mxCell id="jmmyd-2RqcsZahoPcaCm-75" value="LeveringId" style="shape=partialRectangle;connectable=0;fillColor=none;top=0;left=0;bottom=0;right=0;align=left;spacingLeft=2;overflow=hidden;fontSize=11;" parent="jmmyd-2RqcsZahoPcaCm-73" vertex="1">
          <mxGeometry x="36" width="115" height="22" as="geometry">
            <mxRectangle width="115" height="22" as="alternateBounds" />
          </mxGeometry>
        </mxCell>
        <mxCell id="jmmyd-2RqcsZahoPcaCm-77" style="shape=tableRow;horizontal=0;startSize=0;swimlaneHead=0;swimlaneBody=0;fillColor=none;collapsible=0;dropTarget=0;points=[[0,0.5],[1,0.5]];portConstraint=eastwest;top=0;left=0;right=0;bottom=0;" parent="jmmyd-2RqcsZahoPcaCm-72" vertex="1">
          <mxGeometry y="47" width="151" height="22" as="geometry" />
        </mxCell>
        <mxCell id="jmmyd-2RqcsZahoPcaCm-78" value="" style="shape=partialRectangle;connectable=0;fillColor=none;top=0;left=0;bottom=0;right=0;align=left;spacingLeft=2;overflow=hidden;fontSize=11;" parent="jmmyd-2RqcsZahoPcaCm-77" vertex="1">
          <mxGeometry width="36" height="22" as="geometry">
            <mxRectangle width="36" height="22" as="alternateBounds" />
          </mxGeometry>
        </mxCell>
        <mxCell id="jmmyd-2RqcsZahoPcaCm-79" value="LeveringDatum" style="shape=partialRectangle;connectable=0;fillColor=none;top=0;left=0;bottom=0;right=0;align=left;spacingLeft=2;overflow=hidden;fontSize=11;" parent="jmmyd-2RqcsZahoPcaCm-77" vertex="1">
          <mxGeometry x="36" width="115" height="22" as="geometry">
            <mxRectangle width="115" height="22" as="alternateBounds" />
          </mxGeometry>
        </mxCell>
        <mxCell id="jmmyd-2RqcsZahoPcaCm-81" style="shape=tableRow;horizontal=0;startSize=0;swimlaneHead=0;swimlaneBody=0;fillColor=none;collapsible=0;dropTarget=0;points=[[0,0.5],[1,0.5]];portConstraint=eastwest;top=0;left=0;right=0;bottom=0;" parent="jmmyd-2RqcsZahoPcaCm-72" vertex="1">
          <mxGeometry y="69" width="151" height="22" as="geometry" />
        </mxCell>
        <mxCell id="jmmyd-2RqcsZahoPcaCm-82" value="" style="shape=partialRectangle;connectable=0;fillColor=none;top=0;left=0;bottom=0;right=0;align=left;spacingLeft=2;overflow=hidden;fontSize=11;" parent="jmmyd-2RqcsZahoPcaCm-81" vertex="1">
          <mxGeometry width="36" height="22" as="geometry">
            <mxRectangle width="36" height="22" as="alternateBounds" />
          </mxGeometry>
        </mxCell>
        <mxCell id="jmmyd-2RqcsZahoPcaCm-83" value="VerwachteLeverdatum" style="shape=partialRectangle;connectable=0;fillColor=none;top=0;left=0;bottom=0;right=0;align=left;spacingLeft=2;overflow=hidden;fontSize=11;" parent="jmmyd-2RqcsZahoPcaCm-81" vertex="1">
          <mxGeometry x="36" width="115" height="22" as="geometry">
            <mxRectangle width="115" height="22" as="alternateBounds" />
          </mxGeometry>
        </mxCell>
        <mxCell id="jmmyd-2RqcsZahoPcaCm-85" value="LeveringRegel" style="shape=table;startSize=25;container=1;collapsible=0;childLayout=tableLayout;fixedRows=1;rowLines=1;fontStyle=1;align=center;resizeLast=1;" parent="1" vertex="1">
          <mxGeometry x="509" y="766" width="126.75" height="88" as="geometry" />
        </mxCell>
        <mxCell id="wI-5nJ8JduiSq8wfKIq_-101" style="shape=tableRow;horizontal=0;startSize=0;swimlaneHead=0;swimlaneBody=0;fillColor=none;collapsible=0;dropTarget=0;points=[[0,0.5],[1,0.5]];portConstraint=eastwest;top=0;left=0;right=0;bottom=0;" parent="jmmyd-2RqcsZahoPcaCm-85" vertex="1">
          <mxGeometry y="25" width="126.75" height="21" as="geometry" />
        </mxCell>
        <mxCell id="wI-5nJ8JduiSq8wfKIq_-102" value="PK" style="shape=partialRectangle;connectable=0;fillColor=none;top=0;left=0;bottom=0;right=0;align=left;spacingLeft=2;overflow=hidden;fontSize=11;" parent="wI-5nJ8JduiSq8wfKIq_-101" vertex="1">
          <mxGeometry width="45.75" height="21" as="geometry">
            <mxRectangle width="45.75" height="21" as="alternateBounds" />
          </mxGeometry>
        </mxCell>
        <mxCell id="wI-5nJ8JduiSq8wfKIq_-103" value="LeveringID" style="shape=partialRectangle;connectable=0;fillColor=none;top=0;left=0;bottom=0;right=0;align=left;spacingLeft=2;overflow=hidden;fontSize=11;" parent="wI-5nJ8JduiSq8wfKIq_-101" vertex="1">
          <mxGeometry x="45.75" width="81" height="21" as="geometry">
            <mxRectangle width="81" height="21" as="alternateBounds" />
          </mxGeometry>
        </mxCell>
        <mxCell id="wI-5nJ8JduiSq8wfKIq_-98" style="shape=tableRow;horizontal=0;startSize=0;swimlaneHead=0;swimlaneBody=0;fillColor=none;collapsible=0;dropTarget=0;points=[[0,0.5],[1,0.5]];portConstraint=eastwest;top=0;left=0;right=0;bottom=0;" parent="jmmyd-2RqcsZahoPcaCm-85" vertex="1">
          <mxGeometry y="46" width="126.75" height="21" as="geometry" />
        </mxCell>
        <mxCell id="wI-5nJ8JduiSq8wfKIq_-99" value="" style="shape=partialRectangle;connectable=0;fillColor=none;top=0;left=0;bottom=0;right=0;align=left;spacingLeft=2;overflow=hidden;fontSize=11;" parent="wI-5nJ8JduiSq8wfKIq_-98" vertex="1">
          <mxGeometry width="45.75" height="21" as="geometry">
            <mxRectangle width="45.75" height="21" as="alternateBounds" />
          </mxGeometry>
        </mxCell>
        <mxCell id="wI-5nJ8JduiSq8wfKIq_-100" value="ProductID" style="shape=partialRectangle;connectable=0;fillColor=none;top=0;left=0;bottom=0;right=0;align=left;spacingLeft=2;overflow=hidden;fontSize=11;" parent="wI-5nJ8JduiSq8wfKIq_-98" vertex="1">
          <mxGeometry x="45.75" width="81" height="21" as="geometry">
            <mxRectangle width="81" height="21" as="alternateBounds" />
          </mxGeometry>
        </mxCell>
        <mxCell id="jmmyd-2RqcsZahoPcaCm-86" style="shape=tableRow;horizontal=0;startSize=0;swimlaneHead=0;swimlaneBody=0;fillColor=none;collapsible=0;dropTarget=0;points=[[0,0.5],[1,0.5]];portConstraint=eastwest;top=0;left=0;right=0;bottom=0;" parent="jmmyd-2RqcsZahoPcaCm-85" vertex="1">
          <mxGeometry y="67" width="126.75" height="21" as="geometry" />
        </mxCell>
        <mxCell id="jmmyd-2RqcsZahoPcaCm-87" value="" style="shape=partialRectangle;connectable=0;fillColor=none;top=0;left=0;bottom=0;right=0;align=left;spacingLeft=2;overflow=hidden;fontSize=11;" parent="jmmyd-2RqcsZahoPcaCm-86" vertex="1">
          <mxGeometry width="45.75" height="21" as="geometry">
            <mxRectangle width="45.75" height="21" as="alternateBounds" />
          </mxGeometry>
        </mxCell>
        <mxCell id="jmmyd-2RqcsZahoPcaCm-88" value="Aantal" style="shape=partialRectangle;connectable=0;fillColor=none;top=0;left=0;bottom=0;right=0;align=left;spacingLeft=2;overflow=hidden;fontSize=11;" parent="jmmyd-2RqcsZahoPcaCm-86" vertex="1">
          <mxGeometry x="45.75" width="81" height="21" as="geometry">
            <mxRectangle width="81" height="21" as="alternateBounds" />
          </mxGeometry>
        </mxCell>
        <mxCell id="jmmyd-2RqcsZahoPcaCm-89" value="SoortProduct" style="shape=table;startSize=25;container=1;collapsible=0;childLayout=tableLayout;fixedRows=1;rowLines=1;fontStyle=1;align=center;resizeLast=1;" parent="1" vertex="1">
          <mxGeometry x="48" y="766" width="120" height="135" as="geometry" />
        </mxCell>
        <mxCell id="jmmyd-2RqcsZahoPcaCm-90" style="shape=tableRow;horizontal=0;startSize=0;swimlaneHead=0;swimlaneBody=0;fillColor=none;collapsible=0;dropTarget=0;points=[[0,0.5],[1,0.5]];portConstraint=eastwest;top=0;left=0;right=0;bottom=0;" parent="jmmyd-2RqcsZahoPcaCm-89" vertex="1">
          <mxGeometry y="25" width="120" height="22" as="geometry" />
        </mxCell>
        <mxCell id="jmmyd-2RqcsZahoPcaCm-91" value="PK" style="shape=partialRectangle;connectable=0;fillColor=none;top=0;left=0;bottom=0;right=0;align=left;spacingLeft=2;overflow=hidden;fontSize=11;" parent="jmmyd-2RqcsZahoPcaCm-90" vertex="1">
          <mxGeometry width="36" height="22" as="geometry">
            <mxRectangle width="36" height="22" as="alternateBounds" />
          </mxGeometry>
        </mxCell>
        <mxCell id="jmmyd-2RqcsZahoPcaCm-92" value="SoortProductID" style="shape=partialRectangle;connectable=0;fillColor=none;top=0;left=0;bottom=0;right=0;align=left;spacingLeft=2;overflow=hidden;fontSize=11;" parent="jmmyd-2RqcsZahoPcaCm-90" vertex="1">
          <mxGeometry x="36" width="84" height="22" as="geometry">
            <mxRectangle width="84" height="22" as="alternateBounds" />
          </mxGeometry>
        </mxCell>
        <mxCell id="jmmyd-2RqcsZahoPcaCm-94" style="shape=tableRow;horizontal=0;startSize=0;swimlaneHead=0;swimlaneBody=0;fillColor=none;collapsible=0;dropTarget=0;points=[[0,0.5],[1,0.5]];portConstraint=eastwest;top=0;left=0;right=0;bottom=0;" parent="jmmyd-2RqcsZahoPcaCm-89" vertex="1">
          <mxGeometry y="47" width="120" height="22" as="geometry" />
        </mxCell>
        <mxCell id="jmmyd-2RqcsZahoPcaCm-95" value="" style="shape=partialRectangle;connectable=0;fillColor=none;top=0;left=0;bottom=0;right=0;align=left;spacingLeft=2;overflow=hidden;fontSize=11;" parent="jmmyd-2RqcsZahoPcaCm-94" vertex="1">
          <mxGeometry width="36" height="22" as="geometry">
            <mxRectangle width="36" height="22" as="alternateBounds" />
          </mxGeometry>
        </mxCell>
        <mxCell id="jmmyd-2RqcsZahoPcaCm-96" value="Omschrijving" style="shape=partialRectangle;connectable=0;fillColor=none;top=0;left=0;bottom=0;right=0;align=left;spacingLeft=2;overflow=hidden;fontSize=11;" parent="jmmyd-2RqcsZahoPcaCm-94" vertex="1">
          <mxGeometry x="36" width="84" height="22" as="geometry">
            <mxRectangle width="84" height="22" as="alternateBounds" />
          </mxGeometry>
        </mxCell>
        <mxCell id="jmmyd-2RqcsZahoPcaCm-98" style="shape=tableRow;horizontal=0;startSize=0;swimlaneHead=0;swimlaneBody=0;fillColor=none;collapsible=0;dropTarget=0;points=[[0,0.5],[1,0.5]];portConstraint=eastwest;top=0;left=0;right=0;bottom=0;" parent="jmmyd-2RqcsZahoPcaCm-89" vertex="1">
          <mxGeometry y="69" width="120" height="22" as="geometry" />
        </mxCell>
        <mxCell id="jmmyd-2RqcsZahoPcaCm-99" value="" style="shape=partialRectangle;connectable=0;fillColor=none;top=0;left=0;bottom=0;right=0;align=left;spacingLeft=2;overflow=hidden;fontSize=11;" parent="jmmyd-2RqcsZahoPcaCm-98" vertex="1">
          <mxGeometry width="36" height="22" as="geometry">
            <mxRectangle width="36" height="22" as="alternateBounds" />
          </mxGeometry>
        </mxCell>
        <mxCell id="jmmyd-2RqcsZahoPcaCm-100" value="Gewicht" style="shape=partialRectangle;connectable=0;fillColor=none;top=0;left=0;bottom=0;right=0;align=left;spacingLeft=2;overflow=hidden;fontSize=11;" parent="jmmyd-2RqcsZahoPcaCm-98" vertex="1">
          <mxGeometry x="36" width="84" height="22" as="geometry">
            <mxRectangle width="84" height="22" as="alternateBounds" />
          </mxGeometry>
        </mxCell>
        <mxCell id="jmmyd-2RqcsZahoPcaCm-102" style="shape=tableRow;horizontal=0;startSize=0;swimlaneHead=0;swimlaneBody=0;fillColor=none;collapsible=0;dropTarget=0;points=[[0,0.5],[1,0.5]];portConstraint=eastwest;top=0;left=0;right=0;bottom=0;" parent="jmmyd-2RqcsZahoPcaCm-89" vertex="1">
          <mxGeometry y="91" width="120" height="22" as="geometry" />
        </mxCell>
        <mxCell id="jmmyd-2RqcsZahoPcaCm-103" value="" style="shape=partialRectangle;connectable=0;fillColor=none;top=0;left=0;bottom=0;right=0;align=left;spacingLeft=2;overflow=hidden;fontSize=11;" parent="jmmyd-2RqcsZahoPcaCm-102" vertex="1">
          <mxGeometry width="36" height="22" as="geometry">
            <mxRectangle width="36" height="22" as="alternateBounds" />
          </mxGeometry>
        </mxCell>
        <mxCell id="jmmyd-2RqcsZahoPcaCm-104" value="Afmeting" style="shape=partialRectangle;connectable=0;fillColor=none;top=0;left=0;bottom=0;right=0;align=left;spacingLeft=2;overflow=hidden;fontSize=11;" parent="jmmyd-2RqcsZahoPcaCm-102" vertex="1">
          <mxGeometry x="36" width="84" height="22" as="geometry">
            <mxRectangle width="84" height="22" as="alternateBounds" />
          </mxGeometry>
        </mxCell>
        <mxCell id="jmmyd-2RqcsZahoPcaCm-106" style="shape=tableRow;horizontal=0;startSize=0;swimlaneHead=0;swimlaneBody=0;fillColor=none;collapsible=0;dropTarget=0;points=[[0,0.5],[1,0.5]];portConstraint=eastwest;top=0;left=0;right=0;bottom=0;" parent="jmmyd-2RqcsZahoPcaCm-89" vertex="1">
          <mxGeometry y="113" width="120" height="22" as="geometry" />
        </mxCell>
        <mxCell id="jmmyd-2RqcsZahoPcaCm-107" value="" style="shape=partialRectangle;connectable=0;fillColor=none;top=0;left=0;bottom=0;right=0;align=left;spacingLeft=2;overflow=hidden;fontSize=11;" parent="jmmyd-2RqcsZahoPcaCm-106" vertex="1">
          <mxGeometry width="36" height="22" as="geometry">
            <mxRectangle width="36" height="22" as="alternateBounds" />
          </mxGeometry>
        </mxCell>
        <mxCell id="jmmyd-2RqcsZahoPcaCm-108" value="Materiaal" style="shape=partialRectangle;connectable=0;fillColor=none;top=0;left=0;bottom=0;right=0;align=left;spacingLeft=2;overflow=hidden;fontSize=11;" parent="jmmyd-2RqcsZahoPcaCm-106" vertex="1">
          <mxGeometry x="36" width="84" height="22" as="geometry">
            <mxRectangle width="84" height="22" as="alternateBounds" />
          </mxGeometry>
        </mxCell>
        <mxCell id="jmmyd-2RqcsZahoPcaCm-110" value="Product" style="shape=table;startSize=24;container=1;collapsible=0;childLayout=tableLayout;fixedRows=1;rowLines=1;fontStyle=1;align=center;resizeLast=1;" parent="1" vertex="1">
          <mxGeometry x="288" y="968" width="131" height="201" as="geometry" />
        </mxCell>
        <mxCell id="wI-5nJ8JduiSq8wfKIq_-231" style="shape=tableRow;horizontal=0;startSize=0;swimlaneHead=0;swimlaneBody=0;fillColor=none;collapsible=0;dropTarget=0;points=[[0,0.5],[1,0.5]];portConstraint=eastwest;top=0;left=0;right=0;bottom=0;" parent="jmmyd-2RqcsZahoPcaCm-110" vertex="1">
          <mxGeometry y="24" width="131" height="22" as="geometry" />
        </mxCell>
        <mxCell id="wI-5nJ8JduiSq8wfKIq_-232" value="PK" style="shape=partialRectangle;connectable=0;fillColor=none;top=0;left=0;bottom=0;right=0;align=left;spacingLeft=2;overflow=hidden;fontSize=11;" parent="wI-5nJ8JduiSq8wfKIq_-231" vertex="1">
          <mxGeometry width="36" height="22" as="geometry">
            <mxRectangle width="36" height="22" as="alternateBounds" />
          </mxGeometry>
        </mxCell>
        <mxCell id="wI-5nJ8JduiSq8wfKIq_-233" value="ProductID" style="shape=partialRectangle;connectable=0;fillColor=none;top=0;left=0;bottom=0;right=0;align=left;spacingLeft=2;overflow=hidden;fontSize=11;" parent="wI-5nJ8JduiSq8wfKIq_-231" vertex="1">
          <mxGeometry x="36" width="95" height="22" as="geometry">
            <mxRectangle width="95" height="22" as="alternateBounds" />
          </mxGeometry>
        </mxCell>
        <mxCell id="wI-5nJ8JduiSq8wfKIq_-113" style="shape=tableRow;horizontal=0;startSize=0;swimlaneHead=0;swimlaneBody=0;fillColor=none;collapsible=0;dropTarget=0;points=[[0,0.5],[1,0.5]];portConstraint=eastwest;top=0;left=0;right=0;bottom=0;" parent="jmmyd-2RqcsZahoPcaCm-110" vertex="1">
          <mxGeometry y="46" width="131" height="22" as="geometry" />
        </mxCell>
        <mxCell id="wI-5nJ8JduiSq8wfKIq_-114" value="" style="shape=partialRectangle;connectable=0;fillColor=none;top=0;left=0;bottom=0;right=0;align=left;spacingLeft=2;overflow=hidden;fontSize=11;" parent="wI-5nJ8JduiSq8wfKIq_-113" vertex="1">
          <mxGeometry width="36" height="22" as="geometry">
            <mxRectangle width="36" height="22" as="alternateBounds" />
          </mxGeometry>
        </mxCell>
        <mxCell id="wI-5nJ8JduiSq8wfKIq_-115" value="ProcesLogID" style="shape=partialRectangle;connectable=0;fillColor=none;top=0;left=0;bottom=0;right=0;align=left;spacingLeft=2;overflow=hidden;fontSize=11;" parent="wI-5nJ8JduiSq8wfKIq_-113" vertex="1">
          <mxGeometry x="36" width="95" height="22" as="geometry">
            <mxRectangle width="95" height="22" as="alternateBounds" />
          </mxGeometry>
        </mxCell>
        <mxCell id="wI-5nJ8JduiSq8wfKIq_-65" style="shape=tableRow;horizontal=0;startSize=0;swimlaneHead=0;swimlaneBody=0;fillColor=none;collapsible=0;dropTarget=0;points=[[0,0.5],[1,0.5]];portConstraint=eastwest;top=0;left=0;right=0;bottom=0;" parent="jmmyd-2RqcsZahoPcaCm-110" vertex="1">
          <mxGeometry y="68" width="131" height="22" as="geometry" />
        </mxCell>
        <mxCell id="wI-5nJ8JduiSq8wfKIq_-66" value="" style="shape=partialRectangle;connectable=0;fillColor=none;top=0;left=0;bottom=0;right=0;align=left;spacingLeft=2;overflow=hidden;fontSize=11;" parent="wI-5nJ8JduiSq8wfKIq_-65" vertex="1">
          <mxGeometry width="36" height="22" as="geometry">
            <mxRectangle width="36" height="22" as="alternateBounds" />
          </mxGeometry>
        </mxCell>
        <mxCell id="wI-5nJ8JduiSq8wfKIq_-67" value="KwaliteitCheckID" style="shape=partialRectangle;connectable=0;fillColor=none;top=0;left=0;bottom=0;right=0;align=left;spacingLeft=2;overflow=hidden;fontSize=11;" parent="wI-5nJ8JduiSq8wfKIq_-65" vertex="1">
          <mxGeometry x="36" width="95" height="22" as="geometry">
            <mxRectangle width="95" height="22" as="alternateBounds" />
          </mxGeometry>
        </mxCell>
        <mxCell id="jmmyd-2RqcsZahoPcaCm-111" style="shape=tableRow;horizontal=0;startSize=0;swimlaneHead=0;swimlaneBody=0;fillColor=none;collapsible=0;dropTarget=0;points=[[0,0.5],[1,0.5]];portConstraint=eastwest;top=0;left=0;right=0;bottom=0;" parent="jmmyd-2RqcsZahoPcaCm-110" vertex="1">
          <mxGeometry y="90" width="131" height="22" as="geometry" />
        </mxCell>
        <mxCell id="jmmyd-2RqcsZahoPcaCm-112" value="" style="shape=partialRectangle;connectable=0;fillColor=none;top=0;left=0;bottom=0;right=0;align=left;spacingLeft=2;overflow=hidden;fontSize=11;" parent="jmmyd-2RqcsZahoPcaCm-111" vertex="1">
          <mxGeometry width="36" height="22" as="geometry">
            <mxRectangle width="36" height="22" as="alternateBounds" />
          </mxGeometry>
        </mxCell>
        <mxCell id="jmmyd-2RqcsZahoPcaCm-113" value="SoortProductID" style="shape=partialRectangle;connectable=0;fillColor=none;top=0;left=0;bottom=0;right=0;align=left;spacingLeft=2;overflow=hidden;fontSize=11;" parent="jmmyd-2RqcsZahoPcaCm-111" vertex="1">
          <mxGeometry x="36" width="95" height="22" as="geometry">
            <mxRectangle width="95" height="22" as="alternateBounds" />
          </mxGeometry>
        </mxCell>
        <mxCell id="jmmyd-2RqcsZahoPcaCm-115" style="shape=tableRow;horizontal=0;startSize=0;swimlaneHead=0;swimlaneBody=0;fillColor=none;collapsible=0;dropTarget=0;points=[[0,0.5],[1,0.5]];portConstraint=eastwest;top=0;left=0;right=0;bottom=0;" parent="jmmyd-2RqcsZahoPcaCm-110" vertex="1">
          <mxGeometry y="112" width="131" height="22" as="geometry" />
        </mxCell>
        <mxCell id="jmmyd-2RqcsZahoPcaCm-116" value="" style="shape=partialRectangle;connectable=0;fillColor=none;top=0;left=0;bottom=0;right=0;align=left;spacingLeft=2;overflow=hidden;fontSize=11;" parent="jmmyd-2RqcsZahoPcaCm-115" vertex="1">
          <mxGeometry width="36" height="22" as="geometry">
            <mxRectangle width="36" height="22" as="alternateBounds" />
          </mxGeometry>
        </mxCell>
        <mxCell id="jmmyd-2RqcsZahoPcaCm-117" value="ProductTHTDatum" style="shape=partialRectangle;connectable=0;fillColor=none;top=0;left=0;bottom=0;right=0;align=left;spacingLeft=2;overflow=hidden;fontSize=11;" parent="jmmyd-2RqcsZahoPcaCm-115" vertex="1">
          <mxGeometry x="36" width="95" height="22" as="geometry">
            <mxRectangle width="95" height="22" as="alternateBounds" />
          </mxGeometry>
        </mxCell>
        <mxCell id="jmmyd-2RqcsZahoPcaCm-119" style="shape=tableRow;horizontal=0;startSize=0;swimlaneHead=0;swimlaneBody=0;fillColor=none;collapsible=0;dropTarget=0;points=[[0,0.5],[1,0.5]];portConstraint=eastwest;top=0;left=0;right=0;bottom=0;" parent="jmmyd-2RqcsZahoPcaCm-110" vertex="1">
          <mxGeometry y="134" width="131" height="22" as="geometry" />
        </mxCell>
        <mxCell id="jmmyd-2RqcsZahoPcaCm-120" value="" style="shape=partialRectangle;connectable=0;fillColor=none;top=0;left=0;bottom=0;right=0;align=left;spacingLeft=2;overflow=hidden;fontSize=11;" parent="jmmyd-2RqcsZahoPcaCm-119" vertex="1">
          <mxGeometry width="36" height="22" as="geometry">
            <mxRectangle width="36" height="22" as="alternateBounds" />
          </mxGeometry>
        </mxCell>
        <mxCell id="jmmyd-2RqcsZahoPcaCm-121" value="CStatusProduct" style="shape=partialRectangle;connectable=0;fillColor=none;top=0;left=0;bottom=0;right=0;align=left;spacingLeft=2;overflow=hidden;fontSize=11;" parent="jmmyd-2RqcsZahoPcaCm-119" vertex="1">
          <mxGeometry x="36" width="95" height="22" as="geometry">
            <mxRectangle width="95" height="22" as="alternateBounds" />
          </mxGeometry>
        </mxCell>
        <mxCell id="jmmyd-2RqcsZahoPcaCm-123" style="shape=tableRow;horizontal=0;startSize=0;swimlaneHead=0;swimlaneBody=0;fillColor=none;collapsible=0;dropTarget=0;points=[[0,0.5],[1,0.5]];portConstraint=eastwest;top=0;left=0;right=0;bottom=0;" parent="jmmyd-2RqcsZahoPcaCm-110" vertex="1">
          <mxGeometry y="156" width="131" height="22" as="geometry" />
        </mxCell>
        <mxCell id="jmmyd-2RqcsZahoPcaCm-124" value="" style="shape=partialRectangle;connectable=0;fillColor=none;top=0;left=0;bottom=0;right=0;align=left;spacingLeft=2;overflow=hidden;fontSize=11;" parent="jmmyd-2RqcsZahoPcaCm-123" vertex="1">
          <mxGeometry width="36" height="22" as="geometry">
            <mxRectangle width="36" height="22" as="alternateBounds" />
          </mxGeometry>
        </mxCell>
        <mxCell id="jmmyd-2RqcsZahoPcaCm-125" value="FStatusProduct" style="shape=partialRectangle;connectable=0;fillColor=none;top=0;left=0;bottom=0;right=0;align=left;spacingLeft=2;overflow=hidden;fontSize=11;" parent="jmmyd-2RqcsZahoPcaCm-123" vertex="1">
          <mxGeometry x="36" width="95" height="22" as="geometry">
            <mxRectangle width="95" height="22" as="alternateBounds" />
          </mxGeometry>
        </mxCell>
        <mxCell id="jmmyd-2RqcsZahoPcaCm-127" style="shape=tableRow;horizontal=0;startSize=0;swimlaneHead=0;swimlaneBody=0;fillColor=none;collapsible=0;dropTarget=0;points=[[0,0.5],[1,0.5]];portConstraint=eastwest;top=0;left=0;right=0;bottom=0;" parent="jmmyd-2RqcsZahoPcaCm-110" vertex="1">
          <mxGeometry y="178" width="131" height="22" as="geometry" />
        </mxCell>
        <mxCell id="jmmyd-2RqcsZahoPcaCm-128" value="" style="shape=partialRectangle;connectable=0;fillColor=none;top=0;left=0;bottom=0;right=0;align=left;spacingLeft=2;overflow=hidden;fontSize=11;" parent="jmmyd-2RqcsZahoPcaCm-127" vertex="1">
          <mxGeometry width="36" height="22" as="geometry">
            <mxRectangle width="36" height="22" as="alternateBounds" />
          </mxGeometry>
        </mxCell>
        <mxCell id="jmmyd-2RqcsZahoPcaCm-129" value="PStatusProduct" style="shape=partialRectangle;connectable=0;fillColor=none;top=0;left=0;bottom=0;right=0;align=left;spacingLeft=2;overflow=hidden;fontSize=11;" parent="jmmyd-2RqcsZahoPcaCm-127" vertex="1">
          <mxGeometry x="36" width="95" height="22" as="geometry">
            <mxRectangle width="95" height="22" as="alternateBounds" />
          </mxGeometry>
        </mxCell>
        <mxCell id="jmmyd-2RqcsZahoPcaCm-131" value="Grinding_Product" style="shape=table;startSize=25;container=1;collapsible=0;childLayout=tableLayout;fixedRows=1;rowLines=1;fontStyle=1;align=center;resizeLast=1;" parent="1" vertex="1">
          <mxGeometry x="564" y="880" width="123" height="88" as="geometry" />
        </mxCell>
        <mxCell id="jmmyd-2RqcsZahoPcaCm-132" style="shape=tableRow;horizontal=0;startSize=0;swimlaneHead=0;swimlaneBody=0;fillColor=none;collapsible=0;dropTarget=0;points=[[0,0.5],[1,0.5]];portConstraint=eastwest;top=0;left=0;right=0;bottom=0;" parent="jmmyd-2RqcsZahoPcaCm-131" vertex="1">
          <mxGeometry y="25" width="123" height="21" as="geometry" />
        </mxCell>
        <mxCell id="jmmyd-2RqcsZahoPcaCm-133" value="PK" style="shape=partialRectangle;connectable=0;fillColor=none;top=0;left=0;bottom=0;right=0;align=left;spacingLeft=2;overflow=hidden;fontSize=11;" parent="jmmyd-2RqcsZahoPcaCm-132" vertex="1">
          <mxGeometry width="46.75" height="21" as="geometry">
            <mxRectangle width="46.75" height="21" as="alternateBounds" />
          </mxGeometry>
        </mxCell>
        <mxCell id="jmmyd-2RqcsZahoPcaCm-134" value="GrindingID" style="shape=partialRectangle;connectable=0;fillColor=none;top=0;left=0;bottom=0;right=0;align=left;spacingLeft=2;overflow=hidden;fontSize=11;" parent="jmmyd-2RqcsZahoPcaCm-132" vertex="1">
          <mxGeometry x="46.75" width="76.25" height="21" as="geometry">
            <mxRectangle width="76.25" height="21" as="alternateBounds" />
          </mxGeometry>
        </mxCell>
        <mxCell id="wI-5nJ8JduiSq8wfKIq_-68" style="shape=tableRow;horizontal=0;startSize=0;swimlaneHead=0;swimlaneBody=0;fillColor=none;collapsible=0;dropTarget=0;points=[[0,0.5],[1,0.5]];portConstraint=eastwest;top=0;left=0;right=0;bottom=0;" parent="jmmyd-2RqcsZahoPcaCm-131" vertex="1">
          <mxGeometry y="46" width="123" height="21" as="geometry" />
        </mxCell>
        <mxCell id="wI-5nJ8JduiSq8wfKIq_-69" value="" style="shape=partialRectangle;connectable=0;fillColor=none;top=0;left=0;bottom=0;right=0;align=left;spacingLeft=2;overflow=hidden;fontSize=11;" parent="wI-5nJ8JduiSq8wfKIq_-68" vertex="1">
          <mxGeometry width="46.75" height="21" as="geometry">
            <mxRectangle width="46.75" height="21" as="alternateBounds" />
          </mxGeometry>
        </mxCell>
        <mxCell id="wI-5nJ8JduiSq8wfKIq_-70" value="ProductID" style="shape=partialRectangle;connectable=0;fillColor=none;top=0;left=0;bottom=0;right=0;align=left;spacingLeft=2;overflow=hidden;fontSize=11;" parent="wI-5nJ8JduiSq8wfKIq_-68" vertex="1">
          <mxGeometry x="46.75" width="76.25" height="21" as="geometry">
            <mxRectangle width="76.25" height="21" as="alternateBounds" />
          </mxGeometry>
        </mxCell>
        <mxCell id="wI-5nJ8JduiSq8wfKIq_-71" style="shape=tableRow;horizontal=0;startSize=0;swimlaneHead=0;swimlaneBody=0;fillColor=none;collapsible=0;dropTarget=0;points=[[0,0.5],[1,0.5]];portConstraint=eastwest;top=0;left=0;right=0;bottom=0;" parent="jmmyd-2RqcsZahoPcaCm-131" vertex="1">
          <mxGeometry y="67" width="123" height="21" as="geometry" />
        </mxCell>
        <mxCell id="wI-5nJ8JduiSq8wfKIq_-72" style="shape=partialRectangle;connectable=0;fillColor=none;top=0;left=0;bottom=0;right=0;align=left;spacingLeft=2;overflow=hidden;fontSize=11;" parent="wI-5nJ8JduiSq8wfKIq_-71" vertex="1">
          <mxGeometry width="46.75" height="21" as="geometry">
            <mxRectangle width="46.75" height="21" as="alternateBounds" />
          </mxGeometry>
        </mxCell>
        <mxCell id="wI-5nJ8JduiSq8wfKIq_-73" value="Aantal" style="shape=partialRectangle;connectable=0;fillColor=none;top=0;left=0;bottom=0;right=0;align=left;spacingLeft=2;overflow=hidden;fontSize=11;" parent="wI-5nJ8JduiSq8wfKIq_-71" vertex="1">
          <mxGeometry x="46.75" width="76.25" height="21" as="geometry">
            <mxRectangle width="76.25" height="21" as="alternateBounds" />
          </mxGeometry>
        </mxCell>
        <mxCell id="jmmyd-2RqcsZahoPcaCm-135" value="Grinding" style="shape=table;startSize=25;container=1;collapsible=0;childLayout=tableLayout;fixedRows=1;rowLines=1;fontStyle=1;align=center;resizeLast=1;" parent="1" vertex="1">
          <mxGeometry x="864" y="830" width="146" height="135" as="geometry" />
        </mxCell>
        <mxCell id="wI-5nJ8JduiSq8wfKIq_-185" style="shape=tableRow;horizontal=0;startSize=0;swimlaneHead=0;swimlaneBody=0;fillColor=none;collapsible=0;dropTarget=0;points=[[0,0.5],[1,0.5]];portConstraint=eastwest;top=0;left=0;right=0;bottom=0;" parent="jmmyd-2RqcsZahoPcaCm-135" vertex="1">
          <mxGeometry y="25" width="146" height="22" as="geometry" />
        </mxCell>
        <mxCell id="wI-5nJ8JduiSq8wfKIq_-186" value="PK" style="shape=partialRectangle;connectable=0;fillColor=none;top=0;left=0;bottom=0;right=0;align=left;spacingLeft=2;overflow=hidden;fontSize=11;" parent="wI-5nJ8JduiSq8wfKIq_-185" vertex="1">
          <mxGeometry width="48" height="22" as="geometry">
            <mxRectangle width="48" height="22" as="alternateBounds" />
          </mxGeometry>
        </mxCell>
        <mxCell id="wI-5nJ8JduiSq8wfKIq_-187" value="GrindingID" style="shape=partialRectangle;connectable=0;fillColor=none;top=0;left=0;bottom=0;right=0;align=left;spacingLeft=2;overflow=hidden;fontSize=11;" parent="wI-5nJ8JduiSq8wfKIq_-185" vertex="1">
          <mxGeometry x="48" width="98" height="22" as="geometry">
            <mxRectangle width="98" height="22" as="alternateBounds" />
          </mxGeometry>
        </mxCell>
        <mxCell id="jmmyd-2RqcsZahoPcaCm-136" style="shape=tableRow;horizontal=0;startSize=0;swimlaneHead=0;swimlaneBody=0;fillColor=none;collapsible=0;dropTarget=0;points=[[0,0.5],[1,0.5]];portConstraint=eastwest;top=0;left=0;right=0;bottom=0;" parent="jmmyd-2RqcsZahoPcaCm-135" vertex="1">
          <mxGeometry y="47" width="146" height="22" as="geometry" />
        </mxCell>
        <mxCell id="jmmyd-2RqcsZahoPcaCm-137" value="" style="shape=partialRectangle;connectable=0;fillColor=none;top=0;left=0;bottom=0;right=0;align=left;spacingLeft=2;overflow=hidden;fontSize=11;" parent="jmmyd-2RqcsZahoPcaCm-136" vertex="1">
          <mxGeometry width="48" height="22" as="geometry">
            <mxRectangle width="48" height="22" as="alternateBounds" />
          </mxGeometry>
        </mxCell>
        <mxCell id="jmmyd-2RqcsZahoPcaCm-138" value="OperatorID" style="shape=partialRectangle;connectable=0;fillColor=none;top=0;left=0;bottom=0;right=0;align=left;spacingLeft=2;overflow=hidden;fontSize=11;" parent="jmmyd-2RqcsZahoPcaCm-136" vertex="1">
          <mxGeometry x="48" width="98" height="22" as="geometry">
            <mxRectangle width="98" height="22" as="alternateBounds" />
          </mxGeometry>
        </mxCell>
        <mxCell id="jmmyd-2RqcsZahoPcaCm-140" style="shape=tableRow;horizontal=0;startSize=0;swimlaneHead=0;swimlaneBody=0;fillColor=none;collapsible=0;dropTarget=0;points=[[0,0.5],[1,0.5]];portConstraint=eastwest;top=0;left=0;right=0;bottom=0;" parent="jmmyd-2RqcsZahoPcaCm-135" vertex="1">
          <mxGeometry y="69" width="146" height="22" as="geometry" />
        </mxCell>
        <mxCell id="jmmyd-2RqcsZahoPcaCm-141" value="" style="shape=partialRectangle;connectable=0;fillColor=none;top=0;left=0;bottom=0;right=0;align=left;spacingLeft=2;overflow=hidden;fontSize=11;" parent="jmmyd-2RqcsZahoPcaCm-140" vertex="1">
          <mxGeometry width="48" height="22" as="geometry">
            <mxRectangle width="48" height="22" as="alternateBounds" />
          </mxGeometry>
        </mxCell>
        <mxCell id="jmmyd-2RqcsZahoPcaCm-142" value="G_DatumTijdStart" style="shape=partialRectangle;connectable=0;fillColor=none;top=0;left=0;bottom=0;right=0;align=left;spacingLeft=2;overflow=hidden;fontSize=11;" parent="jmmyd-2RqcsZahoPcaCm-140" vertex="1">
          <mxGeometry x="48" width="98" height="22" as="geometry">
            <mxRectangle width="98" height="22" as="alternateBounds" />
          </mxGeometry>
        </mxCell>
        <mxCell id="jmmyd-2RqcsZahoPcaCm-144" style="shape=tableRow;horizontal=0;startSize=0;swimlaneHead=0;swimlaneBody=0;fillColor=none;collapsible=0;dropTarget=0;points=[[0,0.5],[1,0.5]];portConstraint=eastwest;top=0;left=0;right=0;bottom=0;" parent="jmmyd-2RqcsZahoPcaCm-135" vertex="1">
          <mxGeometry y="91" width="146" height="22" as="geometry" />
        </mxCell>
        <mxCell id="jmmyd-2RqcsZahoPcaCm-145" value="" style="shape=partialRectangle;connectable=0;fillColor=none;top=0;left=0;bottom=0;right=0;align=left;spacingLeft=2;overflow=hidden;fontSize=11;" parent="jmmyd-2RqcsZahoPcaCm-144" vertex="1">
          <mxGeometry width="48" height="22" as="geometry">
            <mxRectangle width="48" height="22" as="alternateBounds" />
          </mxGeometry>
        </mxCell>
        <mxCell id="jmmyd-2RqcsZahoPcaCm-146" value="G_DatumTijdEind" style="shape=partialRectangle;connectable=0;fillColor=none;top=0;left=0;bottom=0;right=0;align=left;spacingLeft=2;overflow=hidden;fontSize=11;" parent="jmmyd-2RqcsZahoPcaCm-144" vertex="1">
          <mxGeometry x="48" width="98" height="22" as="geometry">
            <mxRectangle width="98" height="22" as="alternateBounds" />
          </mxGeometry>
        </mxCell>
        <mxCell id="jmmyd-2RqcsZahoPcaCm-148" style="shape=tableRow;horizontal=0;startSize=0;swimlaneHead=0;swimlaneBody=0;fillColor=none;collapsible=0;dropTarget=0;points=[[0,0.5],[1,0.5]];portConstraint=eastwest;top=0;left=0;right=0;bottom=0;" parent="jmmyd-2RqcsZahoPcaCm-135" vertex="1">
          <mxGeometry y="113" width="146" height="22" as="geometry" />
        </mxCell>
        <mxCell id="jmmyd-2RqcsZahoPcaCm-149" value="" style="shape=partialRectangle;connectable=0;fillColor=none;top=0;left=0;bottom=0;right=0;align=left;spacingLeft=2;overflow=hidden;fontSize=11;" parent="jmmyd-2RqcsZahoPcaCm-148" vertex="1">
          <mxGeometry width="48" height="22" as="geometry">
            <mxRectangle width="48" height="22" as="alternateBounds" />
          </mxGeometry>
        </mxCell>
        <mxCell id="jmmyd-2RqcsZahoPcaCm-150" value="G_Machine" style="shape=partialRectangle;connectable=0;fillColor=none;top=0;left=0;bottom=0;right=0;align=left;spacingLeft=2;overflow=hidden;fontSize=11;" parent="jmmyd-2RqcsZahoPcaCm-148" vertex="1">
          <mxGeometry x="48" width="98" height="22" as="geometry">
            <mxRectangle width="98" height="22" as="alternateBounds" />
          </mxGeometry>
        </mxCell>
        <mxCell id="jmmyd-2RqcsZahoPcaCm-152" value="filling_Product" style="shape=table;startSize=25;container=1;collapsible=0;childLayout=tableLayout;fixedRows=1;rowLines=1;fontStyle=1;align=center;resizeLast=1;" parent="1" vertex="1">
          <mxGeometry x="604" y="1014.5" width="109" height="88" as="geometry" />
        </mxCell>
        <mxCell id="jmmyd-2RqcsZahoPcaCm-153" style="shape=tableRow;horizontal=0;startSize=0;swimlaneHead=0;swimlaneBody=0;fillColor=none;collapsible=0;dropTarget=0;points=[[0,0.5],[1,0.5]];portConstraint=eastwest;top=0;left=0;right=0;bottom=0;" parent="jmmyd-2RqcsZahoPcaCm-152" vertex="1">
          <mxGeometry y="25" width="109" height="21" as="geometry" />
        </mxCell>
        <mxCell id="jmmyd-2RqcsZahoPcaCm-154" value="PK," style="shape=partialRectangle;connectable=0;fillColor=none;top=0;left=0;bottom=0;right=0;align=left;spacingLeft=2;overflow=hidden;fontSize=11;" parent="jmmyd-2RqcsZahoPcaCm-153" vertex="1">
          <mxGeometry width="44.75" height="21" as="geometry">
            <mxRectangle width="44.75" height="21" as="alternateBounds" />
          </mxGeometry>
        </mxCell>
        <mxCell id="jmmyd-2RqcsZahoPcaCm-155" value="FillingID" style="shape=partialRectangle;connectable=0;fillColor=none;top=0;left=0;bottom=0;right=0;align=left;spacingLeft=2;overflow=hidden;fontSize=11;" parent="jmmyd-2RqcsZahoPcaCm-153" vertex="1">
          <mxGeometry x="44.75" width="64.25" height="21" as="geometry">
            <mxRectangle width="64.25" height="21" as="alternateBounds" />
          </mxGeometry>
        </mxCell>
        <mxCell id="wI-5nJ8JduiSq8wfKIq_-81" style="shape=tableRow;horizontal=0;startSize=0;swimlaneHead=0;swimlaneBody=0;fillColor=none;collapsible=0;dropTarget=0;points=[[0,0.5],[1,0.5]];portConstraint=eastwest;top=0;left=0;right=0;bottom=0;" parent="jmmyd-2RqcsZahoPcaCm-152" vertex="1">
          <mxGeometry y="46" width="109" height="21" as="geometry" />
        </mxCell>
        <mxCell id="wI-5nJ8JduiSq8wfKIq_-82" value="" style="shape=partialRectangle;connectable=0;fillColor=none;top=0;left=0;bottom=0;right=0;align=left;spacingLeft=2;overflow=hidden;fontSize=11;" parent="wI-5nJ8JduiSq8wfKIq_-81" vertex="1">
          <mxGeometry width="44.75" height="21" as="geometry">
            <mxRectangle width="44.75" height="21" as="alternateBounds" />
          </mxGeometry>
        </mxCell>
        <mxCell id="wI-5nJ8JduiSq8wfKIq_-83" value="ProductID" style="shape=partialRectangle;connectable=0;fillColor=none;top=0;left=0;bottom=0;right=0;align=left;spacingLeft=2;overflow=hidden;fontSize=11;" parent="wI-5nJ8JduiSq8wfKIq_-81" vertex="1">
          <mxGeometry x="44.75" width="64.25" height="21" as="geometry">
            <mxRectangle width="64.25" height="21" as="alternateBounds" />
          </mxGeometry>
        </mxCell>
        <mxCell id="wI-5nJ8JduiSq8wfKIq_-85" style="shape=tableRow;horizontal=0;startSize=0;swimlaneHead=0;swimlaneBody=0;fillColor=none;collapsible=0;dropTarget=0;points=[[0,0.5],[1,0.5]];portConstraint=eastwest;top=0;left=0;right=0;bottom=0;" parent="jmmyd-2RqcsZahoPcaCm-152" vertex="1">
          <mxGeometry y="67" width="109" height="21" as="geometry" />
        </mxCell>
        <mxCell id="wI-5nJ8JduiSq8wfKIq_-86" style="shape=partialRectangle;connectable=0;fillColor=none;top=0;left=0;bottom=0;right=0;align=left;spacingLeft=2;overflow=hidden;fontSize=11;" parent="wI-5nJ8JduiSq8wfKIq_-85" vertex="1">
          <mxGeometry width="44.75" height="21" as="geometry">
            <mxRectangle width="44.75" height="21" as="alternateBounds" />
          </mxGeometry>
        </mxCell>
        <mxCell id="wI-5nJ8JduiSq8wfKIq_-87" value="Aantal" style="shape=partialRectangle;connectable=0;fillColor=none;top=0;left=0;bottom=0;right=0;align=left;spacingLeft=2;overflow=hidden;fontSize=11;" parent="wI-5nJ8JduiSq8wfKIq_-85" vertex="1">
          <mxGeometry x="44.75" width="64.25" height="21" as="geometry">
            <mxRectangle width="64.25" height="21" as="alternateBounds" />
          </mxGeometry>
        </mxCell>
        <mxCell id="jmmyd-2RqcsZahoPcaCm-156" value="Filling" style="shape=table;startSize=25;container=1;collapsible=0;childLayout=tableLayout;fixedRows=1;rowLines=1;fontStyle=1;align=center;resizeLast=1;" parent="1" vertex="1">
          <mxGeometry x="866" y="989.5" width="144" height="135" as="geometry" />
        </mxCell>
        <mxCell id="wI-5nJ8JduiSq8wfKIq_-194" style="shape=tableRow;horizontal=0;startSize=0;swimlaneHead=0;swimlaneBody=0;fillColor=none;collapsible=0;dropTarget=0;points=[[0,0.5],[1,0.5]];portConstraint=eastwest;top=0;left=0;right=0;bottom=0;" parent="jmmyd-2RqcsZahoPcaCm-156" vertex="1">
          <mxGeometry y="25" width="144" height="22" as="geometry" />
        </mxCell>
        <mxCell id="wI-5nJ8JduiSq8wfKIq_-195" value="PK" style="shape=partialRectangle;connectable=0;fillColor=none;top=0;left=0;bottom=0;right=0;align=left;spacingLeft=2;overflow=hidden;fontSize=11;" parent="wI-5nJ8JduiSq8wfKIq_-194" vertex="1">
          <mxGeometry width="48" height="22" as="geometry">
            <mxRectangle width="48" height="22" as="alternateBounds" />
          </mxGeometry>
        </mxCell>
        <mxCell id="wI-5nJ8JduiSq8wfKIq_-196" value="FillingID" style="shape=partialRectangle;connectable=0;fillColor=none;top=0;left=0;bottom=0;right=0;align=left;spacingLeft=2;overflow=hidden;fontSize=11;" parent="wI-5nJ8JduiSq8wfKIq_-194" vertex="1">
          <mxGeometry x="48" width="96" height="22" as="geometry">
            <mxRectangle width="96" height="22" as="alternateBounds" />
          </mxGeometry>
        </mxCell>
        <mxCell id="jmmyd-2RqcsZahoPcaCm-157" style="shape=tableRow;horizontal=0;startSize=0;swimlaneHead=0;swimlaneBody=0;fillColor=none;collapsible=0;dropTarget=0;points=[[0,0.5],[1,0.5]];portConstraint=eastwest;top=0;left=0;right=0;bottom=0;" parent="jmmyd-2RqcsZahoPcaCm-156" vertex="1">
          <mxGeometry y="47" width="144" height="22" as="geometry" />
        </mxCell>
        <mxCell id="jmmyd-2RqcsZahoPcaCm-158" value="" style="shape=partialRectangle;connectable=0;fillColor=none;top=0;left=0;bottom=0;right=0;align=left;spacingLeft=2;overflow=hidden;fontSize=11;" parent="jmmyd-2RqcsZahoPcaCm-157" vertex="1">
          <mxGeometry width="48" height="22" as="geometry">
            <mxRectangle width="48" height="22" as="alternateBounds" />
          </mxGeometry>
        </mxCell>
        <mxCell id="jmmyd-2RqcsZahoPcaCm-159" value="OperatorID" style="shape=partialRectangle;connectable=0;fillColor=none;top=0;left=0;bottom=0;right=0;align=left;spacingLeft=2;overflow=hidden;fontSize=11;" parent="jmmyd-2RqcsZahoPcaCm-157" vertex="1">
          <mxGeometry x="48" width="96" height="22" as="geometry">
            <mxRectangle width="96" height="22" as="alternateBounds" />
          </mxGeometry>
        </mxCell>
        <mxCell id="jmmyd-2RqcsZahoPcaCm-161" style="shape=tableRow;horizontal=0;startSize=0;swimlaneHead=0;swimlaneBody=0;fillColor=none;collapsible=0;dropTarget=0;points=[[0,0.5],[1,0.5]];portConstraint=eastwest;top=0;left=0;right=0;bottom=0;" parent="jmmyd-2RqcsZahoPcaCm-156" vertex="1">
          <mxGeometry y="69" width="144" height="22" as="geometry" />
        </mxCell>
        <mxCell id="jmmyd-2RqcsZahoPcaCm-162" value="" style="shape=partialRectangle;connectable=0;fillColor=none;top=0;left=0;bottom=0;right=0;align=left;spacingLeft=2;overflow=hidden;fontSize=11;" parent="jmmyd-2RqcsZahoPcaCm-161" vertex="1">
          <mxGeometry width="48" height="22" as="geometry">
            <mxRectangle width="48" height="22" as="alternateBounds" />
          </mxGeometry>
        </mxCell>
        <mxCell id="jmmyd-2RqcsZahoPcaCm-163" value="F_datumTijdStart" style="shape=partialRectangle;connectable=0;fillColor=none;top=0;left=0;bottom=0;right=0;align=left;spacingLeft=2;overflow=hidden;fontSize=11;" parent="jmmyd-2RqcsZahoPcaCm-161" vertex="1">
          <mxGeometry x="48" width="96" height="22" as="geometry">
            <mxRectangle width="96" height="22" as="alternateBounds" />
          </mxGeometry>
        </mxCell>
        <mxCell id="jmmyd-2RqcsZahoPcaCm-165" style="shape=tableRow;horizontal=0;startSize=0;swimlaneHead=0;swimlaneBody=0;fillColor=none;collapsible=0;dropTarget=0;points=[[0,0.5],[1,0.5]];portConstraint=eastwest;top=0;left=0;right=0;bottom=0;" parent="jmmyd-2RqcsZahoPcaCm-156" vertex="1">
          <mxGeometry y="91" width="144" height="22" as="geometry" />
        </mxCell>
        <mxCell id="jmmyd-2RqcsZahoPcaCm-166" value="" style="shape=partialRectangle;connectable=0;fillColor=none;top=0;left=0;bottom=0;right=0;align=left;spacingLeft=2;overflow=hidden;fontSize=11;" parent="jmmyd-2RqcsZahoPcaCm-165" vertex="1">
          <mxGeometry width="48" height="22" as="geometry">
            <mxRectangle width="48" height="22" as="alternateBounds" />
          </mxGeometry>
        </mxCell>
        <mxCell id="jmmyd-2RqcsZahoPcaCm-167" value="F_datumTijdEind" style="shape=partialRectangle;connectable=0;fillColor=none;top=0;left=0;bottom=0;right=0;align=left;spacingLeft=2;overflow=hidden;fontSize=11;" parent="jmmyd-2RqcsZahoPcaCm-165" vertex="1">
          <mxGeometry x="48" width="96" height="22" as="geometry">
            <mxRectangle width="96" height="22" as="alternateBounds" />
          </mxGeometry>
        </mxCell>
        <mxCell id="jmmyd-2RqcsZahoPcaCm-169" style="shape=tableRow;horizontal=0;startSize=0;swimlaneHead=0;swimlaneBody=0;fillColor=none;collapsible=0;dropTarget=0;points=[[0,0.5],[1,0.5]];portConstraint=eastwest;top=0;left=0;right=0;bottom=0;" parent="jmmyd-2RqcsZahoPcaCm-156" vertex="1">
          <mxGeometry y="113" width="144" height="22" as="geometry" />
        </mxCell>
        <mxCell id="jmmyd-2RqcsZahoPcaCm-170" value="" style="shape=partialRectangle;connectable=0;fillColor=none;top=0;left=0;bottom=0;right=0;align=left;spacingLeft=2;overflow=hidden;fontSize=11;" parent="jmmyd-2RqcsZahoPcaCm-169" vertex="1">
          <mxGeometry width="48" height="22" as="geometry">
            <mxRectangle width="48" height="22" as="alternateBounds" />
          </mxGeometry>
        </mxCell>
        <mxCell id="jmmyd-2RqcsZahoPcaCm-171" value="F_machine" style="shape=partialRectangle;connectable=0;fillColor=none;top=0;left=0;bottom=0;right=0;align=left;spacingLeft=2;overflow=hidden;fontSize=11;" parent="jmmyd-2RqcsZahoPcaCm-169" vertex="1">
          <mxGeometry x="48" width="96" height="22" as="geometry">
            <mxRectangle width="96" height="22" as="alternateBounds" />
          </mxGeometry>
        </mxCell>
        <mxCell id="jmmyd-2RqcsZahoPcaCm-173" value="Packaging_Product" style="shape=table;startSize=25;container=1;collapsible=0;childLayout=tableLayout;fixedRows=1;rowLines=1;fontStyle=1;align=center;resizeLast=1;" parent="1" vertex="1">
          <mxGeometry x="593" y="1150" width="130" height="88" as="geometry" />
        </mxCell>
        <mxCell id="jmmyd-2RqcsZahoPcaCm-174" style="shape=tableRow;horizontal=0;startSize=0;swimlaneHead=0;swimlaneBody=0;fillColor=none;collapsible=0;dropTarget=0;points=[[0,0.5],[1,0.5]];portConstraint=eastwest;top=0;left=0;right=0;bottom=0;" parent="jmmyd-2RqcsZahoPcaCm-173" vertex="1">
          <mxGeometry y="25" width="130" height="21" as="geometry" />
        </mxCell>
        <mxCell id="jmmyd-2RqcsZahoPcaCm-175" value="PK" style="shape=partialRectangle;connectable=0;fillColor=none;top=0;left=0;bottom=0;right=0;align=left;spacingLeft=2;overflow=hidden;fontSize=11;" parent="jmmyd-2RqcsZahoPcaCm-174" vertex="1">
          <mxGeometry width="43.75" height="21" as="geometry">
            <mxRectangle width="43.75" height="21" as="alternateBounds" />
          </mxGeometry>
        </mxCell>
        <mxCell id="jmmyd-2RqcsZahoPcaCm-176" value="PackagingID" style="shape=partialRectangle;connectable=0;fillColor=none;top=0;left=0;bottom=0;right=0;align=left;spacingLeft=2;overflow=hidden;fontSize=11;" parent="jmmyd-2RqcsZahoPcaCm-174" vertex="1">
          <mxGeometry x="43.75" width="86.25" height="21" as="geometry">
            <mxRectangle width="86.25" height="21" as="alternateBounds" />
          </mxGeometry>
        </mxCell>
        <mxCell id="wI-5nJ8JduiSq8wfKIq_-90" style="shape=tableRow;horizontal=0;startSize=0;swimlaneHead=0;swimlaneBody=0;fillColor=none;collapsible=0;dropTarget=0;points=[[0,0.5],[1,0.5]];portConstraint=eastwest;top=0;left=0;right=0;bottom=0;" parent="jmmyd-2RqcsZahoPcaCm-173" vertex="1">
          <mxGeometry y="46" width="130" height="21" as="geometry" />
        </mxCell>
        <mxCell id="wI-5nJ8JduiSq8wfKIq_-91" value="" style="shape=partialRectangle;connectable=0;fillColor=none;top=0;left=0;bottom=0;right=0;align=left;spacingLeft=2;overflow=hidden;fontSize=11;" parent="wI-5nJ8JduiSq8wfKIq_-90" vertex="1">
          <mxGeometry width="43.75" height="21" as="geometry">
            <mxRectangle width="43.75" height="21" as="alternateBounds" />
          </mxGeometry>
        </mxCell>
        <mxCell id="wI-5nJ8JduiSq8wfKIq_-92" value="ProductID" style="shape=partialRectangle;connectable=0;fillColor=none;top=0;left=0;bottom=0;right=0;align=left;spacingLeft=2;overflow=hidden;fontSize=11;" parent="wI-5nJ8JduiSq8wfKIq_-90" vertex="1">
          <mxGeometry x="43.75" width="86.25" height="21" as="geometry">
            <mxRectangle width="86.25" height="21" as="alternateBounds" />
          </mxGeometry>
        </mxCell>
        <mxCell id="wI-5nJ8JduiSq8wfKIq_-94" style="shape=tableRow;horizontal=0;startSize=0;swimlaneHead=0;swimlaneBody=0;fillColor=none;collapsible=0;dropTarget=0;points=[[0,0.5],[1,0.5]];portConstraint=eastwest;top=0;left=0;right=0;bottom=0;" parent="jmmyd-2RqcsZahoPcaCm-173" vertex="1">
          <mxGeometry y="67" width="130" height="21" as="geometry" />
        </mxCell>
        <mxCell id="wI-5nJ8JduiSq8wfKIq_-95" style="shape=partialRectangle;connectable=0;fillColor=none;top=0;left=0;bottom=0;right=0;align=left;spacingLeft=2;overflow=hidden;fontSize=11;" parent="wI-5nJ8JduiSq8wfKIq_-94" vertex="1">
          <mxGeometry width="43.75" height="21" as="geometry">
            <mxRectangle width="43.75" height="21" as="alternateBounds" />
          </mxGeometry>
        </mxCell>
        <mxCell id="wI-5nJ8JduiSq8wfKIq_-96" value="Aantal" style="shape=partialRectangle;connectable=0;fillColor=none;top=0;left=0;bottom=0;right=0;align=left;spacingLeft=2;overflow=hidden;fontSize=11;" parent="wI-5nJ8JduiSq8wfKIq_-94" vertex="1">
          <mxGeometry x="43.75" width="86.25" height="21" as="geometry">
            <mxRectangle width="86.25" height="21" as="alternateBounds" />
          </mxGeometry>
        </mxCell>
        <mxCell id="jmmyd-2RqcsZahoPcaCm-177" value="Packaging" style="shape=table;startSize=25;container=1;collapsible=0;childLayout=tableLayout;fixedRows=1;rowLines=1;fontStyle=1;align=center;resizeLast=1;" parent="1" vertex="1">
          <mxGeometry x="890" y="1135" width="150" height="157" as="geometry" />
        </mxCell>
        <mxCell id="wI-5nJ8JduiSq8wfKIq_-204" style="shape=tableRow;horizontal=0;startSize=0;swimlaneHead=0;swimlaneBody=0;fillColor=none;collapsible=0;dropTarget=0;points=[[0,0.5],[1,0.5]];portConstraint=eastwest;top=0;left=0;right=0;bottom=0;" parent="jmmyd-2RqcsZahoPcaCm-177" vertex="1">
          <mxGeometry y="25" width="150" height="22" as="geometry" />
        </mxCell>
        <mxCell id="wI-5nJ8JduiSq8wfKIq_-205" value="PK" style="shape=partialRectangle;connectable=0;fillColor=none;top=0;left=0;bottom=0;right=0;align=left;spacingLeft=2;overflow=hidden;fontSize=11;" parent="wI-5nJ8JduiSq8wfKIq_-204" vertex="1">
          <mxGeometry width="48" height="22" as="geometry">
            <mxRectangle width="48" height="22" as="alternateBounds" />
          </mxGeometry>
        </mxCell>
        <mxCell id="wI-5nJ8JduiSq8wfKIq_-206" value="PackagingID" style="shape=partialRectangle;connectable=0;fillColor=none;top=0;left=0;bottom=0;right=0;align=left;spacingLeft=2;overflow=hidden;fontSize=11;" parent="wI-5nJ8JduiSq8wfKIq_-204" vertex="1">
          <mxGeometry x="48" width="102" height="22" as="geometry">
            <mxRectangle width="102" height="22" as="alternateBounds" />
          </mxGeometry>
        </mxCell>
        <mxCell id="jmmyd-2RqcsZahoPcaCm-178" style="shape=tableRow;horizontal=0;startSize=0;swimlaneHead=0;swimlaneBody=0;fillColor=none;collapsible=0;dropTarget=0;points=[[0,0.5],[1,0.5]];portConstraint=eastwest;top=0;left=0;right=0;bottom=0;" parent="jmmyd-2RqcsZahoPcaCm-177" vertex="1">
          <mxGeometry y="47" width="150" height="22" as="geometry" />
        </mxCell>
        <mxCell id="jmmyd-2RqcsZahoPcaCm-179" value="" style="shape=partialRectangle;connectable=0;fillColor=none;top=0;left=0;bottom=0;right=0;align=left;spacingLeft=2;overflow=hidden;fontSize=11;" parent="jmmyd-2RqcsZahoPcaCm-178" vertex="1">
          <mxGeometry width="48" height="22" as="geometry">
            <mxRectangle width="48" height="22" as="alternateBounds" />
          </mxGeometry>
        </mxCell>
        <mxCell id="jmmyd-2RqcsZahoPcaCm-180" value="OperatorID" style="shape=partialRectangle;connectable=0;fillColor=none;top=0;left=0;bottom=0;right=0;align=left;spacingLeft=2;overflow=hidden;fontSize=11;" parent="jmmyd-2RqcsZahoPcaCm-178" vertex="1">
          <mxGeometry x="48" width="102" height="22" as="geometry">
            <mxRectangle width="102" height="22" as="alternateBounds" />
          </mxGeometry>
        </mxCell>
        <mxCell id="jmmyd-2RqcsZahoPcaCm-182" style="shape=tableRow;horizontal=0;startSize=0;swimlaneHead=0;swimlaneBody=0;fillColor=none;collapsible=0;dropTarget=0;points=[[0,0.5],[1,0.5]];portConstraint=eastwest;top=0;left=0;right=0;bottom=0;" parent="jmmyd-2RqcsZahoPcaCm-177" vertex="1">
          <mxGeometry y="69" width="150" height="22" as="geometry" />
        </mxCell>
        <mxCell id="jmmyd-2RqcsZahoPcaCm-183" value="" style="shape=partialRectangle;connectable=0;fillColor=none;top=0;left=0;bottom=0;right=0;align=left;spacingLeft=2;overflow=hidden;fontSize=11;" parent="jmmyd-2RqcsZahoPcaCm-182" vertex="1">
          <mxGeometry width="48" height="22" as="geometry">
            <mxRectangle width="48" height="22" as="alternateBounds" />
          </mxGeometry>
        </mxCell>
        <mxCell id="jmmyd-2RqcsZahoPcaCm-184" value="P_DatumTijdStart" style="shape=partialRectangle;connectable=0;fillColor=none;top=0;left=0;bottom=0;right=0;align=left;spacingLeft=2;overflow=hidden;fontSize=11;" parent="jmmyd-2RqcsZahoPcaCm-182" vertex="1">
          <mxGeometry x="48" width="102" height="22" as="geometry">
            <mxRectangle width="102" height="22" as="alternateBounds" />
          </mxGeometry>
        </mxCell>
        <mxCell id="jmmyd-2RqcsZahoPcaCm-186" style="shape=tableRow;horizontal=0;startSize=0;swimlaneHead=0;swimlaneBody=0;fillColor=none;collapsible=0;dropTarget=0;points=[[0,0.5],[1,0.5]];portConstraint=eastwest;top=0;left=0;right=0;bottom=0;" parent="jmmyd-2RqcsZahoPcaCm-177" vertex="1">
          <mxGeometry y="91" width="150" height="22" as="geometry" />
        </mxCell>
        <mxCell id="jmmyd-2RqcsZahoPcaCm-187" value="" style="shape=partialRectangle;connectable=0;fillColor=none;top=0;left=0;bottom=0;right=0;align=left;spacingLeft=2;overflow=hidden;fontSize=11;" parent="jmmyd-2RqcsZahoPcaCm-186" vertex="1">
          <mxGeometry width="48" height="22" as="geometry">
            <mxRectangle width="48" height="22" as="alternateBounds" />
          </mxGeometry>
        </mxCell>
        <mxCell id="jmmyd-2RqcsZahoPcaCm-188" value="P_DatumTijdEind" style="shape=partialRectangle;connectable=0;fillColor=none;top=0;left=0;bottom=0;right=0;align=left;spacingLeft=2;overflow=hidden;fontSize=11;" parent="jmmyd-2RqcsZahoPcaCm-186" vertex="1">
          <mxGeometry x="48" width="102" height="22" as="geometry">
            <mxRectangle width="102" height="22" as="alternateBounds" />
          </mxGeometry>
        </mxCell>
        <mxCell id="jmmyd-2RqcsZahoPcaCm-190" style="shape=tableRow;horizontal=0;startSize=0;swimlaneHead=0;swimlaneBody=0;fillColor=none;collapsible=0;dropTarget=0;points=[[0,0.5],[1,0.5]];portConstraint=eastwest;top=0;left=0;right=0;bottom=0;" parent="jmmyd-2RqcsZahoPcaCm-177" vertex="1">
          <mxGeometry y="113" width="150" height="22" as="geometry" />
        </mxCell>
        <mxCell id="jmmyd-2RqcsZahoPcaCm-191" value="" style="shape=partialRectangle;connectable=0;fillColor=none;top=0;left=0;bottom=0;right=0;align=left;spacingLeft=2;overflow=hidden;fontSize=11;" parent="jmmyd-2RqcsZahoPcaCm-190" vertex="1">
          <mxGeometry width="48" height="22" as="geometry">
            <mxRectangle width="48" height="22" as="alternateBounds" />
          </mxGeometry>
        </mxCell>
        <mxCell id="jmmyd-2RqcsZahoPcaCm-192" value="P_machine" style="shape=partialRectangle;connectable=0;fillColor=none;top=0;left=0;bottom=0;right=0;align=left;spacingLeft=2;overflow=hidden;fontSize=11;" parent="jmmyd-2RqcsZahoPcaCm-190" vertex="1">
          <mxGeometry x="48" width="102" height="22" as="geometry">
            <mxRectangle width="102" height="22" as="alternateBounds" />
          </mxGeometry>
        </mxCell>
        <mxCell id="jmmyd-2RqcsZahoPcaCm-194" style="shape=tableRow;horizontal=0;startSize=0;swimlaneHead=0;swimlaneBody=0;fillColor=none;collapsible=0;dropTarget=0;points=[[0,0.5],[1,0.5]];portConstraint=eastwest;top=0;left=0;right=0;bottom=0;" parent="jmmyd-2RqcsZahoPcaCm-177" vertex="1">
          <mxGeometry y="135" width="150" height="22" as="geometry" />
        </mxCell>
        <mxCell id="jmmyd-2RqcsZahoPcaCm-195" value="" style="shape=partialRectangle;connectable=0;fillColor=none;top=0;left=0;bottom=0;right=0;align=left;spacingLeft=2;overflow=hidden;fontSize=11;" parent="jmmyd-2RqcsZahoPcaCm-194" vertex="1">
          <mxGeometry width="48" height="22" as="geometry">
            <mxRectangle width="48" height="22" as="alternateBounds" />
          </mxGeometry>
        </mxCell>
        <mxCell id="jmmyd-2RqcsZahoPcaCm-196" value="AantalStuksInDoos" style="shape=partialRectangle;connectable=0;fillColor=none;top=0;left=0;bottom=0;right=0;align=left;spacingLeft=2;overflow=hidden;fontSize=11;" parent="jmmyd-2RqcsZahoPcaCm-194" vertex="1">
          <mxGeometry x="48" width="102" height="22" as="geometry">
            <mxRectangle width="102" height="22" as="alternateBounds" />
          </mxGeometry>
        </mxCell>
        <mxCell id="jmmyd-2RqcsZahoPcaCm-198" value="" style="startArrow=ERmandOne;startSize=10;;endArrow=ERzeroToMany;endSize=10;;entryX=0;entryY=0.5;rounded=0;entryDx=0;entryDy=0;exitX=1;exitY=0.5;exitDx=0;exitDy=0;edgeStyle=orthogonalEdgeStyle;" parent="1" source="jmmyd-2RqcsZahoPcaCm-2" target="wI-5nJ8JduiSq8wfKIq_-49" edge="1">
          <mxGeometry relative="1" as="geometry">
            <mxPoint x="304" y="493" as="sourcePoint" />
            <mxPoint x="323.5" y="500" as="targetPoint" />
          </mxGeometry>
        </mxCell>
        <mxCell id="jmmyd-2RqcsZahoPcaCm-199" value="" style="startArrow=ERmandOne;startSize=10;;endArrow=ERzeroToMany;endSize=10;;exitX=0;exitY=0.5;entryX=1;entryY=0.5;rounded=0;entryDx=0;entryDy=0;exitDx=0;exitDy=0;edgeStyle=orthogonalEdgeStyle;" parent="1" source="wI-5nJ8JduiSq8wfKIq_-36" target="jmmyd-2RqcsZahoPcaCm-56" edge="1">
          <mxGeometry relative="1" as="geometry" />
        </mxCell>
        <mxCell id="jmmyd-2RqcsZahoPcaCm-200" value="" style="curved=1;startArrow=ERmandOne;startSize=10;;endArrow=ERzeroToMany;endSize=10;;exitX=0.981;exitY=0.227;entryX=0;entryY=0.5;rounded=0;exitDx=0;exitDy=0;entryDx=0;entryDy=0;exitPerimeter=0;" parent="1" source="jmmyd-2RqcsZahoPcaCm-11" target="jmmyd-2RqcsZahoPcaCm-73" edge="1">
          <mxGeometry relative="1" as="geometry">
            <Array as="points" />
          </mxGeometry>
        </mxCell>
        <mxCell id="jmmyd-2RqcsZahoPcaCm-201" value="" style="curved=1;startArrow=ERmandOne;startSize=10;;endArrow=ERzeroToMany;endSize=10;;exitX=0.5;exitY=1;entryX=0.5;entryY=0;rounded=0;" parent="1" source="jmmyd-2RqcsZahoPcaCm-72" target="jmmyd-2RqcsZahoPcaCm-85" edge="1">
          <mxGeometry relative="1" as="geometry">
            <Array as="points" />
          </mxGeometry>
        </mxCell>
        <mxCell id="jmmyd-2RqcsZahoPcaCm-202" value="" style="startArrow=ERmandOne;startSize=10;;endArrow=ERzeroToMany;endSize=10;;entryX=0;entryY=0.08;rounded=0;exitX=1;exitY=0.5;exitDx=0;exitDy=0;edgeStyle=orthogonalEdgeStyle;" parent="1" source="jmmyd-2RqcsZahoPcaCm-90" target="jmmyd-2RqcsZahoPcaCm-110" edge="1">
          <mxGeometry relative="1" as="geometry">
            <mxPoint x="281" y="806" as="sourcePoint" />
          </mxGeometry>
        </mxCell>
        <mxCell id="jmmyd-2RqcsZahoPcaCm-203" value="" style="curved=1;startArrow=ERzeroToMany;startSize=10;;endArrow=ERmandOne;endSize=10;;exitX=0.5;exitY=1;entryX=0.72;entryY=0;rounded=0;startFill=0;endFill=0;" parent="1" source="jmmyd-2RqcsZahoPcaCm-85" target="jmmyd-2RqcsZahoPcaCm-110" edge="1">
          <mxGeometry relative="1" as="geometry">
            <Array as="points">
              <mxPoint x="453" y="950" />
            </Array>
          </mxGeometry>
        </mxCell>
        <mxCell id="jmmyd-2RqcsZahoPcaCm-204" value="gebruikt" style="curved=1;startArrow=ERmandOne;startSize=10;;endArrow=ERzeroToMany;endSize=10;;exitX=0.985;exitY=0.096;entryX=0;entryY=0.5;rounded=0;exitDx=0;exitDy=0;entryDx=0;entryDy=0;endFill=0;exitPerimeter=0;" parent="1" source="jmmyd-2RqcsZahoPcaCm-110" target="jmmyd-2RqcsZahoPcaCm-131" edge="1">
          <mxGeometry relative="1" as="geometry">
            <Array as="points" />
          </mxGeometry>
        </mxCell>
        <mxCell id="jmmyd-2RqcsZahoPcaCm-205" value="" style="curved=1;startArrow=ERmandOne;startSize=10;;endArrow=ERzeroToMany;endSize=10;;exitX=0.007;exitY=1;entryX=1;entryY=0.5;rounded=0;exitDx=0;exitDy=0;entryDx=0;entryDy=0;exitPerimeter=0;startFill=0;endFill=0;" parent="1" source="jmmyd-2RqcsZahoPcaCm-140" target="jmmyd-2RqcsZahoPcaCm-131" edge="1">
          <mxGeometry relative="1" as="geometry">
            <Array as="points" />
          </mxGeometry>
        </mxCell>
        <mxCell id="jmmyd-2RqcsZahoPcaCm-206" value="gebruikt" style="curved=1;startArrow=ERmandOne;startSize=10;;endArrow=ERzeroToMany;endSize=10;;exitX=1;exitY=0.5;entryX=0;entryY=0.5;rounded=0;exitDx=0;exitDy=0;entryDx=0;entryDy=0;endFill=0;" parent="1" source="jmmyd-2RqcsZahoPcaCm-115" target="jmmyd-2RqcsZahoPcaCm-152" edge="1">
          <mxGeometry relative="1" as="geometry">
            <Array as="points" />
          </mxGeometry>
        </mxCell>
        <mxCell id="jmmyd-2RqcsZahoPcaCm-207" value="" style="curved=1;startArrow=ERmandOne;startSize=10;;endArrow=ERzeroToMany;endSize=10;;exitX=0;exitY=0.5;entryX=1;entryY=0.5;rounded=0;exitDx=0;exitDy=0;entryDx=0;entryDy=0;endFill=0;" parent="1" source="jmmyd-2RqcsZahoPcaCm-161" target="jmmyd-2RqcsZahoPcaCm-152" edge="1">
          <mxGeometry x="0.0017" relative="1" as="geometry">
            <Array as="points" />
            <mxPoint as="offset" />
          </mxGeometry>
        </mxCell>
        <mxCell id="jmmyd-2RqcsZahoPcaCm-208" value="gebruikt" style="curved=1;startArrow=ERmandOne;startSize=10;;endArrow=ERzeroToMany;endSize=10;;exitX=1;exitY=0.5;entryX=0;entryY=0.5;rounded=0;entryDx=0;entryDy=0;endFill=0;exitDx=0;exitDy=0;" parent="1" source="jmmyd-2RqcsZahoPcaCm-127" target="jmmyd-2RqcsZahoPcaCm-173" edge="1">
          <mxGeometry relative="1" as="geometry">
            <Array as="points" />
          </mxGeometry>
        </mxCell>
        <mxCell id="jmmyd-2RqcsZahoPcaCm-209" value="" style="curved=1;startArrow=ERmandOne;startSize=10;;endArrow=ERzeroToMany;endSize=10;;exitX=0;exitY=0.5;entryX=1;entryY=0.5;rounded=0;entryDx=0;entryDy=0;exitDx=0;exitDy=0;endFill=0;" parent="1" source="jmmyd-2RqcsZahoPcaCm-186" target="jmmyd-2RqcsZahoPcaCm-174" edge="1">
          <mxGeometry relative="1" as="geometry">
            <Array as="points" />
          </mxGeometry>
        </mxCell>
        <mxCell id="gTkMBZEuTbGyAQk3MBeW-19" value="levert" style="curved=1;startArrow=ERzeroToMany;startSize=10;;endArrow=ERmandOne;endSize=10;;exitX=1;exitY=0.5;entryX=0;entryY=0.5;rounded=0;startFill=0;endFill=0;entryDx=0;entryDy=0;exitDx=0;exitDy=0;" parent="1" source="jmmyd-2RqcsZahoPcaCm-119" target="jmmyd-2RqcsZahoPcaCm-182" edge="1">
          <mxGeometry relative="1" as="geometry">
            <Array as="points">
              <mxPoint x="680" y="1110" />
            </Array>
            <mxPoint x="573" y="867" as="sourcePoint" />
            <mxPoint x="420" y="1010" as="targetPoint" />
          </mxGeometry>
        </mxCell>
        <mxCell id="gTkMBZEuTbGyAQk3MBeW-20" value="levert" style="curved=1;startArrow=ERzeroToMany;startSize=10;;endArrow=ERmandOne;endSize=10;;exitX=1;exitY=0.5;entryX=0;entryY=0.5;rounded=0;startFill=0;endFill=0;entryDx=0;entryDy=0;exitDx=0;exitDy=0;" parent="1" source="jmmyd-2RqcsZahoPcaCm-111" target="jmmyd-2RqcsZahoPcaCm-148" edge="1">
          <mxGeometry relative="1" as="geometry">
            <Array as="points">
              <mxPoint x="712" y="964" />
            </Array>
            <mxPoint x="483" y="1028" as="sourcePoint" />
            <mxPoint x="890" y="870" as="targetPoint" />
          </mxGeometry>
        </mxCell>
        <mxCell id="gTkMBZEuTbGyAQk3MBeW-22" value="" style="shape=image;verticalLabelPosition=bottom;labelBackgroundColor=default;verticalAlign=top;aspect=fixed;imageAspect=0;image=data:image/png,iVBORw0KGgoAAAANSUhEUgAAAIwAAACXCAIAAABIsyQxAAAgAElEQVR4Ae19Z1hU19r2e33fOTnJMYnGWGNBqYIgvfdeBhjKwDDUGWYYpjCVqYiKDVFUVEBABUQB6b33XmfAir2DXZDij/fkzZvvW3vjhIMVjknA4DVXstmzZu29172fVZ51P/fzX78u/JvzLfBfc/4OF27w1wWQ5sFLsADSAkjzoAXmwS0uWNICSPOgBebBLS5Y0gJI86AF5sEtLljSAkjzoAXmwS0uWNK8BamhsWnrjp0cYfjC5zO2QCg/bHtExNDQ0C+//DKjV+PdlpR0KsWewPSLzV34fMYWcNt2VENHTyAQPHjw4H/+538+Had3gxSfdMp166Gw/tcLn8/YAuQCkZ6J+d69eyMiIm7fvv2vf/3rE3FaAOmPexGphX0Orqj/b0bh4eHR0dE3btz4RJw+ApJQPM5pe0oqvjDthRKIxoTi8bD+10LxuEA0Ou3bD/wp7JsQisdD256Etj7m974S9k18oPCMvhL0jtJrbjPq7s7oV39kYWphnxMK/csvvwwNDQkEgmPHjl2/fv2///u/P2pPHwGJ3zNCyOk2wPOmPgy/ZwSf3UUpuxLW/zqk6nrAmSaBaGxqgfcdC0SjIdU3vBNLXQ+cdTuYgY4rpFZcFfS+el/5GZ0PbXuCjEx1P3RuRr/6IwvDIMGQDA0N8fn8uLi469evf9SePgISt/OFV3zxCnkVgWiM0/FMIB4T9k2wGh8YBgmcI1PC+l+jYrLV3HCcjme8rpfASqAPr+ulQDTG7xnh974Ke2MrQvE4ve6OMTl8hZyynJmjMgIjpW2K3Hea3fKI1/WS2/Fc0AssEjY1btcLgWgUnBSNwtYmFI/zuoc57c943cPCvgmBeAy+Ylj/a173sEA0ymi4p+vHMCZtDet/LRCBbwXiT3p1/jCcpoL066+/Dg4O8vn8o0eP3rx58+eff/6APX0cJHR80TJpRXLJJc/YAnLpJV7XS373cFBuL7Xialj/a1r1TVx6C7t5yP90A6ftibBvgtv5Anu2hdX0EJQpvwr3imH9r7kdzz1j879Z8iPqSA6v62VY/2t+7yte9zCt9pb/6XrvxDJS8UW4F+W0PcGAPy94JZQQC/vByyEaYzY8wJ5t9jpeQswXC8RjrOZB35RauKfFprfQa2/T6+4AkIK38rpeUsqu+Kc1UMqv8ntGPmOP+h/COQ2kX3/9Fe73oqOj79y584H53ieAFFvwj2+/X6dmIKVjtmSttNfxEmr5VVWXABs+mP457TopbWAdmNkuZ4pwO5gpEI16nyjfbI/GprcYBHIQOxJg+wBw1twyIgqXy26eOoYxGx8Yk8IVLF026lsqWCJp1Tf5PSO4jNa/f/3PNSo6UtpmS6XkkZGptJpbhgTeek0jXT+6w7Y4bucL76Ty5bKKnPanYf2vpbRNXPadDqm8ruvHMCIK0bEFMka2m6xcpTSNA9Ia5o49vQ0SjFN4ePiOHTsGBwf/93//95329AkgxRX+sFaaWnk9tO2pMsLbkh2Fy2idBhKlbMCKc0DJzoPXPayJDrbhH6JV3wQ2N+VFppQPaPtQN9t5Th3AhH3jvK6XnPanrtHpqq5Yr/hiGKR/LPoOn90V2vpY25tqSt3hn1qv689QsvPAZbbze0Y+AJKqC9aSvU/FyQd1JFcLQzEiCkGXOzfWEu8E6Zdffrl//35kZKRAIBgaGpotSPHFy+WUQUfUN2EQyDEk8H2Ta6aBxG5+hMto+371enx21+rNWn6pdfye6U1Dq75pGMRfLqM0FTl285B9eKy6B0HRxk3BEul5LB8Cqe2fS1cwG+4L+ybM6bv1cRxseotvco2aK3aDrrkN79AHQJIzRah7ENaq6ev40jTRwdbc6DkO0q+//vrzzz/fvn37yJEjXC53cHDwbZw+xZKKftyowG4eEohGlew8HLbHE3K6p4HEaX9Gr7ktY2QnbWij7OBFKbsi7Jvg976aajSc9qfuh7O+WfKj897k0NbHwr5xet1d1/1ntL0p9uHH7LfFbnbwco1Oh0H6evFScullQe8rTXSwFWc/uewyu/URIafHiCiUNXWglF3xPVXz/cq1oW1P/FPrl8koOu9Ngbs7dXe8GX2XvLkTMV9MKbtCr70zl8ckCR7/+te/bty4ERcXx+Fw3sbpk0D6buUag0COhkeQMsILl9EaUnl9Gkjcjuec9qd2W4/949vvYQzC+l9bsiNdo9MlOAnEY6AdA5hrVPUUbdzVXHFqbjgL5h5lBEbe3EkLQ1a0dtPwJIa2PgZj0j+/1fEJ0fQkKjt6eyeVBxedtxXEqLlilew9Nb1InLYnlLIrKxVUNzt4aXmRv1u5Fhk5CZIBnudzslLNDaeBIujjQu3DYyWD4p/e6b2zu5uGU3x8PGxPU8enj4Ak6B0NqbzmuDPJK74IuS/VN7k6tO0Jt/OFX0otIbeH2/kCseO4giVSAIxmNKTyOiIikVZzCwbG52QVIbtbMruDp3Ok4ovIvSk2gkOOO5PcojPwWZ3eiWUu+89gEkq8jpd4HivgdDzDZbR9vXipW3S6S1Saz4kKVuMDdvOQX2odct9p1OHswHPtYX0TvK6XHkdzERGJXsdLkJGp5JJLnI5n2LPNgec6WM2D/qfrXfafcTuYObcmDkX9xnbOOyP3v++zbeceHJGkpavHFwqnTvY+AlIY5CCAXQPTHAT4rE67sCO6/gxz5h7JYujjb2vfRFjfBKftCVjlSHwW0PJLKB7n974Cy+fsrmXSiqzmQUHvqLAP+DXg9ZNANDrVLIR9E7wpE5OplwYLKbBQmz4uTi3zxx+zmwcxB9O99qd+4IOOSnbi7ze2sJ66cvoYSO+fF+GzOu3DYx13JRHzxZ/xgQWiMXrtHRv+IW7Xi89Y7TyqilF93cwO8fPPv7nJPw4S9FaOgne89xX0ak962/g9r7gdz3ndw5Lnh1eysGNCchJe/7OaBmE30tTz7zsGJtI9TCzom1r5+wp/eednAxKn/anPySrP2AJ0XKHPqarQ1sdh/a8Z9fd8k6tdobEkpPL6m/Hmglt0huv+M4GZ7Zz2Z5Lm43a98E2usWBFSs58+EAoHmfU3dX1Y9Brb3+45Bf57WxAIhVfWKuqJ6VjKmfioOaKJZdeFvZNICNTFW3cN+hZyFs4W7KjgJ+m8YGmF2mDrpm0gfVmBy98dpdk7hva9sRx1wlZEwfILzfG7XgORiPIp8frHgYuPugjGX4EojFy6eWlUnLEgj5ux/OpYyHslIMHmyl+wlFu53M+8OlNDmAC0Ri38wXsaRT2jU96AjufQ0u0yTJzFuBZgiRjaEvI6eaDYRz0dbzul5peJHPmHnbLI+e9KUp2nqzGh8FF5xf/JEWruc1peyptaIOKmXTQhfW/fgOSvaD3VUjlNb/kGqhBJ1hNg7j0FnxWJy6jjZDdze2cHIRgkH5YL4tJKMUklMKuB6F4nNvxnFxyKeBMIyGnm9X0EPSKXS99k6uJ+WKfExXY9BZW8yDc5ZJLLvml1pFLL/O6h3ldL3xOVRELxN4nynHprezmoRlMc94/JP9+GM8OpIvSBtb24XH02tuwsyC4oF/DIwgRkRjW/9rreImqKxYdV+R5LO8nFW1eN/CcangQbPmHQ6puwE8CgyRjbEetuKpk52EQyAlte8LvGdH0Im00sJYxsv1xo4IyAkOtuAaXh0H6dvnqnzZrbdC1WCajZCuMYbc8cj2QLq1vJWtsJ21go4EiCMRjlPKBpRvkV21SlzawXrlJ1U54RCAa9YzNB747azcpLWN/ANWlJWulVymqSxtar1TY4rAtbuqq4Pdr61nXPBuQWM2DiIhEDY+g5bKb7cNjWY0PvY6XaHgEuR5ID+t/7ZdSq+lJtGTvs+EdlLdAwkO9EVFoFCQIyuudCtJyOWXdAJaKow+387mwbyLgTJOSLcrzWB6v84UFc68GijANpO9XrvVNrglte2JEFBoS+KgjuabUHfqBHF7Xy8Bz7Ss3qZKKL5BLL/+wTtZp9ylmw30ND4JRsBCf3WXBilRx8vE4mqflTTUg8EhFFxb/tAG57zSz8YGaK9aEso3VPDjrFvwDfjgbkMDmbPtTZsN9xM5EWRP7oLxeYkGfhmeQ407YkopVXQLQcYWeR3PXqOrClqSOItjwD021JIft8V8t+m6FwhbnPcnwgOS0+6SaG9b/dH1Y34Q1N1rDM3gaSD+slw0u7Bf2TdgKY/QCWOb03XpYljUvOqz/Nan4grShteuBdFLxxZUKqgFnGoXicR3fEGPSVq/jxeoowlo1PW0fKnApcQ+Qii8ul92My2gTise1vEimITtYjQ/+gLae9SVmAxJ8MaF43P3QuTVbdAPPdXA7X2hhyBbMPaymh067TyrZeTDr7wUX9v+wTjqk+gareVDa0Nr9cJZkjAlte4LYmbRKScOKs3+tmh4uo5Xf+yogrVHe3AkRkeCXUqfi6AO6O2iWCE/ZyaWXl6zZgEtv5feMGOC5ZiER3ollJpRt+rhQfs9IYGb7SoUtpCJgSSsV1XAZbWH9r3V8aSbkcEJujzl9t7y5U3BhP7XiKr32DqXsygo5FXx2V1j/ay0M2Swk4gsEiVZzyyCQY4DnbrJyNaVsp1XfEvZNOO9NVnb0VrBwVrJFgdmdaIzZ+EATHaxg4axgiVRx9MZnd0q6fnhMkja0oZRdMSGHS+tb4bO7mI0PrDj7VV0CdHxDpA2s1dwCGfX34BcCHpOWrNmg7o7X8AhScfT2OJLLbhlCHcnZgvRTRwWquwfqYdm8rmFK2cA0kOi1t31OVqm5AcegbgDTVhhDKr745YPEbnnkdjDTJSoNFZNDLrnE7x6Bd/DQ8UWIiATU4Wxy6WWwTuoZIeT2OO5MQuxI8D9dH9r2RGLv/N5X5JJL3knlgt5RavmAS1QavfaOoHeUkN2Fjit0iUrbbO+phSFzO59LrDa09TFyXyo6rtDtYKb3iQpG3V1h3wSj/q7vqWp3QI4ogHtCTvtTj6N5TKj7wqa34LO7eN0v2c1DAWmNbtEZqMPZAWeaQlsfo47kwOMQ9mwzIad7jq+RZ9Pdgblv54tQaGtc0u7Q6nUU2tb7zT8GewokTrmphd8+5nePOO46YRoSYULZrodlu0SlCSBXHigJESXg5RHgOEjOT5KTxiTroberhc/MTd/d++522vnZgDStis/1J79nxO1gpiU7yi7sqHdSuaSv+1z1z9965hBI87cRf+87nw1IsINV2DcucfMAdwu0uTDtdsFubM8rSvkAp/0Zrfrm1GFpWsnZ/clueQQW1HOGszC7p/jor2YMkkAMpm2+p6op5QPwmMHvfYXP7iTmid7GQNg3wWx4YEQMI+T02PAP4dJbP3pDMyrgl1LrsOM4s2FOr3Jm9ETvLDxjkDgdz9wPnfv7N4t0/OjwBg+1fEBK2xQQdzIABjAJEh7bheJxStnACjkVdGyhnJmj64F0YIW9YJsDpjzye0aA67PrhVA8xS5FoIBklx3e3wN8xynGCnZ+e0cREYkqzr6UsoG3y7y50OSWyjsffr6cnA1IbofO/Z+//X2plBy7ZUjYN4HYkbBMWnGzPRqsNHtfhVTdwGd1Mhruw7zGaSBxO1+QSy6RSy8JRWOspofY9JaQqhteCSWM+nuwu5bXPUwpHyDk9oRU3YAdg4Ap3vo4IK0hpOoGTFbldQ8HF/YHF/Xb8A+pOPlQygaE4jF2yyNQpvom7Kvl974iFZ0n5ouD8kTBhf3zBY933udsQELHFa2QU/5+9TpMYhmv66UywktK21Q3gIlNb3Y9cFbe3FHBwlnezDHwXMdblnTWeU+yhgfBLTqD2/Hc/dC5f/6wfJ26AUR5lPNPred1vTSj7ZQxstmobyVngrDhHxL2TVDKLssYWqs4+axWUkcdzmI1DxoHC2WMbGUMbZZJK8qbOVHKrpCKL8gY2Sg7eq9SVPM4mstpf8qou6vi6LN0vaySLcrtYOY7H36+nJwVSPFFa7boangG6frR/VJqtyD9lew9jYKFrtHpJpTt6h4EZGSqlhfZkr1vGkjKCAxwlu9I4HY853Y8dzuYuUxGkVR0nlF/T8HSxZZ/2DupQt0dj9iRwGy4bxd2VMXJh1ggdo1Ol9I29T5Roe1N1Q/keMbmq7nhnPacYtbfs+YeUHbABJ7rcNl/ZoOuuXdSuRaGbBDICam8Tq+7s9keretHp5Rdlrij5gsq0+5zliBJaZt6HS9ZLqOkhaFYsqN0/QEv3pp3cAvSf4Ouha4/A+bOTQVpg57Ft8tXq7piA840hfVNAEs6nPWTijZMwNfxCTEiCq1C92t4BKHjCsL6X7sfzNzi7Ivcd9qYFL5cdjPMIDMN2WHFAWUwiWVhfRNgTHLy9U2uMQoOWy6nrA9YZgSzkAhazS163Z0tSD8rzv6pHOZpDz9f/pwlSNIG1qymhysVtixdL4uOK7Rg7TUmbXWNTtfHsZURGHxWR3BhP6365lSQZIztVd2wqi7+JuRttKobcHe3SlEd0CLFYwqWSEREAtiLcglA7jvN7xlB7EiA93Ndok4vk1YMzGwLyhNRyq6g44qUHTFu0RmspodmtJ2KNm6B5zqc9yYvl1OeLFM+wOseptfdkVAB5wsY77vPWYIkY2gjEI1ZMPZoYSjkkks2gkPGpK1+qXWow1nAj+nPMKXucNl/ZipIcmaOiB0Jbgcz1N3xFsw91Iprbgczv1+1zpgUrutH32zviT/XwWp6aMHep+FB0PVnAEow7yC383lw0fktSD9tH6phkMBu61F8VqdeAEvRxl0TTZIxslW0cSeVXCIWiKeUOcaov/eXBonf+4pSftX9cJawb4JaPkDMF3M7X+CzuwLONDLq7tJr72ASShARicjIVP/UOmHfRGjrY+c9yZTyAY8juaTiC6ymh95J5V7xxfTaO+6Hzv24cZP7wXMO2+MxCaWctqfCvgliYb/7oUzHnUkeR3NhRy2380VAWgMiItFxZxI6rojZ+ACb3oKISEREJDjvSUbHFYa2PuZ2Pvc/PVnGK74otPURt+M52GjP6nzf6zmPzs/Ykj76bLA/gt8DXOMf+HA7n6NjC6QNrCGvxL/FDAnFY1A0wG/8EFCneIzfPSJxrQp6R6cNNnAZeI7+gevOx68+P0if2Ar8nhFiQZ/9trhPLP9XLjZLkOBQ5He+tlBgM9g74Ha+IJVckrz7s2hlfu8os+F+UJ6IXAI2qP6ynxmDBK//sektHsfyMYlltJpbcAwl3PkAkn7VjaDcXrDgL76oF8B6H/0a6hVBHOsHmp5ecxuagm9F7Ej4QLEv/qsZg8TpeIaOK1ytpLEF6bdB18L1wFl63R3s2WZK2QC/9xU0TTil7RPC6x72T61fvGYDHGw86XmDQpG5nS8g19woreaWz6lqXjeIN4Yd6hA9/xVsfALxmNfxYnlzR8fdJwPONH/xSHzgAWcMEqXsihFRqO4eONnX9U0EnmuX0jY1IgpJJZc47U9pNTeJ+eIpIL1gNw8FnmtnNT1kNT7Enm3xOVlJKR9gNj6wDTuyVEou4Ewjq3kIZjoSC/oIuT0wnY/dMmTDP7Rqk7p3Ujmz8eEHnuGL/2rGILGaHjpsi/9u5RrHnUn87uGwvgnHXSeWy26W0jZx2n0quOiCrTBms4PXbyB1vtDyImn7UANON6i54WSN7HR86a4HzpKKLmh4BH2z5EctDDkoT8TvHlF3x0sbWG/QMZc3c3KLzgzK61V3C/x2+WptbwqIQFoYkz49qgKIL9TeseYcWLJ2o4KFM+BJVV6TNba3D4/ldr5gNQ3aCA5vtkfDIH23Yo1RcJiSnSchuzuk8roywksTHYzP7uJ2veCCLY/MFfIqkBDKKDa9Rc7M0TupnNX4UB/HNiIK6LW3kftS12kYUSuvffHbeh9+BWdsSfCOEbzvJ6VtZoDnEXK65c0cnfacCut/zW55JAHJL6X2b9/8c8maDRbMvcyG+/zeV6iYbCV7TwULpEvUGV73S3RswapNavD9OWw/ruLkQ8jpDut/bRUapetHDzzX4X4wU0rbjNU89OFn+OK/nTFI8OxAIAZBCto+ISpOPoGZ7bImDg47jgtEYFPnN5BS6xYtW2XNjd6ga+5xNI/VPMhsfBBwukEdRVBHEWjVt9DxRctlJ0PP/VJqZU3sA9Ia+d3DBniuQSCHXnt7AST4/ZsxSLTqm9a8aDU3nCGBLw+54+h1d3R8acoOXm4HMyllAxKQwOzuJ6mQqhsWjD1KtiiH7fFmtJ0gXNnG3Zi0ldP+FJfRtl7L2ADPoZRdYTUN6gYwNb2CdXxp6ii864F0fu8rGCR2y4IlzTDSj90yhEkoteEfQkQkuESlhVTfFPSO4tJbkZEp/qcbWE0PCTndXseLQQxlzW3HXSfglZNLVJpfSh0qJttxZ5LrgXTQrfVNsJoHUTE5TrtOMOrvCcVjgVkdrgfOOu85BS+/wvpfk0suuR/KmuPMxT+gs52xJQE2gXhStETCFoL5qkBd64240ztvXdgHApX/LRQZqgrUA/0Q2nGfXDO9s4a/5snZgPTXbKk/8alnCRLsHHqn726mDwN7wckll/6Tbk0gHmM3DxFyuoML+j/qgJ/pHf7p5WcMklA8DvFyGlFHctDxxUBF6z/jJgrF48z6+waBXFr1zXc2x6TeXQcINHtnATD1b33sdjDTkCiw4R9itzx6X7F5en7GIHHan6FjC1Zv1lR1CZDWt3KLzmC3PILUBkdBOCrEjhP0jsJRxHCjQEHFQDpAQsbjdQ+DApDmIIihLLuyTFqRmC+GrQpiPYwD7a0OKPAY0rLzjC0IbX0sUSQE5D2IswePkUF5IiltE4ft8b7JNR922s5HnGYMEqV8wIgYpuaGm5RpBERioFhCzBdjz7YEpDVSK68HF533PlFBrbgGb8RRK65iEssCzjQxGx8IAN1uEJfZ5p1YTiq+IBCP/QZSnii05REhp5tWfRO4+zI7MAmlxII+QMeMyf77Pxd5xubT6+7we0c5Hc9IxRcCszqo5Ve5nS84Hc9QMdnfLlvlcTSPVntnKqtyPkLy9j3PGCRW06DD9uPfrfjJMSIR9t3Rqm/BocjrtUzWbNFZtUlto56FlLbpKiUNgQgEl0sb2qg4+fy4Qd6Gd5BaDnTwZAxt5Ewd1mkYhlRemwqSCWWbpicRHVtgHBy2Tt1AxyfEVhjDbLhvQOD9379/pYzA+KXWcdqfGQeHwZeQMbSFojyvG+C5X/3zWxUnb7+U2gVLAvNvRt1dG97BxT9JyZkhoBjHazJGtqYhEZSyy8akMGlDm8Bz7X4ptcvllClllwW9o+yWR+yWIV1/pjFpa1CeCLj4msFia7M9GhWTLQFJC0NWcfL1Tiyj19w2wIVusnbDnm0G+xog2rLtq2+/p1ZchXjnQLbNeW8Ku+WRrTBmC9I/pOo69mzz4tVSlPKr79MWevv1nEdnZmxJb0RnHvql1klpm+kHcrBnW+QtnJ12n+L3vjJn7FGy8+B2PMNnda5UVCMVnafX3tbxo+v40TbomOn6M/xP17vuP6OBJqo4+0gbWLseOAuD9P2qdUCeDc8ll1wSiEaB4KBboLS+lQ3/kKB3lJgn+se338ORra4HMtRRBExCaVj/a9cDZ1Vd/H2TawjZXUvWbGA2PvhoNNk8wkZyqzMGCfjuWh4D313XCx0fmoqjj29ytYKlC3LfaaF4HKjVOXjxe17hszpXKakT88W2ghgVZ2Afmp5EXT+6NS9aH8c2Z+x22XdawRIJXBLQxGGplJwxaau8uZPD9nh63R12yyN8VpcRUShjbBdSdSO48Pzfvv6GVntL2DcemNmu4uQL/Ebdw/Zbj6k4+VArri2ABFTyJGkQQqpugPBjpJ9BIEfOFIHYmUjI7XkPSBrBBX3uh86tUzfQRBM1PIJkje30sGwtL5KssZ0OxLVTsvPktD+DZ3f+p+sdtserOHpbMPfCNFVlBEYdhee0AWL3mi06mmhiYGY7s/GBBXOvOgqv7U3R8AiyCzsKz1wWLOk3kNgtj7yTyu3CjjjtOuEWnU6rvhXa+tgrvphUfFHYN4HP6vBOLBNCMUxgdt48xKi747w32XX/Ge+kcpeoM77JNb6nqp12n/Q8lud1vMRl32le93Bo62OXqDRW8yCj7q5nbIHPiQpMQqnT7pOuB9KxZ5vD+ib43SPouCKnXSfgTfrgovMeR3KQkSle8cXUcqBzzWx84Lw3eXLC+cVtD864u5v03XUDweEPrC4l/Sk0hoFQZDAdB2Q5kC0BptUBzcH30PMgmgoILZLUA+sGgZUWtKQFgYVvmBGSMl/qwWxA+lLbYs4+14xBgj3ZsCKh5L+zINdNSnfCyoZvMhtMbSZ42Qsr18BW+ImGO7WSL+N4xiCxm4d8k2t8TlZ5HS/xii/2OVnpc6oKVuz+9BYBGhsVV2FNQ99T1dj0lrfpedzOFz4nq6y50bAzF5NY9r6+8dOvO09LzhikoNxeZQRGwQK5THrTD+uk5c2cFG1QAWmNAtGYoBe472CWJOwVhfOIQFlA/m2XiN0yZCs8sujHlYo2KCU7T11/Biw/CWsRwmkKQlsfO2yPl7dw5ve+IuaL1qobSDynfCBc+OqLXBK98zWaMUhwLaGtjw0JfE3PYCYk/yPsm+C0PyMVXcBltJFKLoI5hXg8tOWRz8lKcullr+PFpJKL3M4Xkv6K3TJkFx4rrW8luSdh3wQbOO56As+1Uyuv8bpeSkCCMjY98TlZCQEDwjTwWR2EnB7IEziDRE2Sa827g88DEhyrJK1vuVHPUsbQxpy+i9f10i+l9u/fLFqjorNey+SH9bLuh85JwiIhkI5t1LMEmtFgQALzPTVXrLSB1QZdczlThOuBsxKQgMJ+ZtuiH1eymh4KRKPa3uRN1q4QOYL76VK78w6YqTf8eUAKyhNpooPtt8Vx2p4470lWtHYjl1z0S6ldtHR5cNF5dssjdXe8OX03BRKGgphfQzaCw493meIAABsnSURBVF8t+u4nZa31mkbo2ALf5Bo5U4TvKSAFrw/lvyCXXJrs7qaAhE1vUbRxtxUeseLs1/GjexzNnfowX+rx5wEJFZOjiQ5GxWSH9b9GxxUqI7w8jxX4pdYvXr2e0/FM2DdhQt5mgOfCtDoYJLutx9ZpGFLKB6gVVzntT+3D47Y4+xJyegDvjrNf14/uc7LqbZCc9pxap2m02QGt5UUywHO9T5R/qcBMfa7PAxIhp0cdRUBEJPC7R5CRqQqWLsGF5/1S675b8RO99ragd1TNFWsrOCzZe317TPI/XS9rbBeQ1sDrHgZieoFcUtGFt0HCZ3dt0LWw23oUVhgMbf3SNmGnYiM5/jwgcTue2wpj1NxwmuhgDQ+CFWd/aNsTv5Tar7//QR/L1kQHg62glBoJi2ESJIPfJg6hbU/0cGx1FF4TTVR3x7sfzASkc3h2N6W743Y+N6PtVHcP1PammtEi/FJqJU/yBR/MEiQwmKe3+qfWSXbYyKWXgZ7g/jSv+GJK2RVe97Bfat23y1ajYnKQkakgCwik/gw3JSyXj44rnNqyhJwe1OFs1/1nfE9VgR3YnpHgwn5MQilQM2q4D1xzkHY/qfii57F8l6g0KFndXyK4bJYgTW1cyfEbpxysFD6MPdu8SlEdyBR+cmLST+Tdwd6KL2+bXNKS0w4+J0hTqxaIRmlVN2yFR6ZSIacWWDj+9BaYDUiA0wP53MDi9P00q0+/iU8pKbnoZBaTKQqf8M9hKVFiQR/sPYLd7Z9S89wvM2OQ4EQ5qJgcr/hi76QKwDt4a7sB2mgAGSgkzQcIXDNJ4zyt4WCPhmdsASax1Dup3P90PaN+eh5mgRiwz7V9aMyG+7zuYRyk/zWtnnn654xBAgSrw9lf/fNbWWO7lZtUjclbJZlYJiOcgZwdCG9GxxVxO5+DnMFQllhqxTVJ9g7g5YNS804SHwGEILUwoNJBOX2naesKRKPEAvE/f1gma+Kw2R6thSEDgSKgrQe8hfC2k0A0Glx0fsmajSDWs/6etk+IZyzQKJosNvcyAX/6GzMbkFBHcpZJb+L3jNgIDm/QNQ/K7QXKJ21PiAV92LPNwUXnKWVX7MKPLVmzwS+lhtn00C+ldoW8imXoPpDPA0rFHFx0PuBMI/DRgZTLbxL9xhcHnuuglA/4pzX4pdZNzZAoEI0G5YsXr14XXHgefrZJb2HxRezZZmK+mN3yaCpI/O7hwHPttBogWM7tfE4qvgAIgdBb8ulNM3dKzgqkmJwfpeRIxReVEd6GeF5I1Q2BaMycsUfawFra0FrWyE7NFaflRf568VItDJmQ22sN8b9kTR3cD2eByfSeU3ImDvJmjvJmjgFpjfiszq8Wfb9GVU/a0Galwpa1avpypg6rN2vqBbAk8zcJSITcHuBoh+RQHLbHSxtYyRjayBjY6AWw+b2vJJZEq74F0y4EojHkvlRZE3t5cyc5E3tcesvcafpPv5PZgOR+KOtv//h6hZzyoqUrUDE5nPanwHfnSXTYHs/tfI6MTAGBf9vjl8kown0avebWTyranrEF/N5RUvFFI6JQC0N2PXAWWpDuhEHyS6ll1N9dr2lkTA6nVlw1C4lQd8dLOlIYpK8X/7BcRnG1orola593UoV+IMecvpvbCTSEpLRNSMUX3waJXHrZmLRVw5PoFp2h7U01Z+z+9KaZOyVnAxIqJmeplCy1/KqtIGb1Zk1seov7oXNTfXdKtiijIMFyWSX4OZkN99ao6gKFuv7Xvsk1yo7eUjpm2t5UbW8qUN3K7lq0bBWt+qZANCqlbQqIsT0jlqFRGh5BtJpbcA0wSN+vWutzqiqk8jq7eQgdX6zjS3PcmRTW/xqb3qJg4eR+OOttkEDaCydfKW1TbR+qtjfFYX6q5MwKpCM5y2QUheJxTELZdyvWeBzNw2W0At/djgR+9zAyMkXOFOG06+RSKTlezzDYKGoeWq2s6RmbLxCPUSuu6mFZqi4BsPONVnMLn9317fLVIK2BeFxK29R59ymBaAyA5DkdpKljEqnogh4W8Pf4PSOYxLL1msbBRRfeBolaec0gkKPi5AsuV36V2TCZ/GLuWMmn3MlsQHI/nPWP7xarOHpvsnLZ7IAOyuvltD2xDTui6hqg4UFQR+GtOPsDM9vXa5loYcikogvcrhdbnP2UHbw8j+YxG+6hYnLU3HDqKIIBnouISHwnSFah+zU9idMsafFP6yUTB17XC+fIFFUXf/iKJuRwbgdQxoNnd5Ixid8z4nEsD76cfiDHadeJT2mUuVZmxiDxe19RK6467kpyiTrjdjADl9EKr4coZQNex0vcotMxiaWU8oHQ1seYhBKXqDRm/T2BeAyb3uIWnRGU08PregmlaKxxPZCOisnBZbSymgZdotLgfVt0XBEZ0owKyhMFpDVOTSjCbhlyPXCWDSV5hBuRVn3TO6ncLTrdK74IsP4g0WPX6HRO+1Nux3PvExWwXB6z4b5fSi10uWw4Zc9cw+Cj9zNjkD5QI/DdTeHCTTLl3nglJsOJYNYcnJp3Cq3uA9V+4Ks33sLflPHeWRheXL/NdXln4Tl48nOCNAcf78u4pQWQ5oGM3ixBgt05nPZnIBvzu6iNs3iFBb2jtOqbnPanM/otGIrankiyBb7vtwLRKKtpkFjQRym9Mpn7tPQSqfgiu+XRLJid77vK73R+NiAJRKOMujsBZxo9juZ5xRdB7s57Eu/ArG+U1TxkzY0OPNcxoxp43cPYsy2WrH0f/hWz4b7rgXSj4DC7rcf4vaM+J6vM6LvMGbs9juRI5pAfruFP/HbGIEEqXbdNQ3YsWSe9Qc9CwcJ5laK6y/60UMgCQDaRXqAqCJsa8KhCchrA2iB6PrQBCMZ5mDkMsScnMwqHVN2QMbZzP5wFu0SnlgTcZrgqQL78N54lp/2pS1SalI4ZuGLfOJyoIgxMTKC0JdCOhlA87pdcI2tij9iZ6H+6ntc9LG+GMKNFuESlqTj5OO9NhgGA73AOGtaMQYKjiBctW4U6kgO7nyf3lsRA7YRacTUot4fVPCgQjXLanmDPNjPq7sKzYWbjA1xmOz6nG6i1Q37P4KLzmIQyUhEIbxb2TUhAAimXyq4E5YlgsUIg59rxLOBME6P+rl9yDbw3L9nH+g0k8Ti7eQib3sLrfMHrHiaVXArKFzHq7sKKVYgdCctllLwTyxn190nFFxevlrLhHwouOA9rIELTv1F67Z3Acx1MOBXKH7VP9ikGOmOQqJXXDAm8lYpqkjcaeoUnhOJxh+3xCpZIOTOEMgITmNnmn1r/zZIf12saSxvarFbSkNI2hT2nZvRdoW1P3A+d26hvpeLku2TtRlLxRViCCFjSoUxb4eFNVi6yJvZqrgHEfDFMjvz6+x/WquqBPMwKWzDHS94GidX0UNkRo4dlMRvu6/iEgDTO+lZAtm1fWnDReS0v8qKlKzS9SAFnGu23xUK7HkCjT8HSxX5bnLBvHB2bL2/uuMnaTdrAGpfRKiHbfkoj/t5lZgwSqfiCtjdF2dFbcmes5kFYB18fF6rrz0BEJGp5U6y50YAttHip/+l6SvmVlQpbzOi7govO6/ozdP0ZjPp73M7n9Lo7+OwuaUMb5z3J3M4XsCWZ03fr+NH1Azn22+K0vamAJtYzgsto/dtX33gezQ+purFRz8JxZ6JkfgFb0jIZJWPSVkVbFL36FjajdZOVm8fRPEbdXSOiUA/LptXcdD+ctXqzJhliyHDan/6wTgYVkx1ceF4Z4W239VhI1XULVuQWZz/XA2c10cGmIREwH13yjH/uwYxBopQP6OHYa7boSNJSqbsHuh3MRB3OVrLzkDW21/Wj6/jSHLbH+6XWfb9qHVDI6B1duUnNLTqd3zNiTNqq68+glF3xTa7WwlC0fag/KWtBqpPPYZA0PII2WbnKmTnq+NF1/eguUSBvBS6j7Zsly+DkFyBh8I7jEsYdp/2p896Ur779fqXCFrvwWH7PiNOuk1uQfnDGLVthjBaGgsto9YovXrNFV5I+e6mUHFCaqLym4uRrt/UYLqNNHUVYr2WsF8DS8iJZ86J/S8w5B+IGZwwSu+WR897k71YCvyoc/rhR38Jhezw2vUXDIwiod57rCC7oA3t3EjVj8fiqTWoeR3IFojFjUrheANPnRKUpZbuuP8MroWSjnoUVZz+n4xkMkhl9l6pLgK4fHc5KAnO7JFzwsP7XChYg9chUkJD7QMYRc8bu9ZpGuPQWnxOVCpZIn5NV/O5hU+p2HV8arfrmh0EKqbxuTApXsEAGnmsn5otDKoFMyJ9rPVOvPmOQBKJRUtEFTXTwRj0LdXe8cfDW5XKbHXcmMuruOu05pe6OB85p+m7XA+nvBokMQApIazCl7tigY2ZI4Ks4+mzQMaNV36RWXpMxtkPuS0XsSFBHEfSBk3sPOrYAHpNgwv47QXKJSlunYUQpu2IQGLrJytX3VLWOH10LQ9YLYGp4EJz3JPN7Rt4FUqXEknjdw+j4IjVXrK4/04S63XkvlI59DtgQDNWMQQrrf83rHibk9tgJj5jTd9tvi7MPP0bMF/F7RkIqr3vGFiB2JCD3nfY/3UCrvuWw/bigF8ywnfckk0svC8XjAWmNvsk1zIb7uIxWu7CjrvvPYBLLrHkHWc1D0Gwii1RykVpx1eNoHmIHED3EZbQKRGOMurt2W4/BREyPI7lBub0SMizMoXQ9kC4QjZJLLtlvi6OWX8Wmt7hEpTlGJKLjCkOgBOqU8gEoiHpSKx4RkRhSeT207Qk6vghOgs6ov4dJLEPsOO6055TPyco5Ffw0G5AAvFAK5dDWx5z2p1PHWBDEAqSZfgtInmq2U48h3ygIeoGpWNO6l8l6/gMPLAhqm+LtnXrp9x3DE3E4S/j7yvwp52cL0pzpCv6UVvuDL/qngQTF7z2lVgAVhqkfRt2dv04I39QH/8DxnwYSD7CuOkxDIqbdnPPeZM9j+XAI7bSv/rJ/zhKkyYEEcsdJuv7JLL/i8UknGDRuAXowpFQI6MHiMYlfDriXDmev2aIraXp4V1ATQzaj72LUAYIqSGwFuewkZSQHAtEYr/vlpAaiaAweBSV3BXOSYeFCiJEJ5tPw1h+3E5JHnEszbMlDve9gxiDBj8pqGvQH/MXbuPRWsEEOmKQvScUXgnJ7WU0PmY0P8FmdvC4QycwHjN9WkAYpX8xsBPmvQ6qAamFo62MYJNirxOl4FpjZRi0fUHPDmdF2Ap9bzyta1Y3AzHZ63d2pFGV4w5dSPuCXWodNb2U2PmDU3yXk9sJSLQFpjZy2J/zu4aC83uDC87jMNnx2FxxoDdIMlw6gYwuBf6/7I4nS3tdef8r5WYA0HlzYv17TWMbQdoOe+TdLfnSJSmO3PLJk7VWwREob2qijAh13nVC0RaHjiwSiMUxiqYIl0vNYvpKdh8eRnLD+15ahUWpuOHrNbQlIAtGoorWrrLHdRj2L71auNQwS0GvvoGKy5UwdQJ2QM03SOkLxuAk5fI2qnpwpwoy2yyuh1GnPKQULZ1j2+ruVa3AZbdSKq7LG9ss2blqnYbRKUV0THQwlGyz9cYO8ji9N15/BnlepFWYMEqt5EBl5GqQwbXzAbLi/Zouu64H0gLRGTXSwUXCYffgxbZ8QE8o2M9ouDU8ir3t4C9LfVhjjn1qvaOMGB9VasiJVXQIkIAl6RwPONG7Qs8RltDEb7qu6BJhSI3Dpreb03aquAcCZ5kUyo+2UgETI7VWwRNqFHWE1PoQFvJx2n5Q3c4RB+nbZKlxGKwSSnQUrMqTqBmJnkro7Hh1b4HEk98cNcp5xhWwoE5Ckwrl/MGOQqBXXTEMi1NwDgR+6b2K9lolbdAYy8rScGcimreMTouvPdN6b7BVfvHKTKiGn+8eNmwg5PUF5ve8Didf10pp3UBmBAQo1fRNaGLIZbZfH0Tw1t8D12ia6/gwtDNlWcFjSlG4HzynZe6KO5MCOcFbz4DtBkrdwdt4DHAfo+CJtDAUZmUqtuGoYxF+zRVfHO+QLtyRm4wPEjoT1Wibk0kuYhNIla6WRUWkBZ5s3O3jBGWBIxRcY9XeJ+WJpQxt5C6fN9p6Mhnvk0stypg5u0enkkkvq7oHKjt4SS+L3jLhFZ2zQNScWiOm1t5XsPIxJW3EZrUZEoaKNOz67E8orfEMCEkgyY+FsF34MZoGxmx857T61Qdec1z2MSSj9atF32PQWasVVOTNH+21xvK4XLlGnNT2JAWcaOR3PyKWXkZGpi3+SgoRy5s2wNGNLAgqAOT3q7oHqHgRj0tbFq9ejYrKZjQ/sth5TRxF0/Zlm9F1e8UWMhvvmjN1fL14Ka2xwOp6pueIULJFaGMp6TWMVRx8JSIDWWnlNwdJFGeGlhaGsUtIwJofDHiY1N5yOL82YHO68Z3LzNKz/NafjmQVzj4qjt6Yn0Sp0P/Zss3dS+ZotOhoeQTo+tL9/swgGScbYbpOVqz4uVM0NZxUaFVJ53SuhRMOTqO1NXaOqC+1gganmvPjMGKQwkN/3CeZ4CTISeEKXSsnCgjKU8gHPY/mOQKkwA5/dCbvUYC1ieEPaL6XWYftx5L7TyH2nQepf6L12PXAWdsZgEkvtth5DRqY67TqBPdvC7XzBqL/nnVTuuOsEMvL0tChzUvFFt+gMh+3xHkdzKeUDjLq7yH2nbcOOomML7cKOMOruhlTdkDNz1PVnICNT3Q5mEAv6uJ0vCLk9DjuOO+0+5XEsD2izzJ9Z+IxBEorHaVU3LNn7bAQxZrRd6ig8qfgC7I6EVNZABNn7Xk843+J7v31rSTTpTHsrkhBeQoEAGGjh9UYncVhSM732toqTr9vBTODBE01aDES7gDIKzx944CeaMUgC8XhI5XXTkAgjotBGcBiX2S5RDJK00Z9+ENr2xCXqDKyv8qffzH9+AzMG6T+/5DtrgMgnA5Iw23eW+cuenCsgMRsfmFJ3BBf9Fm0JR+D+ZYGZ+uAzBgkEHneDqCP4I0kTwu95BfToYEFc4FgD6oTQLHkcPgYUO2gDEHKjQflCOp9LVB6oFdfWqur7JtcAT1LPCAh0LbqAzWiV1A97g97JlgXUvu5hSPoQsPt4b/LYT4oJwBy8nhE4zQl82/AwBpJ0/mdh8VOb8vc7njFI7OYhXGYbF0qUw+sCkfihbU+4Hc+C8kSw447fMwLxW5vIJZf8Umq4nc8DzjSRSy76ptTA2UFAcp/Wx/jsLkxCaXBBP0wNk4DEaXtCzBf5Jdfo+TNlDG3wWR2hbU/e5ANqIJdeBrJfb0QcYETptXew6S1ex0totbdDoVSBoW2Aqxxc2E8pH+D3DNOqbmDTW4ILz4O8wjCtTjxOr7nte6raN7mGXnvn92vfz1LzjEHCpbcqWLp4xuaDSL/EMgVLl6DcXgM8V8ESKaVjquNLw2d1OO468c3ipevUDY2Dw0jFF35YK71CXmWduuEyaUXL0Cha9U1ERMJGPctN1q7L5TZTywaEfRMSkKy50RoeBMMggby58w/rZY3J4eTSy6ymBxt0TDfbo1cpqjvtOsFqmkzgLOyb8E4sW69htEZVV9ub6n7oHAhe0zDEZ3WG9b/W8AgyoWynVd+04uxf9OPKNVt016rqL90gT624Rq+5JaVtqmSL0vGl+Z6q+ixN+ftVMmOQQiqvWzD2qLkHCnpHVV2xtsIYr4QSFSdfC1akDf+Qji8NsTPJcdeJVYrqxAIxp+0ppezK0vWygAVXf8+YHG4QyAnMbOd1vWA1DwakNSpYIl33nxGKx2GQ1Nxwqi5Y90NZjLq75vRdSnYenI5noW1PPGMLVitroeMK9QM5elh2UJ4IbhFazS1zxp5NVq6sJuDH43a9JGR3r/s3kLaBdJ5ckGeGWnE1uPC8tIG1064TxIK+tap6ZrSd5JJLb4uF/H7NPbuaZwwSr2vYO6liuezmoDzRctnNgec6kJGpG/UtFW1R2t4UfRzbdf8Z5z3JG3QtYFI4pWwAKtYu7Jtw2Bav58/0OJrneSxfwzNIzR23XtPIafdJGKQVClu+XfGTtg81KLeX0/7UMnSfCkTBZDU9NGfs/mG9rLZPiIYn0YSyjVR0AX5afFanXgBLx48Or0yFfeOEnHeAZMM/pGSLEoiA2peaC9aEso3Z+MBxZ5Kssf1mO0+fE5Wza7s/7FczBknYN0EqviANEiAhNtuj6bW3CTndcqYIC+beoDwRpfQyteKa896UjZAIrlA8Tikb+FF6k19KLb9nxJS63Zi0Fbk3xTCIbxQc5nEkR9bE3i7sKAzSTyraugFMJTuUFWc/peyKZWiUkp0Hv/cVt/M5Oq7wuxU/+SXXBBf0UStAYiu4gYAl0XcrWLqACBYoepBY0L9qkxouo42Q0y1jbGcUHAYlxj2oYOEc2vaEVn1zo54FKiY7tPUxo/6ez8lKeXMnc/puiU7yH9buM7rQjEEK63/Nanxoyd73j2+/d4vO4HY853Y+twyNUkfhdfzoZvRdHkdyp4H0w3oZ+Nstzr6u+88EZrYZEngb9S31ApjKCIyMkV1o2xNK+dW1qvoex/Kd9yarIv1t+Yftth6TMbK1BNsN1+k1t1WR/pqeRD0s25obLdHH5feMeCeVKzt4bUH66WFZUF7oIRlDGyVbDy0MZYW8ijEEkhX3wHI5ZQM8TxMdrOLkQ6u5RcjpNiDwQGoTE3vHnYkS1b4Ztd0fVng2IPF7XpGKL9qFHWVAQctw1l6Po3nOe5JRMdkgRWXReY+jefA0F7YkG/4hZGSKZ2xBSNUNTvtT7Nlmx51JqCM53knliAjQRjCFn1Zzi9lwH3O8xD+1nghljPGIyWE3D/J7XwVmtiP3pTrvTfE6XsxsuC9pIFbTQ58TlRDZLxWf3SUQjXkdL3HYftz9cBYyMgWX3sJsuG/NO7hey8T9cJbz3mT/1HqBaIxWc8vtYIbTnlOomGxK2cAc9+PNBiRJA009gNMjSNY98FdwP7ZOwygoTwSHKEnOQzNvQLrjd49MI91JqgXRTt3Db8YbELjxTsoD7OKbusUOCUlNRjtD0tXH1d3x8B1KKgd/9kzSLiQn5+bBZwPpnY8HSbIP2YfHwsSSd5b5vU/yul7Cmi2/94V+v/p/X5B+v/v+S9W8ANI82PdbAGkBpHmyPz3HO88FS1qwpAVL+hwtsGBJC5b0Od6jOT5g/AG396mWdCLltIm7r3kwf+Hzx7eAGY5p7+L+88//A9IyQ//+683Bv/3/6vXrBaVlWYUlC58/vgVyikqqamp/+eUXCSTvBkny9cLBXGiBBZDmAgofuYcFkD7SQHPh6/8H+V6huL4N8dwAAAAASUVORK5CYII=;" parent="1" vertex="1">
          <mxGeometry x="237" y="1185" width="140" height="151" as="geometry" />
        </mxCell>
        <mxCell id="gTkMBZEuTbGyAQk3MBeW-23" value="" style="shape=image;verticalLabelPosition=bottom;labelBackgroundColor=default;verticalAlign=top;aspect=fixed;imageAspect=0;image=data:image/png,iVBORw0KGgoAAAANSUhEUgAAAJMAAAAwCAIAAACaD98CAAANM0lEQVR4Ae2baVRTSRaA58/8mNM94+lunXZXRBSIsgpGUAiRLYQtQAgS1kBYs28viUgkgCsoiCACIoKKoyIgsqPsO0lsmxZRAQUCNoIgy4+WBuaEYExjBFQat3jqeOq9V6/q3vvVvVV1X/jHlPzfl2mBf3yZYsulnpKT+1InwQy5ycnJlgcP7t77VfDLPXlZYgvwBXe7u7tfvXr1XpNohtzExIQtEmVg47QH4SwvS2wBdT3DoGBOa2vr+Pj4wuG9IQeFWRHyH7AFY/KyxBaAYOnq2roHDx7s6OiYmJhYIDw5uU8/U03xnGMnTx06dIhGo3V1dcnJfXokC/RdMzwn5dKVp0+fRkVFkcnkBcKT+9ynB2yG56SmXxsfH29vb4+LiyMSiQuB91mQAxqHmI1DMmcoo36AxRuWPGI2vQQaBiWXc1SYjS9x+a2OpzLmaMPijdCq+wLzHlAqelj8UXFLoGGQ2SQakcUbARqHgCbZgs3R7fs+EpObmpp69epVW1tbfHw8iUTq6uqanJycI3LOT47FH2XUvyAUt8sUiMUfpVX3kUo7ZT5dyE1qZS+cE4eMvjarMYs/Sip9qudF98u6SyrtpNX00ar7HE7+z4ITN6ulzEtG3QA6sUDFDCnzKVswRizpsA5PVrN20XTwAlk4GZHCSaVdhJJ2I0Ko5+UqoGHI8VSGGTvKN+vuu3pYrPsSchJ4sbGxFAqlq6vrzz//fBc82eSAxiFCcZt/TjO5vJte+9wt5bYOOhCX30qv7afV9PnnNBOK2xn1L9iCMUqF0D4yHULg4oseUyp7CcXt4slLvP2EXtsPNAziix4H3PqNUiFkC8ZEM6Cojc0fFZXXm1gxD3RSAbXqGam0k1rVG5h7H2gYZPFHKRVCU+YJ99RSI2Ko/Yl0fOGjffE59ieuiN9lNom8il7bz+KPiO+Qy7rIZV3AtPvSa54jo6+vAu2QDCRdodf2I45fUjG118cC1uHnjIihCuC9cM4ZTHqNkiEcGX0dnViwC0M1BSIIJbKnrHRvH1mXJieG19HRERkZCQBAW1vbu855MsjRa/uRUVeNqUctgmNdk4sJxW0QAve75SstgmOx15tgwbGmjIg9fkEu54oYdQM+GTxtlM9KFU3r8HMu54oMcRxm40u2YAxKPuSWcgdxNFXcj/uFUrZgLDC3xZh2lNn4UhKa2IIxatUzm8MpDievomKz9LFMUyDCEMcxZ0ex+KPksi4IgQs7cHqtOni7FRoVm4U4lmZzOGXaHTstuWfNmCeNacd8MwWM+gHns7mwAzEmjAjHmBvksu65yfnnNIM9yFv32uAKHrJ4I+TSLm2U7yY9E+ezuUqGcAieuxvLNCKE+mX/8pFUFvL6LHJTU1Pj4+OdnZ1cLjcsLKy1tfWPP/542/NkkCPdeappj1E2RlgEx3qklRNLOoypR75fscrm0HlsBs+EEWEZEr/ZAAbBc3EFD/2yftFBB67etsP2aKrtkZSVyupiX1yrsQsWFKNq5qBq7mjBicNcrhaRy3tgCkTOIke83aHl6KPnxTAM5PxXaftuH5Y+lrliM4ha2RuQe38VSBtKCl+nqa9hj0GdztTzYmghsYy6AZdzhQpgKITAVdxtZr4/Gnu9acc+f20nPw07jK4L3u3CnbnJuZ4v0bDzBLuTxJYFGgbtjl/6z8q1yOjrCruMV2/X1UJi0YkFC7H7x7d5m9zU1NTExERvb29wcHBkZGRLS8vb8GSQo1QIDQOCNRAeVqGJftn3GPUv0Al5PylsZfFH6bX9Hmnlbim3NR289DA076v1tJo+c3aUsgmCXvPcKTZbmhyccwbsQdZ08LIOT/bPaX6XhhJyEFyIsjGCePuJTwbvx/WK/jnN/jnNq0DaqNOZW/faWIbEk8u6IfgQLSSWWNJhCkSu1dSzPXJBB43T86JbhSZuNbbV82YYEUN3uhHtI9PnJueSVKhhh9HHMl+TG0Kdzvp+xSpk1LUNOobLFVU17b3QCXniWfguyRfrvkxyYifr6ekJCgqKjo6+f//+LHgyyLF4I97XGnb7sBXAe/f47adWPUMn5P+4QYnZ9NLzYuU2uNMuT4qivqkOGoe5UkuveW7Ojtq614ZW/btT3M0Vm0GM+hfk0s5VIG3EsTSPtHI9L7oCGGpE4DLqX7D4oyzezJokUVtCDkoK17DzZAvGfDMFKzar+t+8JybnFJu1FWoD58SJguc0OXzhI8NAznJFVSNiKJQcbnM4xZKbsBEMVbN2hZLCYAdiPC9WSMgxecOUciHw1xAt9lEQDEWpEE4vqD36WOYa9Z1OZ24qGcINcQe1kFgddCAmvUa8m6VW9jKltrgS4RelMge5qakpoVC4f//+6OjolpYW6TVPBjlq9bPAvBav9JpdnlSQBQpX8NAt5c5PClu8rzUYBgSrmiPRifl6GJo4njDqBuCcM5sNYD4ZPOezeT+s2+R9rcEqNHHZ6vVwzhnfzLuY9BodNE4d4UEs6aBV/47NaGLxR6TXuXnJOZ/NUzVHQghcnxs8g4BgLSSWXtfvfPbWOi1972sN/jnN+MJHgXktatYupkCEb6YgMP8BpUI4Q05Vm1LZAw85SyhuE+/1xbamVfdZBJ3epGdiHZbke0PgFJu9XnuPQWCwe1q5kiHc8VSGS1Khmo2brgveL1s0gRDHL1KreheF09udmBEOnoxLaGvveFepqq5xdXfnHAx53NYmWfBkkMNea9R08F6jvnML1Np8/yk2fzQwrwVkgdqwY491WNIatZ0bdSHaTn6b9E3NWFGMugHX5GIVE8R2+D7Xc0WKu81+2qSy3RK9XEHFiMDdZrlvrQZ4K1QU69j8UffUstXbdMTOJ1GAdOcp2INsiDtoyjyh64JnC8b8su+t09IPuNUcmNuiAN7rebnahBGhuNtMtAR6M8DuZNGe/vYTCD5kjZruRjBU28kvMK8FGXUVBHNcv2MPCIayPXKBXtvvFJe9QRfimyn457++c00umhX6cPmtUGLY8k3KK5XVl63eqOngRSxp97/1Gwi+z+nMTbZgzPFUBsjCSc+LYXPo/PJNygG3fpPIvLgVK/ZJXZgd2MxqjqJpYAzS3nk6Ln4ucuJDKKNugFEn2veLC4s3QikXig6n9S+YTaLNIaNuAKifORQDDUPUymds/iiLP0qteiYJiSzeCKO2f5bJJH2+V4Ve85xR2y99nGDxR4HGIVrV75LhmLxh+lvD0Wufb9Q1wuU/kDR7M65Ii37R0aKmTzoMvGkwrT4mvWa7JZpRPzDr/hJfWgLHYxPPz0dumoG0MuIlSvT/X4tY+umbI2Jy0sFQ0vjjlRR3NYvcrP5nXYqnIKVC6BiTOX3se3OInJFnWhcmb3im89fTVFpaoHEoML/VJalI2hrSDZasviBySybN3z0Qiz/KbBqm1zyXnNbfd0SxZ9Nr+9/3xUVvvyByotzd60TidPpuUJI8BBpf4goeEm8/kY6BTN4wo0EUWkWWanzJEGVAZu8hF12Tb63D+cmRy7qgpHBTRgS+8BFbMOaf02wKRPpmCpi8EfcLpZoO3hoITxAMtdON5JpcDDQM0WueoxPzIfiQ6bWwB+xG3Bd/i1bd961Z9u/Wd35yuIKHyiZ2P29Vs+ImAo1DmPRqNRs31+QSQlHbFiMrbZSfZUg8LChGzcZtlycVc7maUtFjyU1QglhSyoXG1CNq1i5eV2qlPfLvVukb6X9B5NQRHj+sU9S0x3herBCTc07Ic4i6+u+f17gkFYp2lQ2DltwEFRN7WFCMmNz6HQZ20zlc56VKPXwjwCRqLojcTjciyMJpOj8E7IvPUbNxQ8VmGwQcWKMOFodQtmDM81KlqpmDPhaglAvhB88sW71hC8TSiBgKTGecJePJK4tlgQWSI5nQj8MOnFY2sdPzok/n6bP1scyNukb4osdiUbyv1oNgjnpedEq50CI47vsVqxTAUCg5XPSV8q0U12JJ/y33s1ByotxV1l19b2C5ourmPbB98bnWYUnLVq3HXK4WfSluHEIcS1M2QZjQj0uipe2RC2vUdBFHU6mVvZ/89PP1MX4Pciz+CDqpYK3Grh/WK7oml+DyW39W1jDwD3JPLXNLubPDOUDTwRudVCjZoVAre00Yx1eqaDqduUmrnisr8fWZdQk0mp8cvujxHv8DNodTRJ89K3utD51fp7Xb81IlkzfsHJ+7TlN/NUj7xw1KSoZwVEwG0DBIrey1PZq23dpV9NW7bkAHjVOCWPre4Mtj5uLinJ/cPOPxRwlFjyll3ZKj+jztZaWU5K98gAUWgRyLNyKdnPwAIeSvfIAFPpqc3Ic+kQXk5D79T2M/wOHYgjE5OTm5TxQ0PmzCfgVvyX1O7nNyn1taC8h9Tu5zSzvjvoKF6iNVkPuc3OfkPre0FpjL53A5vwINg/LyeVoATj8i+/eWtkiUFsRc3VBePlML6EJh51Ivzv6l7OTkZO+zZ13dwk55+Vwt0C3sGR4emU1Oci2vfCkWmPmLkC9FXLmcEgvIyUlM8YVV/g/H5UJgIsuy1wAAAABJRU5ErkJggg==;" parent="1" vertex="1">
          <mxGeometry x="399" y="1270" width="147" height="48" as="geometry" />
        </mxCell>
        <mxCell id="gTkMBZEuTbGyAQk3MBeW-24" value="" style="shape=image;verticalLabelPosition=bottom;labelBackgroundColor=default;verticalAlign=top;aspect=fixed;imageAspect=0;image=data:image/png,iVBORw0KGgoAAAANSUhEUgAAAJgAAABICAIAAACFnqtZAAAgAElEQVR4Ae2dB1QbV7qA33m7bzebbJw4dtwbDr13U0wvpncJNYQKEkiggrpwx7ji4IbpxVTTMb13BJKQRNx7B5tqU8/u2c3G74yGKMTYJtUli88czmjmzm3f/W/5739//8+LpX9/iBr4nz9EKZYK8eIHkNeuXyeSIxAY/NL1zmsgEBn09YkTw8PDP72F/gBS1Cex9UMQ87uWrndeAzvIfGs7+6NHj/50lj+AFIr7bKHYqP7Zpeud10DAgURkMDY2Nvans1wC+T42XOjBlH0xh6VS6ZEjR2JjY0dGRhbtY18Bki+b4QjHcfkCZvfQ/LbJl07x+iaj+mf5shmu+DlfNjP/7fx7vnSa0fkEk9v5hjBR/bM8ySS1+T4iuQad2cLuHWN2PcXmdaPSG8Nrr/MkQEIvXRzRs5BCUWTHwEvP/3g/oQdTDh+P+8c//tHf379///4TJ06Mjo7+5z//eQPOV4OkNd83QYSHVVxS1BFX/DykWAxLqIzqn2V2D7nuOsMWjr2OExC4SGzgj+dJphQxLLyJ7Bhw3XXGirTLdXc8o3MQcqrEjh7jwDjkuvN0cHb7wvD01ocWeA7ufM/CV3+wJyDIFy9e/POf/7x8+TKbzT579uzQ0NC33377OpavBkmuubZGwyA4u53R+QQExuoZCThRZEvZH9U/S22+p2ztyuh8wux6yuub4Mtm+LIZdu8YRzjOET1nCUY4wnFkWv0Xm1V4kkm+dIrZ/ZTbNxElm+GInrEEI1zxc7k4ToUUi9fpmHhEpwRnt0d2DOh4ICxDOAFxBTYR+9z3J4FseJIpRucTrjyViLqbm01toWfKmF1P2b2jimbEk0yxBMOKJ3zpNKtnhCMaZ3YPsQTDPOlcY+JJf4hK3q9Ms3tGOcJxlmCY2T2kCPY+tAkFyBcvXvzrX/+6ceMGgUBIT08fHBz897///UqWrwW5Wk3XfW+i3/E8WEJFRN1NjnCMWCZFptZF9c+yuoc9olM4wvHAM+WkystyPMOYnA5CcR+p8jIqrYHdOzoHsm+SWCpFJFfTWx9G1N1ApTcGnr2AzmqlNNxhdQ/5xeb+7fMVXgfTyTXX8IXCddrGpihKUGYLMrUem9fNl82wuoew+d3QUyVBmc2MzsHw2uubjK0dWcf84wqgZ8pI1Vd5kkmmPEzgmTJ4UhWxTMbtm2D3jsISKuGJVZDTJZCTRWEVF4GoekZw5wWQU8WojMbI9sc86RRHOIZIqYWdrYCeKQs4UUAslUa9frB4y3Tng3zx4sW33357//59LBablZU1MDDwSpavBblii+oWU1tNF+h63W22lP2kqivOvDgt18Co/llyzbX/+/jvtJYHul5BDszDEfW3grPbzLFMr5h02NkLVqFRrO4hZFr98k3K1MY7+r5Yq7CdoWX924l8dUdfHU+khpO/HTWa0nDbnn7wL598aoqiYHI6/I7nrfxKU8XW3XV3vJ4vxjKEy+2bCMpo3GrhZOCPX69rCjlZFFr+zXod040Glpo7IBsNt5tjmJSGO8jU+q0WTrreQVqugaq2npSGOxH1t5TMHNZpG2u6QDeb2Jih6RzhOCanfau5gyGEsE7b2O94HrN7iNp0V83ee426vuYOiJKZg4E/jtc38ZaBvS65l0C+ePHiu+++u3//PgaDycrKGhwcXNjHvhbkyq804EnVXPFzR9ZRs+BIWELlQpB+sfmarlBMTocD47A1eTehuA/MGdC1ptZ/umq9ETxMyw0WXnMdm9et54vxPZod1T/reSBVyxUaXnONWCpdtnoDve0RXzod1T+rZGbvGZMWUX/LHMO0DOFSG+868+JUbNzhSVUmyIhtwXR8Qe8GfXPfYzkc0TP3fYkmcLLP4Sxn3gldryCgn+gZ+WKTMjK1jlR5ecs2ewfG4cj2AQfGYV3voJAikevu+K2WzoiUWlMUZVswndJ4l9p0V9XOyypsJ731kdueBHVHH0rjndfV7Ft+vhAk2J2Ccpmenj40NPTS3Oe1INdoGGBzu/iyGc/o1G1omu/RnIUgmV1DG/TN3XbHa7vBdvBOgHPaqP5ZjnAckVL7p7/89aNln7vsPM3oGPQ+nGUIJcISKqL6ZwNOFOp5B8ETq94MklgqNYaTV6nqGPjjDfxxDozDIcXizSa2sIQKvmzG//h5UxTFmrTbIoSznciL6p9l945ttXB02Xk6pEikYuvheyyHL5tx4hw38Meh0htMUdSVyppgVPaRB+mtD6lNd7VcA932JvBlMx7RKVquUErDrbcM7HXJvQ7kd999d+/ePQKBEB8fPzo6On+wfC3IL1W04UlVHOG4NXm3VWgULr97IUieZMoMw9igb6Hh5IdIqubLZniSKW7fc1AiP1u3OeBk0SoVbd+j2Zjsdl3vIM8DqRzRuOuu01ouUFrz/TeDZHQOekSnbDKyojXdY3Y9ZfWMhNde32ho6Xssh9075sw9vg1ND8pocttzVsPZnyt+Tm99sGzNRkxOB7n6qhxkblT/rLMcZGh5v8+Rc+t0TKhNdxldT1g9I3zpNAjSfW9iVP+sHGTg+w8SHC+vX7/O4XBOnDgxf335WpCrVLTV7L3VHX20XKEBcQW0lgcLQfKl0/Ck6jWahlahO8F+yS82zxBKZH4/RjK7nnpGpyhts/M5km3POKTpClW189DxRHpGp/IkUwtBesWkK7pWnnSKUCIxCgxTtnbVcgvcTuTjC4UbDbcrW7lqOPlp7gjwikkHpjD5Al0ftKqdh5q917YgGjCrqr/1EkhKw62wCxeN4SRlK1dNV6glgUdrvv+BggTnsZcuXdq/f39sbKxCh/dqkJzesaD0RmxuJzqzGV/QG9n+mNs3EVF/K6RYzBGOhxSJPl21jtU9zJfNAKv43M7w2uvAAqN/ltJ4B18o5EkmGR2DwVltfNlMZMcAJqeD2nQ3ouEWLl+AzmwOKRLRWx+Coxo6swVcWkT1z+ILeqlN9ziiZ6TKy6SqK2AXHVZxKSizGZXeRCyVMrueBme1YnI60OdacfkCessDYNnTM0oslQZlNAVnt5FrAE0CoDcoEtFaHkT1z0bU3wot7+eInoHRyqNqJJZKwSeEEgnY/qhNdwklEo7o2ev6urf8PPBIhqs/LJRCf92FDSXb73C1srU/E38W7GBfARKYhQOd5CTQVUqnwJkIWBJyzTV7eowRlGiKigCWgz9zvs6XTgPXz/kKWKRKp7l9QGa+z9X0S7mSh5niyxaJ+fuogIXvWwbzc5Oj1t3AZTRg0+recAWnVLtRdvN37309yAW6MUU+6G2PAuPL/Y7lEkok8wErAizdvM0aQMbl79x34GeA5PZNhNdcn6+x+1nZBTpP+QJj4VeLqm0XfrL0RFEDPxsks3vI53CWy85Tiih++g1LMOx7LIfScHvhJzzpFL3lgdvueI5wfOHbpSeL1sBPAglM6NseybWpk5Htj63D9xjDSHIBmmB2D4NpzOlapYDSkt07xuoeBvWiHNEzetsjrhgYjeitD0xRlJBiMV82ze4dZfeOsnpGGJ1P5AuVSVLlJU0XCKjqZAmGwRkTRzgOaEFFgBaUIxyntz7kiid4kil622N279jrhHvRYv/xAiwCEtjGEj1DZ7X6xub6HssNq7hIa7kPguSKn5NrrkJOlYCVAoha4x1WzwgipRZ6uhRyqsQ3NheV1oBKa/A6lIlIrgX11wEniqhNdznC8aCMJsjJYmCUjc3FF/TwpFORbY88Y9I4omeMzieAUrceWJLj8gWo1Hp8odDnaDYiudYzJg2RXIvJ6fA+kgU5XUqTT1b/eFR+QYkWB0ltvmcIJZpjmet0TOzpB0PL+0GQzK6nfrF5m01swFRXKKkhUmrDa29o7AhYq2mk5Q77ytJ5jYa+tjtcxwOxfJMySzBMrrm+Qc8cld5Ia3mg54v5UkVb0wWqbOOm7ujLFoxg87s/WbE6sv0xsUymausBl2+TWZN26Xgi7ajRy9Zu0nSBaLnDlm9Q0nD2M4SErFBSg5wqfuVu5S+oiA/9k8VB8qRTzK6nkR0D5jiWZQgXmVq/KEhr8m5626MdUSc3GVmFXbhIqrz8+XolYpmUVHXlB5A+wSaIcFrz/YC4gi3b7EhVV94I8sAWMwdq0x1S1eX//dOfgzKaOKJnWy2c3PclMbuefOgMfpP8Lw6SUn9byw2mscN/va6pCSIckVL3Y5DW4B7kii1qiGRAInU8US47T/NlM6674pWtXbni56SqKyuU1IilPwJpFBhqTz8Y1T8LOVWibOVCqrz0Y5DusIRKvmzGirRLxwPpEHlY3cmPL5uJqLv5v3/+P3orsPxXtnHz2J+8BBJsB4uA5Ekm7agH9HzQ+IIeCxzLFEWBna0AQbIEI/5fF6xR1+dJJiEniz/+4kt4UvVvApJUdXXLNjvo6RJ8Qa+6k5+mC2QJ5KJSuwhIvnQakVKzTttY2dpNzxez2dTWJmLvdiIfmLVKp8Ed4I2G2/V8gj9athyRXPObgOSKn+v7Ydfrmak7+q7RMNR2g70SpIqNu0f0kkTOWTMtBlI2w+weCs5uw+Z2hpb3Y7I7wioukWuukSovy3eLRnH5AkRyLbFUij7XwugY5IiehZb3Uxvv8mUzgNKyuI8vneYIx7F5XaAtBb6gl9H1hCt+HlZ5KaL+ZlT/bGT7Y0JxH1s4xhIMB2e1gauOsIpLqIwmbF43Nq87tKw/ov4WsVQKTqGD0hvBxQyhpI/WfG9psvOTulYwEF86p73kSX6kbp2zopMb0Swq+z83wMK0fm4M/1XhF5HI/6q6+KALuwTyZYvZDxTnOwPJ7ZuMqLsZXnfjd6240PJ+euvD/4Zx9J2BZHYPeR/K9IxJ+11B2lL2IVPrWIKR3ySVOZPd92bPeX6hfipIUAXK6hnlSad40il2zyigExcBhwUAJapcx83seqo4PsCXTrN7xxgdg6CtsNxueIQvAyzk2L1jXPEEvfWRRQjHDMMAcwPoj7qHwB1sRf7AaSpbOAbOaUHNw1xy4ufM7iFwissVP2f3joK2zuC3gLlC9xCvb1LZxs0zOjWyfYAjGp8zhu6bVJgvg4YHQCaFc/p3jugZuxcoo9zmaJIlGJFbRQ+C5WIJhpGpdZjcTnbv2HtlxBzVP7sISLDuwmtvBGU2B5wowuR1RbYPUBpuI1Pr/OMKgrPaOKJnzO4h/7gCTG5nwIlCdFYrsNchtwVBptRBThbjzgMKcXrbI+jpMnCLCpXeSK6+Qmu+D4IEmzmxVApLqMTmC5hdTxV7GlzRc3xBLzyxGpXWADldElZxkSueYAmGA04UBme1IZKraS0PaC0PsHldyNQ6XL4A1KEDa5sLFwPPlOELejeb2HjsT6Y03sGd7wkt7wcMUBpuI5JrOeJnPMkUqeoKMq3eP64AXyRi9YzQWx9icjtQafVhFy6ye0Zozff94wpDikR+x/OCs9pYgmF8Qa+qnae+LwZf0MsUzG37KJrdu71ZHCRHOK7pAtlsamvgj3ffm4g73+O+L1HLNVDbDbbBwCK0TEYokXy0bPlmE1tVO89Vqrpuu89G1N20Ie/ZaGBpgWe770vkiJ4FZTSv3KoG2s4oW7m470uMqL8FguRJJgGLYQtHPZ/gNRr6kFPFrJ65npDe+tAEGfHFJmVla7ctZg5bzBzCa66Hln/z8fIvgchxLGKJxJayX8XGXcPJT83e24a8B9AIVl/ZZGyl7QZTd/T5ZOUa193x+EKhKYriyDwCagQ3GVnR2x7RWx9uMbHZbGprDCN5H8oIr73uwDis7uijau+l64VCn2uBJVb+9e+fbbVw0tjhv2KLavC5VsjJ4o2GlpuMtntEp1Cb7r1bci+lvhhI6TQqvXG1mh42twu0ygH7Uq54An2uRcs10PtQJqFE8vHnK0OKxTzJpNyylI9Ka5Dbkvtg87t5kqk3g6Q133fddUbZ2g2V3mCCjDBF02jN98Fc0lsfmqIoxnAySzCMyxdoyK3lQJDozGaO6Bm+UGQIIXhEp0T1z/oey1Gz9wIE6Ov8TSbWgPWUbEbZysVjf8pCkBH1tyCnSj5dtZ7WdA8sV0iR2AhGsiTyvQ5mmKIoDswjsITKv69cSyyV8iRTa7UM/Y7nURpu6fthQRXxS/X4zn8uApInmZKbeHsQvj8OAVg1HkjVdIGoO/luNrX1ikknlEiWrdkQUXcTMAJmx5pjGOhzLdh8gSGUuFbTyJq0+80gQy98YxpEXaWqYxQYauCPs6cfjGx/rABphmFY4Dl82QyxVGoEJcr30b75bP0WUtUV0DTZCBYWcLIoqn8WdvaCtjvcY3+KNXm3nm8waA8GKNajXwGSVHnZjnpAycwhsu0xCBJyqkTF1mOrhaMhlLANTfM8kApPql6xVR3QS8hmNhpaAiDrP1iQfNk0rqBnlYo2LLGSI3rGl04jU+q2oWmOrCOB8eVqDj4uO08TSiSfrFxNKO7jip+bICMcGIdIVVdYPSPk6muOzCObjK1JlZcxOZ1/X7mG1nw/KL1xtbqe6+54RdfK6Bj0jE7ZoGceXnuN1nKf0TGoOIBHb324DU0zQUaw5GpCNXsvZGpd6IVvPl+vRK65FtU/SyyTGQTg3fac5YqeecWkq9l7E0okHvtTNhiYM7ufkquvrtM1cduTQCiRGgWG2kTsjai7YUngrdMxoTQCB0U+WbGKUCLh9U3ypdPk6qv6fjjLEE5E/S1660N660NEUs3KrzTBJrXJcLv/8Xxq0z09X4x1+B6u5H05GaLoCRaRSGAmIhyzDOGq2nqoO/rYUQ/4Hc/fhqZtMrTU98dpucG2mjti87o++uwLXW+0lhtM2x0OT6oOu3DRkXlU3dFX3dHXEEpk94zSWh6s1TL6ytJZ3xf72brNbnvOKkDyJIDxsSGUoOHsr+eLsYnYR297pJBIUxRlrbaxvh9W0wVqgWdHdgzMB8kRjrvtjtfxRGi5QnW9g1yiTrF7xwglfVstnJTMHbQ9EMs3bnXfl0hreWBHi9louF1jR8BX21026JnR2x5Ftj82ghABE2dnPyfO8bCKSz5HssBSmCDD3fclLgTJ7HpqH3lQxcbNmXP8AxsjwQolV19FJFUHxpfh8gWUxjshReLA+HKg/8ztgp4uxReK/v7l2oCTRbCECkxOR2THAEswHFIkCoy/AOrTARvUvsmgjGb/uEL0uVZYQmV47XV27xixVEookYALEkKJBJZQCTtbgTsvUNhfARIZHKnrFYRMq0ck14RduAiuPeCJVezeUTBvlIbb6HMt8MTK4Ow2SuMdcA4cnN3uf/w8Kq1BntYNbt8EueoKLKECllAZlNEclNHEFT/nSabCLnwTGF8eGF8eUiRiCYZpLQ8wuZ2whApkan3ohW8AoUyuBVMJymiiNN7hSSbJ1dcQybW4fAG7Zy4DYIB3/ncRiVTkDzhrDpgpAwtBuW0xMHKAB9PDLnyzRsOA0nhXEQBUpvMkc8fTFZEoDMkVTxQ3ijnUfIvhyPbHNuF7banRfOm0or9VfKK4UeTnhyfAgfiXjY+B/Cw4xQ4+VCQKHllZGEwRM3hKHjii9J5ZNv9UkPNLMv8ecBHQMeB1KEOxZpj/9lfeA2cZs9sxuZ2/Mp7/hs9/LchfVkdc8QS56qrCwBV0GIEv6H0pNp5k8g2CuCDwFL31IXDY+PXW8W/zFaACW9AB/H4ZeDcgGZ1PXHfF+8cVgAUDHEYUiozhpPnl5AjH0ZnNigOz81+98p7dO4ZKa7Ai7Xrl27f8kCt6hi/oDc5qe2vpLgJyTmkpP8QzX2XMFQOOHsA1Fl86Dag9xc9BXSvoCYLVMwIcPZQPJMBQKjdxVpgU01oegMZX4DEBetsjRFL1yq80wZES8NrQN8noGLCPPORzNBsMw+4BtKnyxYn8EI9c7EDbZcDxhHCc2fXU62DGVgsnIHzfxJxF9feuRABD5+8VpDzJJEswDB4hAlwKAAUBPMBwhGNgGGCk7AN0gUCKnYN82TS3b4LRMQhkTF4VoEoW1D/P7zM4onEgGGB1Peh5INWJHQuCBKqoC/CCIZ9YAMbZgOOJnhG2cOy3Ir0ISJ50OjC+PKLuJhco2AgmBzD1iGwfwOZ1w5OqQ4rEgBsMuYErOrMFnlgVUX8TndmMSKqGJVYGxgPuIbjiCWb3EPpci++x3MAz5ZFtj/nS6e9BxjA6BnHnBUEZTXKQGnzZTFjFJWRqHaN9QH7YvwP06RBWcRFyuiQ4u803Nheb2wnWZnjtdblfnmZ4UjUmp4PWfN/rYIaSuSNLMIzObPGLzYMnVTO7h0CjE/S5FmRqXVjFRY5wPLL9MTyxCjjmLpthdj5BJNcAh5Yb76Azm5Gp9WEVl1iCkYi6G/5fnw/OaguML2f1jOALegNOFEFOlZCrr4IrnMD48qDMZv+v8/EFveC8j1x9FZXeAKqd6a0PCMV94DFvjnCMUCIJjC8PzukAMSNTahHJtciUurAL37wlkNy+CXVHX2deHK3lQVBmsymK4nP4nFdMmqqth6YLVNXWA5VWP6drNba2JPDQWa0azv6rVHVU7bw2G9tou8PDa67jzgtUbD0s8OzP1m6CnCxmCUZAkNakXQFxBfp+OLc98YikmhVK6pHtj/V80NsJvPDaG7Tm+wb+eEfmUWbXU2fu15+uWq9i7abu5Lt841ZGxwCrZ0TXB61m763pAlmloq3vhyOWybwOZmw2scXkdHy6er1ZcKQ1aRe18S5HNG5N2qXh7K9q62EICQkpFBJKJRrO/t6Hz/Gl09BTJTqeSExO+3YiT3NHgIqNu1FgaHB2m8/R7L99vkLF2s2efpBcfUXPF2OCCF+rZWRHjQ67cNGKtPuzdVtUbDxU7TzWaRtzxRPs3jHNHQFbzOwNIUSP/cnYvC7A1hBO5kkmced7lMzs9f1xgJ4vNo9YJlMyc1itrmcMC0OlN74lkDzplPehTHVnP0KpxDp8jy01GnKq2JLAM4QS/b8+b4KiWJF2gSAxOe1c8XNq0z1NF4gdLYbdOxp49oKuNxpyqgSwv5JvD2m6QByZRyiNd0CQW7bZ6fvjHJhHOL1j8KTqZWs2mqIomjsgwGEB2cyPQHKObzKyIldfpTTe+Xj5ipAiESK5Rs3eC6gI2YwtZb8JMmIOpLE1OrN52ZoN/nGFwEaKbBqXLwD1DO77kkxRFI/9ybSWBzu4cepOfty+CV2vINfd8dD4cl1vtB0txm1vgimK4rLzlM/R7FUqOpSG26C0yXfKxraHRlmGcJApdVZhu1TtvMJrb4QUib7YrEyquoxIqVutpovN6waXJXMnZOBkeutD931JSuaOQRlN29C0bWhacHa7kpnDDl7cS87EfiXRRbpWvmyG0TG4Wk3X50iWmoO354FURHKNtjt8o6GlIYRggiCDKrpPv9e1Upvu6XgiXaJO8WUzQRlNxnCyS9QpXD4gkXo+6NVquraU/ZSG24A7Fx/0Xz75VNXOE5XeyBGOwRIq//TXjz7+4kvAYUTnk5dAuuw8pe7oCx72X7Z2I76wdwcvTt8Xg8sXRMlm7KgHTFEUEORWCydG11NnXtzyjV+pO/iQq6/6xeZvtXT+avsOQ0iIGSYScrKI1zeJyxcsW7MBXyj8UlkLd17gcyRLydxR2drVEBJijmH4HM3yi83baGAJjqPUxrv6flhtD8RGAwtjOAmRXGtLiTYIwPOl04SSvlWqOqEX+p3YsSo2HgoHPQqQpKorZsGRK5U1jaBEA3+cHT0G6J9s3EH/FL8S3vzPFwfJl04bQokbDS01XSBBmc2UhtuWBJ6ebzCl4XZk22NGxwChVLJszUbwzA216Z6WG8w+8qDcO1aBrndQwIlCq7AofT8spfG2uqOvVdguoNtseWAIJep4BZkF07XdAvHne+BJ1Z+vV/I7nr9aTScgroDZPTRfIl12nlZ38gMcbTXd/WztJnxhb1Bms5K5I6jaVnPw0fPBEMv6wTGSLQRmHNiczuWblSGnS0KKxVpuMDvqAWrjncj2AXBXOaL+lqqd5zpdUz1vdET9zbDKSxo7AhwYh6mNdyPbB2itDwGQhttBzYYj66ieT3BwVqs5jmWCjAiML7elRhtCCFH9s4SSvtVqumEVF3HnBV8qa8ETq0CNNL3tEdi1Mrue+hzNXqNhEFF3g976kNH5JLz2hoqth19s3nwMv/5+EZBgAtDTpSu3atjRYqjN97h9E7CESn0/rIazvwEkxIkd+xJIjR0Bm4ytdT1RgIU4A3Ch5BGdvFJJTdcHre+P26BnhkproDTcAbTY4XuxuZ1maLqWK9QrJn3FVnXAs93u+K3mjtDTpaSqK4oxciFIRuegEztW2x1uFBi6xdTWBBFOrr7mdTBjg75FYHy5spWrlit0i5l9SJGIIxzzjE7R8URqukBMEOFgDTK7h9z3Jv75r3/zjytg9QCe1Nz3Jep4IDVdoCbICK+YtPkg4YlVG/XN1R199f2wSuaONuF7rUi754MkVV5i94xuJ/BUbNxU7TxtI/YFZTTNjZHSqbCKi0aBoWoO3rpeKGvSLmxe9zsDGdkxgEprUHh5YHQO4guFiKQaZGo9sUzGEgwjkmtABSm16Z62O9wcy0SlNwRlNIXXAnpOauMdYI6X0QS4IjxbAXh5EI4DPs6qrrB7x8IuXESfa42ou4lKa5CfoXyISm+kNNxm9YyEFInJ1VeBM9K114FetH+WI3qGSK4FBj/JFKFYHJTRFHCiSMPZ3xzLYAmGQb0rpeE2PBFwWwbYZPSMgr00JrcTnlQdlNkcXnsd9H5Hbb4HPVMGujADnephcjvgSdXozBZy9VVq0110VisokYzOJ8iUWlRaPb6gF5laH1IkDrtwMaRYDPpURKU3suULrfCaa8iUOlhCBb6gl9b6IKziEqhJ5gjHQ8v7Eck18MRqwJtGxwA2r4vadPfXS+H8GH6SRM7/ALyf00nKPX3Of0treWAMJ3seSAW0o9978AMDgw4awD2j+Z/8snuO8JkTO6auWLoAAAEBSURBVNYME2mGYZjjWNAzZQoDEXCt9pKu9Xsl6ps8VL4hDOhy4g0B5qoF0OYAxtwvFQrIknT6pSy9FOZX/vyFIF+XKqheIZbJXhfgt3rOFU9Az5S570v0PnwOcCjZ/sd33PrmqvuNQb45saW3v18NLIFcsjR/PzYZfr82/mHFvCSRSxK5JJHvUw0sSeSSRL5P7fHDGs9+j9wuSeSSRC5J5PtUA0sSuSSR71N7/D1GnQ8rziWJ/ENLpLhPYuMFCTicsXR9KDXgGsbdF3PoZQ/KDx4+PBZ3cs+hY0vXh1IDMce+rqmrfxkk+Hvp7wdaAz/8LwMfaAGWsg3WwBLIP0hL+H+xlnqlHHmQdgAAAABJRU5ErkJggg==;" parent="1" vertex="1">
          <mxGeometry x="551" y="384" width="152" height="72" as="geometry" />
        </mxCell>
        <mxCell id="wI-5nJ8JduiSq8wfKIq_-130" value="KwaliteitCheck" style="shape=table;startSize=24;container=1;collapsible=0;childLayout=tableLayout;fixedRows=1;rowLines=1;fontStyle=1;align=center;resizeLast=1;" parent="1" vertex="1">
          <mxGeometry x="18.399999999999984" y="1056" width="131" height="113" as="geometry" />
        </mxCell>
        <mxCell id="wI-5nJ8JduiSq8wfKIq_-131" style="shape=tableRow;horizontal=0;startSize=0;swimlaneHead=0;swimlaneBody=0;fillColor=none;collapsible=0;dropTarget=0;points=[[0,0.5],[1,0.5]];portConstraint=eastwest;top=0;left=0;right=0;bottom=0;" parent="wI-5nJ8JduiSq8wfKIq_-130" vertex="1">
          <mxGeometry y="24" width="131" height="22" as="geometry" />
        </mxCell>
        <mxCell id="wI-5nJ8JduiSq8wfKIq_-132" value="PK" style="shape=partialRectangle;connectable=0;fillColor=none;top=0;left=0;bottom=0;right=0;align=left;spacingLeft=2;overflow=hidden;fontSize=11;" parent="wI-5nJ8JduiSq8wfKIq_-131" vertex="1">
          <mxGeometry width="36" height="22" as="geometry">
            <mxRectangle width="36" height="22" as="alternateBounds" />
          </mxGeometry>
        </mxCell>
        <mxCell id="wI-5nJ8JduiSq8wfKIq_-133" value="KwaliteitCheck" style="shape=partialRectangle;connectable=0;fillColor=none;top=0;left=0;bottom=0;right=0;align=left;spacingLeft=2;overflow=hidden;fontSize=11;" parent="wI-5nJ8JduiSq8wfKIq_-131" vertex="1">
          <mxGeometry x="36" width="95" height="22" as="geometry">
            <mxRectangle width="95" height="22" as="alternateBounds" />
          </mxGeometry>
        </mxCell>
        <mxCell id="wI-5nJ8JduiSq8wfKIq_-135" style="shape=tableRow;horizontal=0;startSize=0;swimlaneHead=0;swimlaneBody=0;fillColor=none;collapsible=0;dropTarget=0;points=[[0,0.5],[1,0.5]];portConstraint=eastwest;top=0;left=0;right=0;bottom=0;" parent="wI-5nJ8JduiSq8wfKIq_-130" vertex="1">
          <mxGeometry y="46" width="131" height="22" as="geometry" />
        </mxCell>
        <mxCell id="wI-5nJ8JduiSq8wfKIq_-136" value="" style="shape=partialRectangle;connectable=0;fillColor=none;top=0;left=0;bottom=0;right=0;align=left;spacingLeft=2;overflow=hidden;fontSize=11;" parent="wI-5nJ8JduiSq8wfKIq_-135" vertex="1">
          <mxGeometry width="36" height="22" as="geometry">
            <mxRectangle width="36" height="22" as="alternateBounds" />
          </mxGeometry>
        </mxCell>
        <mxCell id="wI-5nJ8JduiSq8wfKIq_-137" value="ControleDatum" style="shape=partialRectangle;connectable=0;fillColor=none;top=0;left=0;bottom=0;right=0;align=left;spacingLeft=2;overflow=hidden;fontSize=11;" parent="wI-5nJ8JduiSq8wfKIq_-135" vertex="1">
          <mxGeometry x="36" width="95" height="22" as="geometry">
            <mxRectangle width="95" height="22" as="alternateBounds" />
          </mxGeometry>
        </mxCell>
        <mxCell id="wI-5nJ8JduiSq8wfKIq_-139" style="shape=tableRow;horizontal=0;startSize=0;swimlaneHead=0;swimlaneBody=0;fillColor=none;collapsible=0;dropTarget=0;points=[[0,0.5],[1,0.5]];portConstraint=eastwest;top=0;left=0;right=0;bottom=0;" parent="wI-5nJ8JduiSq8wfKIq_-130" vertex="1">
          <mxGeometry y="68" width="131" height="22" as="geometry" />
        </mxCell>
        <mxCell id="wI-5nJ8JduiSq8wfKIq_-140" value="" style="shape=partialRectangle;connectable=0;fillColor=none;top=0;left=0;bottom=0;right=0;align=left;spacingLeft=2;overflow=hidden;fontSize=11;" parent="wI-5nJ8JduiSq8wfKIq_-139" vertex="1">
          <mxGeometry width="36" height="22" as="geometry">
            <mxRectangle width="36" height="22" as="alternateBounds" />
          </mxGeometry>
        </mxCell>
        <mxCell id="wI-5nJ8JduiSq8wfKIq_-141" value="Afkeurreden" style="shape=partialRectangle;connectable=0;fillColor=none;top=0;left=0;bottom=0;right=0;align=left;spacingLeft=2;overflow=hidden;fontSize=11;" parent="wI-5nJ8JduiSq8wfKIq_-139" vertex="1">
          <mxGeometry x="36" width="95" height="22" as="geometry">
            <mxRectangle width="95" height="22" as="alternateBounds" />
          </mxGeometry>
        </mxCell>
        <mxCell id="wI-5nJ8JduiSq8wfKIq_-159" style="shape=tableRow;horizontal=0;startSize=0;swimlaneHead=0;swimlaneBody=0;fillColor=none;collapsible=0;dropTarget=0;points=[[0,0.5],[1,0.5]];portConstraint=eastwest;top=0;left=0;right=0;bottom=0;" parent="wI-5nJ8JduiSq8wfKIq_-130" vertex="1">
          <mxGeometry y="90" width="131" height="22" as="geometry" />
        </mxCell>
        <mxCell id="wI-5nJ8JduiSq8wfKIq_-160" style="shape=partialRectangle;connectable=0;fillColor=none;top=0;left=0;bottom=0;right=0;align=left;spacingLeft=2;overflow=hidden;fontSize=11;" parent="wI-5nJ8JduiSq8wfKIq_-159" vertex="1">
          <mxGeometry width="36" height="22" as="geometry">
            <mxRectangle width="36" height="22" as="alternateBounds" />
          </mxGeometry>
        </mxCell>
        <mxCell id="wI-5nJ8JduiSq8wfKIq_-161" value="AantalAfgekeurd" style="shape=partialRectangle;connectable=0;fillColor=none;top=0;left=0;bottom=0;right=0;align=left;spacingLeft=2;overflow=hidden;fontSize=11;" parent="wI-5nJ8JduiSq8wfKIq_-159" vertex="1">
          <mxGeometry x="36" width="95" height="22" as="geometry">
            <mxRectangle width="95" height="22" as="alternateBounds" />
          </mxGeometry>
        </mxCell>
        <mxCell id="wI-5nJ8JduiSq8wfKIq_-163" style="edgeStyle=orthogonalEdgeStyle;rounded=0;orthogonalLoop=1;jettySize=auto;html=1;exitX=1;exitY=0.5;exitDx=0;exitDy=0;entryX=0;entryY=0.5;entryDx=0;entryDy=0;fontSize=12;startSize=8;endSize=8;endArrow=ERmandOne;endFill=0;startArrow=ERzeroToMany;startFill=0;" parent="1" source="wI-5nJ8JduiSq8wfKIq_-131" target="wI-5nJ8JduiSq8wfKIq_-65" edge="1">
          <mxGeometry relative="1" as="geometry" />
        </mxCell>
        <mxCell id="wI-5nJ8JduiSq8wfKIq_-164" value="Operator" style="shape=table;startSize=25;container=1;collapsible=0;childLayout=tableLayout;fixedRows=1;rowLines=1;fontStyle=1;align=center;resizeLast=1;" parent="1" vertex="1">
          <mxGeometry x="865" y="675" width="111.73913043478251" height="91" as="geometry" />
        </mxCell>
        <mxCell id="wI-5nJ8JduiSq8wfKIq_-165" style="shape=tableRow;horizontal=0;startSize=0;swimlaneHead=0;swimlaneBody=0;fillColor=none;collapsible=0;dropTarget=0;points=[[0,0.5],[1,0.5]];portConstraint=eastwest;top=0;left=0;right=0;bottom=0;" parent="wI-5nJ8JduiSq8wfKIq_-164" vertex="1">
          <mxGeometry y="25" width="111.73913043478251" height="22" as="geometry" />
        </mxCell>
        <mxCell id="wI-5nJ8JduiSq8wfKIq_-166" value="PK" style="shape=partialRectangle;connectable=0;fillColor=none;top=0;left=0;bottom=0;right=0;align=left;spacingLeft=2;overflow=hidden;fontSize=11;" parent="wI-5nJ8JduiSq8wfKIq_-165" vertex="1">
          <mxGeometry width="26.521739130434867" height="22" as="geometry">
            <mxRectangle width="26.521739130434867" height="22" as="alternateBounds" />
          </mxGeometry>
        </mxCell>
        <mxCell id="wI-5nJ8JduiSq8wfKIq_-167" value="OperatorID" style="shape=partialRectangle;connectable=0;fillColor=none;top=0;left=0;bottom=0;right=0;align=left;spacingLeft=2;overflow=hidden;fontSize=11;" parent="wI-5nJ8JduiSq8wfKIq_-165" vertex="1">
          <mxGeometry x="26.521739130434867" width="85.21739130434764" height="22" as="geometry">
            <mxRectangle width="85.21739130434764" height="22" as="alternateBounds" />
          </mxGeometry>
        </mxCell>
        <mxCell id="wI-5nJ8JduiSq8wfKIq_-168" style="shape=tableRow;horizontal=0;startSize=0;swimlaneHead=0;swimlaneBody=0;fillColor=none;collapsible=0;dropTarget=0;points=[[0,0.5],[1,0.5]];portConstraint=eastwest;top=0;left=0;right=0;bottom=0;" parent="wI-5nJ8JduiSq8wfKIq_-164" vertex="1">
          <mxGeometry y="47" width="111.73913043478251" height="22" as="geometry" />
        </mxCell>
        <mxCell id="wI-5nJ8JduiSq8wfKIq_-169" value="" style="shape=partialRectangle;connectable=0;fillColor=none;top=0;left=0;bottom=0;right=0;align=left;spacingLeft=2;overflow=hidden;fontSize=11;" parent="wI-5nJ8JduiSq8wfKIq_-168" vertex="1">
          <mxGeometry width="26.521739130434867" height="22" as="geometry">
            <mxRectangle width="26.521739130434867" height="22" as="alternateBounds" />
          </mxGeometry>
        </mxCell>
        <mxCell id="wI-5nJ8JduiSq8wfKIq_-170" value="NaamOperator" style="shape=partialRectangle;connectable=0;fillColor=none;top=0;left=0;bottom=0;right=0;align=left;spacingLeft=2;overflow=hidden;fontSize=11;" parent="wI-5nJ8JduiSq8wfKIq_-168" vertex="1">
          <mxGeometry x="26.521739130434867" width="85.21739130434764" height="22" as="geometry">
            <mxRectangle width="85.21739130434764" height="22" as="alternateBounds" />
          </mxGeometry>
        </mxCell>
        <mxCell id="wI-5nJ8JduiSq8wfKIq_-171" style="shape=tableRow;horizontal=0;startSize=0;swimlaneHead=0;swimlaneBody=0;fillColor=none;collapsible=0;dropTarget=0;points=[[0,0.5],[1,0.5]];portConstraint=eastwest;top=0;left=0;right=0;bottom=0;" parent="wI-5nJ8JduiSq8wfKIq_-164" vertex="1">
          <mxGeometry y="69" width="111.73913043478251" height="22" as="geometry" />
        </mxCell>
        <mxCell id="wI-5nJ8JduiSq8wfKIq_-172" value="" style="shape=partialRectangle;connectable=0;fillColor=none;top=0;left=0;bottom=0;right=0;align=left;spacingLeft=2;overflow=hidden;fontSize=11;" parent="wI-5nJ8JduiSq8wfKIq_-171" vertex="1">
          <mxGeometry width="26.521739130434867" height="22" as="geometry">
            <mxRectangle width="26.521739130434867" height="22" as="alternateBounds" />
          </mxGeometry>
        </mxCell>
        <mxCell id="wI-5nJ8JduiSq8wfKIq_-173" value="Afdeling" style="shape=partialRectangle;connectable=0;fillColor=none;top=0;left=0;bottom=0;right=0;align=left;spacingLeft=2;overflow=hidden;fontSize=11;" parent="wI-5nJ8JduiSq8wfKIq_-171" vertex="1">
          <mxGeometry x="26.521739130434867" width="85.21739130434764" height="22" as="geometry">
            <mxRectangle width="85.21739130434764" height="22" as="alternateBounds" />
          </mxGeometry>
        </mxCell>
        <mxCell id="wI-5nJ8JduiSq8wfKIq_-189" style="edgeStyle=orthogonalEdgeStyle;rounded=0;orthogonalLoop=1;jettySize=auto;html=1;exitX=0;exitY=0.5;exitDx=0;exitDy=0;entryX=0;entryY=0.5;entryDx=0;entryDy=0;fontSize=12;startSize=8;endSize=8;endArrow=ERmandOne;endFill=0;startArrow=ERoneToMany;startFill=0;" parent="1" source="jmmyd-2RqcsZahoPcaCm-136" target="wI-5nJ8JduiSq8wfKIq_-165" edge="1">
          <mxGeometry relative="1" as="geometry">
            <Array as="points">
              <mxPoint x="816" y="888" />
              <mxPoint x="816" y="711" />
            </Array>
          </mxGeometry>
        </mxCell>
        <mxCell id="wI-5nJ8JduiSq8wfKIq_-198" style="rounded=0;orthogonalLoop=1;jettySize=auto;html=1;exitX=1;exitY=0.5;exitDx=0;exitDy=0;fontSize=12;startSize=8;endSize=8;entryX=1;entryY=0.5;entryDx=0;entryDy=0;edgeStyle=orthogonalEdgeStyle;endArrow=ERmandOne;endFill=0;startArrow=ERoneToMany;startFill=0;" parent="1" source="jmmyd-2RqcsZahoPcaCm-157" target="wI-5nJ8JduiSq8wfKIq_-168" edge="1">
          <mxGeometry relative="1" as="geometry">
            <mxPoint x="1125.6521739130435" y="839.0434782608697" as="targetPoint" />
          </mxGeometry>
        </mxCell>
        <mxCell id="wI-5nJ8JduiSq8wfKIq_-208" style="edgeStyle=orthogonalEdgeStyle;rounded=0;orthogonalLoop=1;jettySize=auto;html=1;exitX=1;exitY=0.5;exitDx=0;exitDy=0;fontSize=12;startSize=8;endSize=8;entryX=1;entryY=0.5;entryDx=0;entryDy=0;endArrow=ERmandOne;endFill=0;startArrow=ERoneToMany;startFill=0;" parent="1" source="jmmyd-2RqcsZahoPcaCm-178" target="wI-5nJ8JduiSq8wfKIq_-165" edge="1">
          <mxGeometry relative="1" as="geometry">
            <mxPoint x="1153" y="786" as="targetPoint" />
          </mxGeometry>
        </mxCell>
        <mxCell id="wI-5nJ8JduiSq8wfKIq_-209" value="ProcesLog" style="shape=table;startSize=24;container=1;collapsible=0;childLayout=tableLayout;fixedRows=1;rowLines=1;fontStyle=1;align=center;resizeLast=1;" parent="1" vertex="1">
          <mxGeometry x="13.999999999999984" y="913" width="131" height="135" as="geometry" />
        </mxCell>
        <mxCell id="wI-5nJ8JduiSq8wfKIq_-210" style="shape=tableRow;horizontal=0;startSize=0;swimlaneHead=0;swimlaneBody=0;fillColor=none;collapsible=0;dropTarget=0;points=[[0,0.5],[1,0.5]];portConstraint=eastwest;top=0;left=0;right=0;bottom=0;" parent="wI-5nJ8JduiSq8wfKIq_-209" vertex="1">
          <mxGeometry y="24" width="131" height="22" as="geometry" />
        </mxCell>
        <mxCell id="wI-5nJ8JduiSq8wfKIq_-211" value="PK" style="shape=partialRectangle;connectable=0;fillColor=none;top=0;left=0;bottom=0;right=0;align=left;spacingLeft=2;overflow=hidden;fontSize=11;" parent="wI-5nJ8JduiSq8wfKIq_-210" vertex="1">
          <mxGeometry width="36" height="22" as="geometry">
            <mxRectangle width="36" height="22" as="alternateBounds" />
          </mxGeometry>
        </mxCell>
        <mxCell id="wI-5nJ8JduiSq8wfKIq_-212" value="ProcesLogID" style="shape=partialRectangle;connectable=0;fillColor=none;top=0;left=0;bottom=0;right=0;align=left;spacingLeft=2;overflow=hidden;fontSize=11;" parent="wI-5nJ8JduiSq8wfKIq_-210" vertex="1">
          <mxGeometry x="36" width="95" height="22" as="geometry">
            <mxRectangle width="95" height="22" as="alternateBounds" />
          </mxGeometry>
        </mxCell>
        <mxCell id="wI-5nJ8JduiSq8wfKIq_-214" style="shape=tableRow;horizontal=0;startSize=0;swimlaneHead=0;swimlaneBody=0;fillColor=none;collapsible=0;dropTarget=0;points=[[0,0.5],[1,0.5]];portConstraint=eastwest;top=0;left=0;right=0;bottom=0;" parent="wI-5nJ8JduiSq8wfKIq_-209" vertex="1">
          <mxGeometry y="46" width="131" height="22" as="geometry" />
        </mxCell>
        <mxCell id="wI-5nJ8JduiSq8wfKIq_-215" value="" style="shape=partialRectangle;connectable=0;fillColor=none;top=0;left=0;bottom=0;right=0;align=left;spacingLeft=2;overflow=hidden;fontSize=11;" parent="wI-5nJ8JduiSq8wfKIq_-214" vertex="1">
          <mxGeometry width="36" height="22" as="geometry">
            <mxRectangle width="36" height="22" as="alternateBounds" />
          </mxGeometry>
        </mxCell>
        <mxCell id="wI-5nJ8JduiSq8wfKIq_-216" value="ProductID" style="shape=partialRectangle;connectable=0;fillColor=none;top=0;left=0;bottom=0;right=0;align=left;spacingLeft=2;overflow=hidden;fontSize=11;" parent="wI-5nJ8JduiSq8wfKIq_-214" vertex="1">
          <mxGeometry x="36" width="95" height="22" as="geometry">
            <mxRectangle width="95" height="22" as="alternateBounds" />
          </mxGeometry>
        </mxCell>
        <mxCell id="wI-5nJ8JduiSq8wfKIq_-218" style="shape=tableRow;horizontal=0;startSize=0;swimlaneHead=0;swimlaneBody=0;fillColor=none;collapsible=0;dropTarget=0;points=[[0,0.5],[1,0.5]];portConstraint=eastwest;top=0;left=0;right=0;bottom=0;" parent="wI-5nJ8JduiSq8wfKIq_-209" vertex="1">
          <mxGeometry y="68" width="131" height="22" as="geometry" />
        </mxCell>
        <mxCell id="wI-5nJ8JduiSq8wfKIq_-219" value="" style="shape=partialRectangle;connectable=0;fillColor=none;top=0;left=0;bottom=0;right=0;align=left;spacingLeft=2;overflow=hidden;fontSize=11;" parent="wI-5nJ8JduiSq8wfKIq_-218" vertex="1">
          <mxGeometry width="36" height="22" as="geometry">
            <mxRectangle width="36" height="22" as="alternateBounds" />
          </mxGeometry>
        </mxCell>
        <mxCell id="wI-5nJ8JduiSq8wfKIq_-220" value="ProcesStap" style="shape=partialRectangle;connectable=0;fillColor=none;top=0;left=0;bottom=0;right=0;align=left;spacingLeft=2;overflow=hidden;fontSize=11;" parent="wI-5nJ8JduiSq8wfKIq_-218" vertex="1">
          <mxGeometry x="36" width="95" height="22" as="geometry">
            <mxRectangle width="95" height="22" as="alternateBounds" />
          </mxGeometry>
        </mxCell>
        <mxCell id="wI-5nJ8JduiSq8wfKIq_-222" style="shape=tableRow;horizontal=0;startSize=0;swimlaneHead=0;swimlaneBody=0;fillColor=none;collapsible=0;dropTarget=0;points=[[0,0.5],[1,0.5]];portConstraint=eastwest;top=0;left=0;right=0;bottom=0;" parent="wI-5nJ8JduiSq8wfKIq_-209" vertex="1">
          <mxGeometry y="90" width="131" height="22" as="geometry" />
        </mxCell>
        <mxCell id="wI-5nJ8JduiSq8wfKIq_-223" style="shape=partialRectangle;connectable=0;fillColor=none;top=0;left=0;bottom=0;right=0;align=left;spacingLeft=2;overflow=hidden;fontSize=11;" parent="wI-5nJ8JduiSq8wfKIq_-222" vertex="1">
          <mxGeometry width="36" height="22" as="geometry">
            <mxRectangle width="36" height="22" as="alternateBounds" />
          </mxGeometry>
        </mxCell>
        <mxCell id="wI-5nJ8JduiSq8wfKIq_-224" value="Status" style="shape=partialRectangle;connectable=0;fillColor=none;top=0;left=0;bottom=0;right=0;align=left;spacingLeft=2;overflow=hidden;fontSize=11;" parent="wI-5nJ8JduiSq8wfKIq_-222" vertex="1">
          <mxGeometry x="36" width="95" height="22" as="geometry">
            <mxRectangle width="95" height="22" as="alternateBounds" />
          </mxGeometry>
        </mxCell>
        <mxCell id="wI-5nJ8JduiSq8wfKIq_-226" style="shape=tableRow;horizontal=0;startSize=0;swimlaneHead=0;swimlaneBody=0;fillColor=none;collapsible=0;dropTarget=0;points=[[0,0.5],[1,0.5]];portConstraint=eastwest;top=0;left=0;right=0;bottom=0;" parent="wI-5nJ8JduiSq8wfKIq_-209" vertex="1">
          <mxGeometry y="112" width="131" height="22" as="geometry" />
        </mxCell>
        <mxCell id="wI-5nJ8JduiSq8wfKIq_-227" style="shape=partialRectangle;connectable=0;fillColor=none;top=0;left=0;bottom=0;right=0;align=left;spacingLeft=2;overflow=hidden;fontSize=11;" parent="wI-5nJ8JduiSq8wfKIq_-226" vertex="1">
          <mxGeometry width="36" height="22" as="geometry">
            <mxRectangle width="36" height="22" as="alternateBounds" />
          </mxGeometry>
        </mxCell>
        <mxCell id="wI-5nJ8JduiSq8wfKIq_-228" value="TijdStipLog" style="shape=partialRectangle;connectable=0;fillColor=none;top=0;left=0;bottom=0;right=0;align=left;spacingLeft=2;overflow=hidden;fontSize=11;" parent="wI-5nJ8JduiSq8wfKIq_-226" vertex="1">
          <mxGeometry x="36" width="95" height="22" as="geometry">
            <mxRectangle width="95" height="22" as="alternateBounds" />
          </mxGeometry>
        </mxCell>
        <mxCell id="wI-5nJ8JduiSq8wfKIq_-230" style="edgeStyle=orthogonalEdgeStyle;rounded=0;orthogonalLoop=1;jettySize=auto;html=1;exitX=0;exitY=0.5;exitDx=0;exitDy=0;entryX=1;entryY=0.5;entryDx=0;entryDy=0;fontSize=12;startSize=8;endSize=8;startArrow=ERzeroToMany;startFill=0;endArrow=ERmandOne;endFill=0;" parent="1" source="wI-5nJ8JduiSq8wfKIq_-113" target="wI-5nJ8JduiSq8wfKIq_-210" edge="1">
          <mxGeometry relative="1" as="geometry" />
        </mxCell>
      </root>
    </mxGraphModel>
  </diagram>
</mxfile>
